<svg width="95" height="96" viewBox="0 0 95 96" fill="none" xmlns="http://www.w3.org/2000/svg">
<path opacity="0.5" d="M91.337 7.40301C89.3187 7.40301 87.6741 5.74112 87.6741 3.70151C87.6741 1.6619 89.3187 0 91.337 0C93.3554 0 95 1.6619 95 3.70151C95 5.75371 93.3554 7.40301 91.337 7.40301ZM95 25.8476C95 23.808 93.3554 22.1461 91.337 22.1461C89.3187 22.1461 87.6741 23.808 87.6741 25.8476C87.6741 27.8872 89.3187 29.5491 91.337 29.5491C93.3554 29.5491 95 27.8998 95 25.8476ZM95 47.9937C95 45.9541 93.3554 44.2922 91.337 44.2922C89.3187 44.2922 87.6741 45.9541 87.6741 47.9937C87.6741 50.0333 89.3187 51.6952 91.337 51.6952C93.3554 51.7078 95 50.0459 95 47.9937ZM95 70.1524C95 68.1128 93.3554 66.4509 91.337 66.4509C89.3187 66.4509 87.6741 68.1128 87.6741 70.1524C87.6741 72.192 89.3187 73.8539 91.337 73.8539C93.3554 73.8539 95 72.192 95 70.1524ZM95 92.2985C95 90.2589 93.3554 88.597 91.337 88.597C89.3187 88.597 87.6741 90.2589 87.6741 92.2985C87.6741 94.3381 89.3187 96 91.337 96C93.3554 96 95 94.3381 95 92.2985ZM73.0845 3.70151C73.0845 1.6619 71.44 0 69.4216 0C67.4032 0 65.7586 1.6619 65.7586 3.70151C65.7586 5.74112 67.4032 7.40301 69.4216 7.40301C71.44 7.40301 73.0845 5.75371 73.0845 3.70151ZM73.0845 25.8476C73.0845 23.808 71.44 22.1461 69.4216 22.1461C67.4032 22.1461 65.7586 23.808 65.7586 25.8476C65.7586 27.8872 67.4032 29.5491 69.4216 29.5491C71.44 29.5491 73.0845 27.8998 73.0845 25.8476ZM73.0845 47.9937C73.0845 45.9541 71.44 44.2922 69.4216 44.2922C67.4032 44.2922 65.7586 45.9541 65.7586 47.9937C65.7586 50.0333 67.4032 51.6952 69.4216 51.6952C71.44 51.7078 73.0845 50.0459 73.0845 47.9937ZM73.0845 70.1524C73.0845 68.1128 71.44 66.4509 69.4216 66.4509C67.4032 66.4509 65.7586 68.1128 65.7586 70.1524C65.7586 72.192 67.4032 73.8539 69.4216 73.8539C71.44 73.8539 73.0845 72.192 73.0845 70.1524ZM73.0845 92.2985C73.0845 90.2589 71.44 88.597 69.4216 88.597C67.4032 88.597 65.7586 90.2589 65.7586 92.2985C65.7586 94.3381 67.4032 96 69.4216 96C71.44 96 73.0845 94.3381 73.0845 92.2985ZM51.1567 3.70151C51.1567 1.6619 49.5121 0 47.4938 0C45.4754 0 43.8308 1.6619 43.8308 3.70151C43.8308 5.74112 45.4754 7.40301 47.4938 7.40301C49.5246 7.40301 51.1567 5.75371 51.1567 3.70151ZM51.1567 25.8476C51.1567 23.808 49.5121 22.1461 47.4938 22.1461C45.4754 22.1461 43.8308 23.808 43.8308 25.8476C43.8308 27.8872 45.4754 29.5491 47.4938 29.5491C49.5246 29.5491 51.1567 27.8998 51.1567 25.8476ZM51.1567 47.9937C51.1567 45.9541 49.5121 44.2922 47.4938 44.2922C45.4754 44.2922 43.8308 45.9541 43.8308 47.9937C43.8308 50.0333 45.4754 51.6952 47.4938 51.6952C49.5246 51.7078 51.1567 50.0459 51.1567 47.9937ZM51.1567 70.1524C51.1567 68.1128 49.5121 66.4509 47.4938 66.4509C45.4754 66.4509 43.8308 68.1128 43.8308 70.1524C43.8308 72.192 45.4754 73.8539 47.4938 73.8539C49.5246 73.8539 51.1567 72.192 51.1567 70.1524ZM51.1567 92.2985C51.1567 90.2589 49.5121 88.597 47.4938 88.597C45.4754 88.597 43.8308 90.2589 43.8308 92.2985C43.8308 94.3381 45.4754 96 47.4938 96C49.5246 96 51.1567 94.3381 51.1567 92.2985ZM29.2413 3.70151C29.2413 1.6619 27.5967 0 25.5783 0C23.56 0 21.9154 1.6619 21.9154 3.70151C21.9154 5.74112 23.56 7.40301 25.5783 7.40301C27.6091 7.40301 29.2413 5.75371 29.2413 3.70151ZM29.2413 25.8476C29.2413 23.808 27.5967 22.1461 25.5783 22.1461C23.56 22.1461 21.9154 23.808 21.9154 25.8476C21.9154 27.8872 23.56 29.5491 25.5783 29.5491C27.6091 29.5491 29.2413 27.8998 29.2413 25.8476ZM29.2413 47.9937C29.2413 45.9541 27.5967 44.2922 25.5783 44.2922C23.56 44.2922 21.9154 45.9541 21.9154 47.9937C21.9154 50.0333 23.56 51.6952 25.5783 51.6952C27.6091 51.7078 29.2413 50.0459 29.2413 47.9937ZM29.2413 70.1524C29.2413 68.1128 27.5967 66.4509 25.5783 66.4509C23.56 66.4509 21.9154 68.1128 21.9154 70.1524C21.9154 72.192 23.56 73.8539 25.5783 73.8539C27.6091 73.8539 29.2413 72.192 29.2413 70.1524ZM29.2413 92.2985C29.2413 90.2589 27.5967 88.597 25.5783 88.597C23.56 88.597 21.9154 90.2589 21.9154 92.2985C21.9154 94.3381 23.56 96 25.5783 96C27.6091 96 29.2413 94.3381 29.2413 92.2985ZM7.32591 3.70151C7.32591 1.6619 5.68131 0 3.66295 0C1.64459 0 0 1.6619 0 3.70151C0 5.74112 1.64459 7.40301 3.66295 7.40301C5.68131 7.40301 7.32591 5.75371 7.32591 3.70151ZM7.32591 25.8476C7.32591 23.808 5.68131 22.1461 3.66295 22.1461C1.64459 22.1461 0 23.808 0 25.8476C0 27.8872 1.64459 29.5491 3.66295 29.5491C5.68131 29.5491 7.32591 27.8998 7.32591 25.8476ZM7.32591 47.9937C7.32591 45.9541 5.68131 44.2922 3.66295 44.2922C1.64459 44.2922 0 45.9541 0 47.9937C0 50.0333 1.64459 51.6952 3.66295 51.6952C5.68131 51.6952 7.32591 50.0459 7.32591 47.9937ZM7.32591 70.1524C7.32591 68.1128 5.68131 66.4509 3.66295 66.4509C1.64459 66.4509 0 68.1128 0 70.1524C0 72.192 1.64459 73.8539 3.66295 73.8539C5.68131 73.8539 7.32591 72.192 7.32591 70.1524ZM7.32591 92.2985C7.32591 90.2589 5.68131 88.597 3.66295 88.597C1.64459 88.597 0 90.2589 0 92.2985C0 94.3381 1.64459 96 3.66295 96C5.68131 96 7.32591 94.3381 7.32591 92.2985Z" fill="#BEF264"/>
</svg>
