<svg width="48" height="70" viewBox="0 0 48 70" fill="none" xmlns="http://www.w3.org/2000/svg">
<rect x="0.769531" y="0.75" width="46.5195" height="68.4861" rx="8.25" stroke="#EA580C" stroke-width="0.5"/>
<path d="M20.0017 32.2344L19.8008 37.3455L19.774 37.651L14.149 37.2483C13.8276 37.2205 13.5285 37.0747 13.2517 36.8108C12.9749 36.5469 12.7651 36.2436 12.6222 35.901C12.524 35.651 12.4593 35.3964 12.428 35.1372C12.3968 34.8779 12.4146 34.577 12.4816 34.2344C12.5485 33.8918 12.6021 33.6372 12.6423 33.4705C12.6825 33.3038 12.7785 33.0075 12.9302 32.5816C13.082 32.1557 13.1669 31.9103 13.1847 31.8455C13.8811 31.9566 16.1535 32.0862 20.0017 32.2344ZM14.8186 24.0955L17.2294 29.3594L15.2606 28.0816C14.6981 28.7483 14.2003 29.4172 13.7673 30.0885C13.3343 30.7598 13.0106 31.3385 12.7963 31.8247C12.582 32.3108 12.4057 32.7483 12.2673 33.1372C12.1289 33.526 12.0463 33.8177 12.0195 34.0122L11.966 34.3038L9.42132 29.3455C9.26953 29.1047 9.18917 28.8455 9.18025 28.5677C9.17132 28.2899 9.1981 28.0723 9.2606 27.9149L9.36775 27.6649C9.68025 27.0816 10.1892 26.2112 10.8945 25.0538L9.01953 23.8594L14.8186 24.0955Z" fill="#EA580C"/>
<path d="M24.0686 11.4429C23.649 12.0262 22.466 14.0401 20.5195 17.4846L16.274 14.8873L16.0195 14.7207L19.0329 9.77623C19.2115 9.4892 19.4794 9.28086 19.8365 9.15123C20.1936 9.0216 20.5508 8.97531 20.9079 9.01235C21.1222 9.03086 21.3387 9.08642 21.5575 9.17901C21.7762 9.2716 21.9637 9.36883 22.12 9.47068C22.2762 9.57253 22.4615 9.72531 22.6758 9.92901C22.8901 10.1327 23.0508 10.2924 23.1579 10.4082C23.2651 10.5239 23.4258 10.7068 23.6401 10.9568C23.8544 11.2068 23.9972 11.3688 24.0686 11.4429ZM30.9258 12.5679L32.8276 11.4151L29.8811 16.5957L24.2695 16.3179L26.2919 15.1235C25.9883 14.2994 25.6535 13.5309 25.2874 12.8179C24.9213 12.1049 24.5843 11.5332 24.2762 11.1026C23.9682 10.6721 23.6802 10.3017 23.4124 9.99151C23.1445 9.68133 22.9347 9.46605 22.7829 9.34568L22.5552 9.16512L27.9794 9.17901C28.2561 9.15123 28.5151 9.19985 28.7561 9.32485C28.9972 9.44985 29.1713 9.58179 29.2785 9.72068L29.4258 9.92901C29.774 10.4938 30.274 11.3735 30.9258 12.5679Z" fill="#EA580C"/>
<path d="M37.7561 30.5694L35.2383 35.5556C35.1311 35.8241 34.9682 36.0394 34.7494 36.2014C34.5307 36.3634 34.3365 36.4583 34.1669 36.4861L33.9258 36.5417C33.2919 36.6065 32.3142 36.662 30.9927 36.7083L31.0999 38.9861L28.0195 33.8889L30.8454 28.8611L30.9392 31.2639C32.457 31.412 33.7204 31.4352 34.7294 31.3333C35.7383 31.2315 36.4972 31.0787 37.0061 30.875L37.7561 30.5694ZM36.0151 22L38.8544 27.0417C39.0151 27.3843 39.0709 27.7361 39.0218 28.0972C38.9727 28.4583 38.8499 28.8009 38.6535 29.125C38.5374 29.3102 38.3901 29.4815 38.2115 29.6389C38.0329 29.7963 37.8633 29.9259 37.7026 30.0278C37.5419 30.1296 37.3253 30.2315 37.053 30.3333C36.7807 30.4352 36.5709 30.5093 36.4235 30.5556C36.2762 30.6019 36.0463 30.6667 35.7338 30.75C35.4213 30.8333 35.216 30.8889 35.1177 30.9167C34.8142 30.25 33.6311 28.2315 31.5686 24.8611L35.7606 22.1528L36.0151 22Z" fill="#EA580C"/>
<path d="M22.1835 28.104C22.9515 27.464 23.5635 26.932 24.0195 26.508C24.4755 26.076 24.8555 25.628 25.1595 25.164C25.4635 24.7 25.6155 24.244 25.6155 23.796C25.6155 23.388 25.5195 23.068 25.3275 22.836C25.1355 22.604 24.8395 22.488 24.4395 22.488C24.0395 22.488 23.7315 22.624 23.5155 22.896C23.2995 23.16 23.1875 23.524 23.1795 23.988H21.5475C21.5795 23.028 21.8635 22.3 22.3995 21.804C22.9435 21.308 23.6315 21.06 24.4635 21.06C25.3755 21.06 26.0755 21.304 26.5635 21.792C27.0515 22.272 27.2955 22.908 27.2955 23.7C27.2955 24.324 27.1275 24.92 26.7915 25.488C26.4555 26.056 26.0715 26.552 25.6395 26.976C25.2075 27.392 24.6435 27.896 23.9475 28.488H27.4875V29.88H21.5595V28.632L22.1835 28.104Z" fill="#EA580C"/>
<path d="M16.3875 48.6223V56.9863H15.2955V53.1943H11.0355V56.9863H9.94353V48.6223H11.0355V52.2943H15.2955V48.6223H16.3875ZM20.8561 48.6223C21.7681 48.6223 22.5561 48.7943 23.2201 49.1383C23.8921 49.4743 24.4041 49.9583 24.7561 50.5903C25.1161 51.2223 25.2961 51.9663 25.2961 52.8223C25.2961 53.6783 25.1161 54.4223 24.7561 55.0543C24.4041 55.6783 23.8921 56.1583 23.2201 56.4943C22.5561 56.8223 21.7681 56.9863 20.8561 56.9863H18.2521V48.6223H20.8561ZM20.8561 56.0863C21.9361 56.0863 22.7601 55.8023 23.3281 55.2343C23.8961 54.6583 24.1801 53.8543 24.1801 52.8223C24.1801 51.7823 23.8921 50.9703 23.3161 50.3863C22.7481 49.8023 21.9281 49.5103 20.8561 49.5103H19.3441V56.0863H20.8561ZM32.3285 51.0703C32.3285 51.7663 32.0885 52.3463 31.6085 52.8103C31.1365 53.2663 30.4125 53.4943 29.4365 53.4943H27.8285V56.9863H26.7365V48.6223H29.4365C30.3805 48.6223 31.0965 48.8503 31.5845 49.3063C32.0805 49.7623 32.3285 50.3503 32.3285 51.0703ZM29.4365 52.5943C30.0445 52.5943 30.4925 52.4623 30.7805 52.1983C31.0685 51.9343 31.2125 51.5583 31.2125 51.0703C31.2125 50.0383 30.6205 49.5223 29.4365 49.5223H27.8285V52.5943H29.4365ZM34.7777 49.5103V52.3063H37.8257V53.2063H34.7777V56.0863H38.1857V56.9863H33.6857V48.6103H38.1857V49.5103H34.7777Z" fill="#EA580C"/>
</svg>
