<svg width="59" height="94" viewBox="0 0 59 94" fill="none" xmlns="http://www.w3.org/2000/svg">
<path d="M21.5842 45.5138L21.1894 55.526L21.1367 56.1245L10.0814 55.3355C9.44967 55.2811 8.86181 54.9954 8.31781 54.4785C7.77382 53.9616 7.36144 53.3676 7.08067 52.6965C6.88764 52.2067 6.76042 51.7079 6.699 51.2001C6.63758 50.6922 6.67268 50.1027 6.80429 49.4316C6.9359 48.7605 7.04119 48.2617 7.12016 47.9352C7.19912 47.6088 7.38776 47.0283 7.68608 46.194C7.9844 45.3596 8.15111 44.879 8.1862 44.752C9.55496 44.9697 14.021 45.2236 21.5842 45.5138ZM11.3975 29.5706L16.1355 39.882L12.2661 37.3789C11.1606 38.6849 10.1823 39.9953 9.33122 41.3103C8.48013 42.6254 7.84402 43.759 7.42286 44.7112C7.00171 45.6635 6.65513 46.5205 6.38313 47.2823C6.11114 48.0441 5.94882 48.6154 5.89617 48.9963L5.79088 49.5677L0.789666 39.8548C0.491348 39.3832 0.333414 38.8753 0.315866 38.3312C0.298318 37.787 0.350963 37.3608 0.4738 37.0525L0.684377 36.5627C1.29856 35.42 2.29881 33.7151 3.68511 31.4478L0 29.108L11.3975 29.5706Z" fill="#EA580C"/>
<path d="M29.5774 4.7854C28.7526 5.92809 26.4275 9.8731 22.602 16.6204L14.2579 11.5327L13.7577 11.2062L19.6802 1.52057C20.0312 0.958289 20.5576 0.550185 21.2596 0.296253C21.9615 0.042322 22.6634 -0.0483679 23.3653 0.0241839C23.7865 0.0604599 24.212 0.169288 24.642 0.350667C25.0719 0.532047 25.4404 0.722496 25.7475 0.922013C26.0546 1.12153 26.4187 1.42081 26.8399 1.81984C27.261 2.21888 27.5769 2.53176 27.7875 2.75848C27.998 2.98521 28.3139 3.34343 28.7351 3.83316C29.1562 4.32288 29.437 4.6403 29.5774 4.7854ZM43.0543 6.98916L46.7921 4.73099L41.0012 14.8792L29.9722 14.335L33.9469 11.9952C33.3502 10.381 32.6922 8.87551 31.9727 7.47889C31.2532 6.08226 30.5908 4.96224 29.9854 4.11883C29.38 3.27541 28.814 2.5499 28.2876 1.94227C27.7611 1.33465 27.3488 0.912944 27.0504 0.677151L26.603 0.32346L37.2635 0.350667C37.8075 0.296253 38.3163 0.391478 38.7901 0.63634C39.264 0.881203 39.6061 1.13967 39.8167 1.41174L40.1063 1.81984C40.7906 2.92626 41.7733 4.64936 43.0543 6.98916Z" fill="#EA580C"/>
<path d="M56.4787 42.2524L51.5301 52.0197C51.3195 52.5457 50.9993 52.9674 50.5693 53.2848C50.1394 53.6022 49.7577 53.7881 49.4243 53.8425L48.9505 53.9514C47.7046 54.0783 45.7831 54.1872 43.186 54.2779L43.3965 58.7398L37.3424 48.7549L42.8964 38.9059L43.0807 43.6127C46.0639 43.9029 48.5469 43.9483 50.5299 43.7488C52.5128 43.5493 54.0044 43.25 55.0046 42.8509L56.4787 42.2524ZM53.0568 25.4657L58.6371 35.3418C58.953 36.0129 59.0626 36.7022 58.9661 37.4096C58.8696 38.1169 58.6283 38.788 58.2423 39.4229C58.0141 39.7856 57.7246 40.1212 57.3736 40.4295C57.0227 40.7379 56.6892 40.9918 56.3734 41.1913C56.0575 41.3908 55.632 41.5904 55.0968 41.7899C54.5615 41.9894 54.1492 42.1345 53.8596 42.2252C53.5701 42.3159 53.1182 42.4428 52.504 42.6061C51.8898 42.7693 51.4862 42.8781 51.2932 42.9326C50.6966 41.6266 48.3714 37.6726 44.3178 31.0703L52.5567 25.765L53.0568 25.4657Z" fill="#EA580C"/>
<path d="M25.8724 37.4228C27.3818 36.1691 28.5846 35.127 29.4809 34.2964C30.3771 33.4502 31.1239 32.5726 31.7214 31.6637C32.3189 30.7547 32.6176 29.8615 32.6176 28.9839C32.6176 28.1847 32.429 27.5578 32.0516 27.1033C31.6742 26.6489 31.0925 26.4216 30.3063 26.4216C29.5202 26.4216 28.9148 26.6881 28.4903 27.2209C28.0658 27.738 27.8457 28.4511 27.8299 29.36H24.6224C24.6853 27.4795 25.2435 26.0534 26.2969 25.0818C27.3661 24.1101 28.7183 23.6243 30.3535 23.6243C32.1459 23.6243 33.5217 24.1023 34.4808 25.0583C35.4399 25.9985 35.9195 27.2444 35.9195 28.7958C35.9195 30.0182 35.5893 31.1857 34.9289 32.2983C34.2686 33.411 33.5139 34.3826 32.6648 35.2132C31.8158 36.0281 30.7073 37.0154 29.3394 38.175H36.2968V40.9018H24.646V38.4571L25.8724 37.4228Z" fill="#EA580C"/>
<path d="M14.481 77.6158V94H12.3348V86.5719H3.96223V94H1.81602V77.6158H3.96223V84.8088H12.3348V77.6158H14.481Z" fill="#EA580C"/>
<path d="M23.2635 77.6158C25.056 77.6158 26.6047 77.9527 27.9097 78.6266C29.2305 79.2847 30.2367 80.2328 30.9286 81.4709C31.6361 82.7089 31.9899 84.1663 31.9899 85.8431C31.9899 87.52 31.6361 88.9774 30.9286 90.2154C30.2367 91.4378 29.2305 92.378 27.9097 93.0362C26.6047 93.6787 25.056 94 23.2635 94H18.1457V77.6158H23.2635ZM23.2635 92.237C25.3862 92.237 27.0056 91.6807 28.122 90.568C29.2383 89.4397 29.7965 87.8647 29.7965 85.8431C29.7965 83.8059 29.2305 82.2153 28.0984 81.0713C26.9821 79.9273 25.3704 79.3553 23.2635 79.3553H20.2919V92.237H23.2635Z" fill="#EA580C"/>
<path d="M45.8112 82.4111C45.8112 83.7745 45.3395 84.9107 44.3962 85.8196C43.4685 86.7129 42.0456 87.1595 40.1273 87.1595H36.967V94H34.8208V77.6158H40.1273C41.9827 77.6158 43.3899 78.0624 44.349 78.9557C45.3238 79.8489 45.8112 81.0007 45.8112 82.4111ZM40.1273 85.3965C41.3223 85.3965 42.2028 85.1379 42.7688 84.6208C43.3348 84.1036 43.6179 83.3671 43.6179 82.4111C43.6179 80.3896 42.4544 79.3788 40.1273 79.3788H36.967V85.3965H40.1273Z" fill="#EA580C"/>
<path d="M50.6249 79.3553V84.8324H56.6154V86.5954H50.6249V92.237H57.323V94H48.4787V77.5923H57.323V79.3553H50.6249Z" fill="#EA580C"/>
</svg>
