<svg width="1036" height="596" viewBox="0 0 1036 596" fill="none" xmlns="http://www.w3.org/2000/svg">
<path opacity="0.5" d="M330.728 -169.246C206.124 -97.6425 186.814 37.7555 102.425 137.643C73.0478 172.401 35.0889 203.507 15.2842 242.066C-30.1839 330.324 32.3933 430.438 116.15 500.536C156.09 533.976 202.741 564.612 259.184 578.707C302.589 589.547 349.13 589.998 394.818 590.281L1195.26 595.926C1284.62 596.547 1383.92 594.308 1448.18 546.998C1492.46 514.424 1510.45 466.851 1525.72 421.443C1544.48 365.646 1561.48 305.051 1532.29 251.908C1498.95 191.106 1414.65 156.65 1362.28 104.184C1277.28 19.1817 1279.23 -109.385 1171 -177.244C1120.47 -208.915 1053.79 -221.335 988.82 -227.545C866.334 -239.269 750.312 -217.139 630.026 -220.225C527.207 -222.86 416.026 -218.268 330.728 -169.246Z" fill="#F7FEE7"/>
<g clip-path="url(#clip0_553_16138)">
<path d="M433.47 407.184H427.139V521.96H433.47V407.184Z" fill="#ECFCCB"/>
<path d="M426.756 329.731C447.151 329.731 463.684 313.198 463.684 292.803C463.684 272.408 447.151 255.875 426.756 255.875C406.362 255.875 389.828 272.408 389.828 292.803C389.828 313.198 406.362 329.731 426.756 329.731Z" fill="#ECFCCB"/>
<path d="M448.324 432.72C466.537 432.72 481.301 417.955 481.301 399.743C481.301 381.53 466.537 366.766 448.324 366.766C430.112 366.766 415.347 381.53 415.347 399.743C415.347 417.955 430.112 432.72 448.324 432.72Z" fill="#ECFCCB"/>
<path d="M409.021 434.949C428.466 434.949 444.228 419.186 444.228 399.742C444.228 380.298 428.466 364.535 409.021 364.535C389.577 364.535 373.814 380.298 373.814 399.742C373.814 419.186 389.577 434.949 409.021 434.949Z" fill="#ECFCCB"/>
<path d="M452.899 359.327C469.245 359.327 482.496 346.076 482.496 329.73C482.496 313.384 469.245 300.133 452.899 300.133C436.554 300.133 423.302 313.384 423.302 329.73C423.302 346.076 436.554 359.327 452.899 359.327Z" fill="#ECFCCB"/>
<path d="M430.305 377.108C446.65 377.108 459.902 363.857 459.902 347.511C459.902 331.165 446.65 317.914 430.305 317.914C413.959 317.914 400.708 331.165 400.708 347.511C400.708 363.857 413.959 377.108 430.305 377.108Z" fill="#ECFCCB"/>
<path d="M465.561 388.924C481.907 388.924 495.158 375.673 495.158 359.327C495.158 342.982 481.907 329.73 465.561 329.73C449.215 329.73 435.964 342.982 435.964 359.327C435.964 375.673 449.215 388.924 465.561 388.924Z" fill="#ECFCCB"/>
<path d="M393.705 358.276C410.051 358.276 423.302 345.025 423.302 328.679C423.302 312.333 410.051 299.082 393.705 299.082C377.359 299.082 364.108 312.333 364.108 328.679C364.108 345.025 377.359 358.276 393.705 358.276Z" fill="#ECFCCB"/>
<path d="M393.705 394.999C410.051 394.999 423.302 381.748 423.302 365.402C423.302 349.056 410.051 335.805 393.705 335.805C377.359 335.805 364.108 349.056 364.108 365.402C364.108 381.748 377.359 394.999 393.705 394.999Z" fill="#ECFCCB"/>
<path d="M847.072 390.938H838.694V542.826H847.072V390.938Z" fill="#ECFCCB"/>
<path d="M838.189 288.439C865.178 288.439 887.057 266.56 887.057 239.571C887.057 212.582 865.178 190.703 838.189 190.703C811.199 190.703 789.321 212.582 789.321 239.571C789.321 266.56 811.199 288.439 838.189 288.439Z" fill="#ECFCCB"/>
<path d="M866.729 424.729C890.831 424.729 910.369 405.191 910.369 381.089C910.369 356.987 890.831 337.449 866.729 337.449C842.628 337.449 823.089 356.987 823.089 381.089C823.089 405.191 842.628 424.729 866.729 424.729Z" fill="#ECFCCB"/>
<path d="M814.719 427.684C840.452 427.684 861.311 406.824 861.311 381.092C861.311 355.36 840.452 334.5 814.719 334.5C788.987 334.5 768.127 355.36 768.127 381.092C768.127 406.824 788.987 427.684 814.719 427.684Z" fill="#ECFCCB"/>
<path d="M872.785 327.606C894.417 327.606 911.953 310.069 911.953 288.438C911.953 266.806 894.417 249.27 872.785 249.27C851.154 249.27 833.617 266.806 833.617 288.438C833.617 310.069 851.154 327.606 872.785 327.606Z" fill="#ECFCCB"/>
<path d="M842.883 351.137C864.515 351.137 882.051 333.601 882.051 311.969C882.051 290.337 864.515 272.801 842.883 272.801C821.251 272.801 803.715 290.337 803.715 311.969C803.715 333.601 821.251 351.137 842.883 351.137Z" fill="#ECFCCB"/>
<path d="M889.541 366.774C911.172 366.774 928.709 349.237 928.709 327.605C928.709 305.974 911.172 288.438 889.541 288.438C867.909 288.438 850.373 305.974 850.373 327.605C850.373 349.237 867.909 366.774 889.541 366.774Z" fill="#ECFCCB"/>
<path d="M794.449 326.215C816.081 326.215 833.617 308.679 833.617 287.047C833.617 265.415 816.081 247.879 794.449 247.879C772.818 247.879 755.281 265.415 755.281 287.047C755.281 308.679 772.818 326.215 794.449 326.215Z" fill="#ECFCCB"/>
<path d="M794.449 374.813C816.081 374.813 833.617 357.276 833.617 335.645C833.617 314.013 816.081 296.477 794.449 296.477C772.818 296.477 755.281 314.013 755.281 335.645C755.281 357.276 772.818 374.813 794.449 374.813Z" fill="#ECFCCB"/>
<path d="M755.492 589.805H1009.36C1023.29 552.178 981.449 533.622 968.148 558.005C976.082 543.459 978.193 525.023 961.712 513.154C944.441 503.746 923.648 514.501 920.465 531.518C924.7 508.859 904.53 486.276 882.083 481.142C824.47 467.972 811.626 526.988 816.847 536.266C801.624 509.232 738.711 542.601 755.492 589.805Z" fill="#ECFCCB"/>
<path d="M297.713 589.804H554.403C568.326 552.177 526.49 533.621 513.189 558.004C521.123 543.458 523.234 525.022 506.753 513.153C489.482 503.745 468.689 514.5 465.506 531.517C469.741 508.858 449.571 486.275 427.124 481.141C369.511 467.973 356.667 526.989 361.892 536.267C329.147 519.106 297.713 541.386 297.713 589.804Z" fill="#ECFCCB"/>
<path d="M665.432 589.806H819.059C830.328 580.813 831.105 560.55 819.425 551.501C810.425 544.528 796.811 546.393 788.348 553.646C789.93 548.246 789.962 542.51 788.439 537.093C785.687 527.338 779.571 517.427 770.231 513.482C746.399 503.425 729.464 524.495 726.071 536.276C719.971 527.303 706.319 522.56 697.751 528.601C686.898 536.251 687.389 548.313 696.051 556.97C684.516 554.82 675.828 556.479 667.827 565.07C661.732 571.604 660.8 582.743 665.432 589.806Z" fill="#ECFCCB"/>
<path d="M678.597 589.806H523.162C514.637 566.769 540.252 555.406 548.396 570.337C543.538 561.431 542.245 550.144 552.336 542.877C562.91 537.117 575.641 543.702 577.59 554.121C574.997 540.247 587.346 526.421 601.09 523.277C636.365 515.214 644.229 551.347 641.032 557.028C650.348 540.475 688.868 560.905 678.597 589.806Z" fill="#ECFCCB"/>
<path d="M437.458 589.806H294.95C284.496 581.463 283.776 562.667 294.61 554.274C302.963 547.805 315.588 549.535 323.438 556.264C321.972 551.254 321.942 545.934 323.354 540.909C325.906 531.856 331.58 522.665 340.243 519.009C362.351 509.681 378.062 529.225 381.207 540.154C386.867 531.83 399.53 527.43 407.477 533.034C417.544 540.134 417.089 551.319 409.058 559.35C419.758 557.35 427.817 558.894 435.239 566.86C440.892 572.921 441.754 583.254 437.458 589.806Z" fill="#DBECBC"/>
<path d="M1010.11 589.806H922.392C915.957 584.671 915.514 573.1 922.183 567.933C927.325 563.951 935.096 565.016 939.929 569.158C939.026 566.075 939.008 562.799 939.877 559.706C941.448 554.133 944.941 548.476 950.277 546.223C963.886 540.481 973.557 552.512 975.493 559.239C978.978 554.115 986.772 551.407 991.664 554.857C997.864 559.225 997.582 566.112 992.638 571.057C999.225 569.829 1004.19 570.776 1008.75 575.68C1012.23 579.412 1012.76 585.773 1010.11 589.806Z" fill="#DBECBC"/>
<path fill-rule="evenodd" clip-rule="evenodd" d="M662.411 343.957L674.265 589.807H675.055H789.718L801.573 343.957H662.411Z" fill="#84CC16"/>
<path d="M731.992 487.494C759.214 487.494 781.282 465.426 781.282 438.204C781.282 410.982 759.214 388.914 731.992 388.914C704.77 388.914 682.702 410.982 682.702 438.204C682.702 465.426 704.77 487.494 731.992 487.494Z" fill="white"/>
<path fill-rule="evenodd" clip-rule="evenodd" d="M742.922 435.615L755.442 427.973L761.052 439.02C762.406 445.056 754.981 447.271 749.02 446.911L742.922 435.615Z" fill="#84CC16"/>
<path fill-rule="evenodd" clip-rule="evenodd" d="M740.077 443.508L733.487 455.385L740.072 467.429L740.235 462.612H746.251C747.481 462.652 748.699 462.356 749.774 461.756C750.849 461.156 751.739 460.274 752.351 459.206L760.074 444.754C757.527 447.328 754.251 447.993 750.481 447.993H740.321L740.077 443.508Z" fill="#84CC16"/>
<path fill-rule="evenodd" clip-rule="evenodd" d="M725.365 428.861L712.749 421.387L719.479 411.014C723.986 406.874 729.486 412.431 732.072 417.932L725.365 428.861Z" fill="#84CC16"/>
<path fill-rule="evenodd" clip-rule="evenodd" d="M733.498 427.574L746.858 427.691L753.968 415.963L749.768 418.156L746.848 412.782C746.304 411.677 745.47 410.741 744.436 410.072C743.401 409.404 742.205 409.029 740.974 408.988L724.858 409.104C728.298 410.13 730.458 412.733 732.286 416.104L737.219 425.182L733.499 427.577L733.498 427.574Z" fill="#84CC16"/>
<path fill-rule="evenodd" clip-rule="evenodd" d="M703.094 428.243L707.003 431.297L703.324 438.345C701.485 441.595 704.645 444.761 706.659 445.863C708.641 446.947 711.717 447.076 714.591 447.037L719.765 438.58L723.674 440.694L716.887 428.125L703.094 428.243Z" fill="#84CC16"/>
<path fill-rule="evenodd" clip-rule="evenodd" d="M703.669 444.57L712.062 460.076C713.748 462.23 716.929 462.739 720.225 462.66H729.078V447.977L712.292 447.86C710.698 448.011 709.091 447.793 707.596 447.223C706.1 446.652 704.757 445.744 703.669 444.57Z" fill="#84CC16"/>
<path fill-rule="evenodd" clip-rule="evenodd" d="M497.081 343.957L508.936 589.807H509.726H624.389L636.244 343.957H497.081Z" fill="#4D7C0F"/>
<path fill-rule="evenodd" clip-rule="evenodd" d="M636.24 343.953H497.08L507.67 277.973H625.16L636.24 343.953Z" fill="#4D7C0F"/>
<path opacity="0.12" fill-rule="evenodd" clip-rule="evenodd" d="M620.434 332.9H512.886L519.929 289.02H613.066L620.434 332.9Z" fill="#0F1011"/>
<path d="M566.663 487.494C593.885 487.494 615.953 465.426 615.953 438.204C615.953 410.982 593.885 388.914 566.663 388.914C539.44 388.914 517.373 410.982 517.373 438.204C517.373 465.426 539.44 487.494 566.663 487.494Z" fill="white"/>
<path fill-rule="evenodd" clip-rule="evenodd" d="M577.593 435.615L590.113 427.973L595.722 439.02C597.077 445.056 589.652 447.271 583.691 446.911L577.593 435.615Z" fill="#4D7C0F"/>
<path fill-rule="evenodd" clip-rule="evenodd" d="M574.748 443.507L568.163 455.384L574.748 467.428L574.91 462.611H580.926C582.156 462.651 583.374 462.355 584.449 461.755C585.523 461.155 586.414 460.273 587.026 459.205L594.747 444.75C592.2 447.324 588.924 447.989 585.154 447.989H574.992L574.748 443.504V443.507Z" fill="#4D7C0F"/>
<path fill-rule="evenodd" clip-rule="evenodd" d="M560.034 428.861L547.418 421.387L554.149 411.014C558.656 406.874 564.156 412.431 566.741 417.932L560.034 428.861Z" fill="#4D7C0F"/>
<path fill-rule="evenodd" clip-rule="evenodd" d="M568.169 427.574L581.529 427.691L588.639 415.963L584.439 418.156L581.519 412.782C580.975 411.677 580.141 410.741 579.107 410.072C578.072 409.404 576.875 409.029 575.645 408.988L559.529 409.104C562.969 410.13 565.129 412.733 566.957 416.104L571.89 425.182L568.17 427.577L568.169 427.574Z" fill="#4D7C0F"/>
<path fill-rule="evenodd" clip-rule="evenodd" d="M537.765 428.243L541.674 431.297L537.995 438.345C536.156 441.595 539.316 444.761 541.329 445.863C543.312 446.947 546.388 447.076 549.262 447.037L554.436 438.58L558.345 440.694L551.562 428.125L537.765 428.243Z" fill="#4D7C0F"/>
<path fill-rule="evenodd" clip-rule="evenodd" d="M538.34 444.57L546.733 460.076C548.419 462.23 551.6 462.739 554.896 462.66H563.749V447.977L546.963 447.86C545.369 448.011 543.762 447.793 542.267 447.223C540.771 446.652 539.428 445.744 538.34 444.57Z" fill="#4D7C0F"/>
<path d="M644.531 337.5H488.792V355.326H644.531V337.5Z" fill="#4D7C0F"/>
<path fill-rule="evenodd" clip-rule="evenodd" d="M801.569 343.953H662.409L672.999 277.973H790.489L801.569 343.953Z" fill="#84CC16"/>
<path opacity="0.12" fill-rule="evenodd" clip-rule="evenodd" d="M785.762 332.9H678.214L685.257 289.02H778.394L785.762 332.9Z" fill="#0F1011"/>
<path d="M809.861 337.5H654.122V355.326H809.861V337.5Z" fill="#84CC16"/>
<path opacity="0.12" d="M644.531 337.5H488.792V355.326H644.531V337.5Z" fill="#0F1011"/>
<path opacity="0.12" d="M809.861 337.5H654.122V355.326H809.861V337.5Z" fill="#0F1011"/>
</g>
<defs>
<clipPath id="clip0_553_16138">
<rect width="725.365" height="487.157" fill="white" transform="translate(286.792 102.648)"/>
</clipPath>
</defs>
</svg>
