<svg width="59" height="94" viewBox="0 0 59 94" fill="none" xmlns="http://www.w3.org/2000/svg">
<path d="M21.5842 45.5138L21.1894 55.526L21.1367 56.1245L10.0814 55.3355C9.44967 55.2811 8.86181 54.9954 8.31781 54.4785C7.77382 53.9616 7.36144 53.3676 7.08067 52.6965C6.88764 52.2067 6.76042 51.7079 6.699 51.2001C6.63758 50.6922 6.67268 50.1027 6.80429 49.4316C6.9359 48.7605 7.04119 48.2617 7.12016 47.9352C7.19912 47.6088 7.38776 47.0283 7.68608 46.194C7.9844 45.3596 8.15111 44.879 8.1862 44.752C9.55496 44.9697 14.021 45.2236 21.5842 45.5138ZM11.3975 29.5706L16.1355 39.882L12.2661 37.3789C11.1606 38.6849 10.1823 39.9953 9.33122 41.3103C8.48013 42.6254 7.84402 43.759 7.42286 44.7112C7.00171 45.6635 6.65513 46.5205 6.38313 47.2823C6.11114 48.0441 5.94882 48.6154 5.89617 48.9963L5.79088 49.5677L0.789666 39.8548C0.491348 39.3832 0.333414 38.8753 0.315866 38.3312C0.298318 37.787 0.350963 37.3608 0.4738 37.0525L0.684377 36.5627C1.29856 35.42 2.29881 33.7151 3.68511 31.4478L0 29.108L11.3975 29.5706Z" fill="#16A34A"/>
<path d="M29.5774 4.7854C28.7526 5.92809 26.4275 9.8731 22.602 16.6204L14.2579 11.5327L13.7577 11.2062L19.6802 1.52057C20.0312 0.958289 20.5576 0.550185 21.2596 0.296253C21.9615 0.042322 22.6634 -0.0483679 23.3653 0.0241839C23.7865 0.0604599 24.212 0.169288 24.642 0.350667C25.0719 0.532047 25.4404 0.722496 25.7475 0.922013C26.0546 1.12153 26.4187 1.42081 26.8399 1.81984C27.261 2.21888 27.5769 2.53176 27.7875 2.75848C27.998 2.98521 28.3139 3.34343 28.7351 3.83316C29.1562 4.32288 29.437 4.6403 29.5774 4.7854ZM43.0543 6.98916L46.7921 4.73099L41.0012 14.8792L29.9722 14.335L33.9469 11.9952C33.3502 10.381 32.6922 8.87551 31.9727 7.47889C31.2532 6.08226 30.5908 4.96224 29.9854 4.11883C29.38 3.27541 28.814 2.5499 28.2876 1.94227C27.7611 1.33465 27.3488 0.912944 27.0504 0.677151L26.603 0.32346L37.2635 0.350667C37.8075 0.296253 38.3163 0.391478 38.7901 0.63634C39.264 0.881203 39.6061 1.13967 39.8167 1.41174L40.1063 1.81984C40.7906 2.92626 41.7733 4.64936 43.0543 6.98916Z" fill="#16A34A"/>
<path d="M56.4787 42.2524L51.5301 52.0197C51.3195 52.5457 50.9993 52.9674 50.5693 53.2848C50.1394 53.6022 49.7577 53.7881 49.4243 53.8425L48.9505 53.9514C47.7046 54.0783 45.7831 54.1872 43.186 54.2779L43.3965 58.7398L37.3424 48.7549L42.8964 38.9059L43.0807 43.6127C46.0639 43.9029 48.5469 43.9483 50.5299 43.7488C52.5128 43.5493 54.0044 43.25 55.0046 42.8509L56.4787 42.2524ZM53.0568 25.4657L58.6371 35.3418C58.953 36.0129 59.0626 36.7022 58.9661 37.4096C58.8696 38.1169 58.6283 38.788 58.2423 39.4229C58.0141 39.7856 57.7246 40.1212 57.3736 40.4295C57.0227 40.7379 56.6892 40.9918 56.3734 41.1913C56.0575 41.3908 55.632 41.5904 55.0968 41.7899C54.5615 41.9894 54.1492 42.1345 53.8596 42.2252C53.5701 42.3159 53.1182 42.4428 52.504 42.6061C51.8898 42.7693 51.4862 42.8781 51.2932 42.9326C50.6966 41.6266 48.3714 37.6726 44.3178 31.0703L52.5567 25.765L53.0568 25.4657Z" fill="#16A34A"/>
<path d="M22.7278 37.7989V35.2132L30.44 24.212H34.2843V34.9311H36.3597V37.7989H34.2843V41.1369H30.9824V37.7989H22.7278ZM31.1947 27.738L26.3598 34.9311H31.1947V27.738Z" fill="#16A34A"/>
<path d="M6.92945 92.2605H12.6841V94H4.78324V77.6158H6.92945V92.2605Z" fill="#16A34A"/>
<path d="M20.0812 77.6158C21.8737 77.6158 23.4224 77.9527 24.7274 78.6266C26.0482 79.2847 27.0544 80.2328 27.7463 81.4709C28.4538 82.7089 28.8076 84.1663 28.8076 85.8431C28.8076 87.52 28.4538 88.9774 27.7463 90.2154C27.0544 91.4378 26.0482 92.378 24.7274 93.0362C23.4224 93.6787 21.8737 94 20.0812 94H14.9634V77.6158H20.0812ZM20.0812 92.237C22.2039 92.237 23.8233 91.6807 24.9397 90.568C26.056 89.4397 26.6142 87.8647 26.6142 85.8431C26.6142 83.8059 26.0482 82.2153 24.9161 81.0713C23.7998 79.9273 22.1881 79.3553 20.0812 79.3553H17.1096V92.237H20.0812Z" fill="#16A34A"/>
<path d="M42.6289 82.4111C42.6289 83.7745 42.1572 84.9107 41.2139 85.8196C40.2862 86.7129 38.8632 87.1595 36.945 87.1595H33.7847V94H31.6385V77.6158H36.945C38.8004 77.6158 40.2076 78.0624 41.1667 78.9557C42.1415 79.8489 42.6289 81.0007 42.6289 82.4111ZM36.945 85.3965C38.14 85.3965 39.0205 85.1379 39.5865 84.6208C40.1525 84.1036 40.4356 83.3671 40.4356 82.4111C40.4356 80.3896 39.272 79.3788 36.945 79.3788H33.7847V85.3965H36.945Z" fill="#16A34A"/>
<path d="M47.4426 79.3553V84.8324H53.4331V86.5954H47.4426V92.237H54.1407V94H45.2964V77.5923H54.1407V79.3553H47.4426Z" fill="#16A34A"/>
</svg>
