<svg width="2150" height="446" viewBox="0 0 2150 446" fill="none" xmlns="http://www.w3.org/2000/svg">
<path fill-rule="evenodd" clip-rule="evenodd" d="M226.495 1.07066C239.657 3.53142 255.718 10.3923 263.606 16.923C265.485 18.4798 268.365 21.6025 270.004 23.862C274.1 29.5087 299.357 84.877 299.849 89.2854C300.362 93.9025 298.945 97.9226 295.713 101.01C292.003 104.554 252.341 123.018 247.45 123.479C243.157 123.882 237.409 121.313 234.965 117.896C234.147 116.753 227.818 103.468 220.901 88.3739C213.984 73.2801 207.97 60.2927 207.537 59.5134C206.908 58.3799 202.881 64.7643 187.45 91.3661C176.836 109.665 168.046 125.1 167.918 125.666C167.79 126.232 172.768 129.674 178.98 133.315C193.896 142.057 194.858 142.906 194.858 147.336C194.858 151.202 192.835 154.164 189.699 154.891C188.694 155.124 179.182 156.431 168.561 157.797C157.94 159.163 140.56 161.409 129.939 162.789C107.412 165.714 104.451 165.827 102.096 163.843C100.225 162.268 69.1285 85.1938 69.1285 82.1326C69.1285 78.9359 71.4516 75.6601 74.4231 74.668C77.9353 73.4946 79.8902 74.3221 94.5981 83.2062L104.866 89.4084L109.704 80.9908C134.863 37.2153 139.377 30.7636 152.156 20.3176C160.939 13.1391 175.695 5.67699 187.051 2.67153C197.516 -0.098592 216.187 -0.856196 226.495 1.07066ZM57.5088 211.053C61.7203 212.856 97.7545 238.934 99.4054 241.372C102.074 245.315 102.528 250.767 100.555 255.193C99.6568 257.207 91.1089 270.2 81.56 284.065C72.0112 297.931 64.1979 309.438 64.1979 309.638C64.1979 309.837 81.763 310 103.231 310H142.265V294.989C142.265 275.918 142.922 274.241 150.396 274.241C152.672 274.241 154.017 274.83 155.613 276.527C156.796 277.785 168.883 293.381 182.474 311.184C204.338 339.827 207.183 343.898 207.176 346.528C207.171 349.148 204.232 353.365 182.506 381.935C168.942 399.773 156.736 415.398 155.383 416.655C151.964 419.832 147.895 419.778 144.667 416.511L142.265 414.08V383.335L111.244 382.941C87.7413 382.643 78.8277 382.24 74.4699 381.281C41.4583 374.019 15.1949 350.611 4.5613 318.972C-1.46547 301.039 -1.52547 280.689 4.4142 268.835C7.5944 262.488 40.7926 214.971 43.5291 212.85C46.5786 210.485 53.967 209.535 57.5088 211.053Z" fill="#85BA4F"/>
<path fill-rule="evenodd" clip-rule="evenodd" d="M253.202 11.47C257.94 13.001 264.877 18.1969 268.894 23.2249C273.531 29.0271 299.234 84.4544 299.849 89.978C300.363 94.5877 298.943 98.6094 295.712 101.696C292.003 105.239 252.341 123.703 247.45 124.164C243.156 124.568 237.406 121.996 234.967 118.582C232.942 115.745 207.184 59.4743 207.184 57.8851C207.184 56.5595 228.516 19.4593 230.651 17.0718C231.323 16.32 233.755 14.6684 236.057 13.401C240.811 10.7822 248.42 9.92483 253.202 11.47ZM57.5085 211.738C61.7841 213.57 97.7558 239.622 99.4363 242.104C102.221 246.217 102.536 252.09 100.215 256.63C99.1618 258.689 90.3879 271.88 80.7175 285.945L63.1343 311.517H41.2164C16.4962 311.517 13.3801 311.015 7.73877 306.128C5.87749 304.516 3.39742 301.253 2.22723 298.877C-1.37289 291.565 -0.455001 279.238 4.41392 269.52C7.59412 263.173 40.7923 215.656 43.5288 213.535C46.5783 211.17 53.9668 210.22 57.5085 211.738Z" fill="#719F4D"/>
<path fill-rule="evenodd" clip-rule="evenodd" d="M256.012 13.0528C261.229 15.1942 265.289 18.4874 269.456 23.9586C272.303 27.6976 280.077 43.8584 297.17 81.5748C301.236 90.5462 300.78 96.8499 295.713 101.701C292.558 104.721 252.684 123.539 248.06 124.189C244.092 124.747 238.244 122.52 235.726 119.492C234.095 117.53 227.734 104.325 219.062 84.9012C217.836 82.1569 214.663 75.2711 212.009 69.5986C209.355 63.927 207.184 58.8275 207.184 58.267C207.184 56.7593 228.406 20.435 230.917 17.6433C236.369 11.5833 247.481 9.55083 256.012 13.0528ZM58.0348 212.037C59.3907 212.682 65.6977 216.897 72.0499 221.405C78.4021 225.914 86.7462 231.812 90.5929 234.512C98.2057 239.856 100.867 243.143 101.664 248.194C102.376 252.699 101.093 256.065 95.5612 264.204C92.9513 268.043 88.2714 274.926 85.1603 279.5C82.0491 284.074 78.3717 289.374 76.9871 291.276C75.6024 293.18 72.0664 298.323 69.1286 302.707L63.7872 310.677L40.8732 310.681C25.1226 310.684 16.9017 310.366 14.577 309.663C12.5127 309.04 9.54124 307.015 6.95106 304.466C1.59977 299.2 -0.307535 293.483 0.309605 284.555C1.05905 273.707 1.59566 272.74 29.2733 232.413C35.6008 223.193 42.0155 214.693 43.5292 213.526C46.8671 210.948 54.1685 210.199 58.0348 212.037Z" fill="#669933"/>
<path fill-rule="evenodd" clip-rule="evenodd" d="M256.012 12.3673C265.257 16.162 270.569 22.7634 278.701 40.5592C281.94 47.6471 285.663 55.7853 286.975 58.6435C289.768 64.731 293.27 72.4077 296.84 80.2656C298.243 83.3526 299.582 87.0741 299.817 88.5352C300.877 95.1424 297.281 101.453 290.714 104.512C288.839 105.386 278.804 110.064 268.415 114.909C255.608 120.88 248.595 123.712 246.638 123.699C243.22 123.678 237.778 121.309 235.693 118.936C234.479 117.553 230.128 108.459 218.684 83.3842C218.267 82.4694 215.508 76.5208 212.555 70.1648C209.601 63.8079 207.184 58.1471 207.184 57.5849C207.184 56.0755 228.402 19.7529 230.917 16.9579C236.369 10.8979 247.48 8.86539 256.012 12.3673ZM58.0347 211.342C59.3906 211.981 65.9441 216.384 72.5987 221.126C79.2525 225.869 87.595 231.768 91.1376 234.236C98.0305 239.038 100.741 242.354 101.612 247.051C102.69 252.867 101.608 254.948 85.0114 278.982C72.3522 297.312 69.5936 301.328 66.7108 305.624L63.787 309.98L40.8731 309.99C25.106 309.997 16.904 309.682 14.5768 308.978C12.5126 308.354 9.54109 306.329 6.95091 303.78C1.57168 298.487 -0.340561 292.727 0.333281 283.846C1.12874 273.346 3.31709 269.203 23.0072 240.902C26.4537 235.949 31.8617 228.092 35.0255 223.44C42.2265 212.855 44.7337 210.805 50.9248 210.448C53.7205 210.287 56.5506 210.643 58.0347 211.342Z" fill="#60804C"/>
<path d="M297.56 204.88C304.28 195.52 313.28 188.44 324.56 183.64C336.08 178.84 349.28 176.44 364.16 176.44V228.28C357.92 227.8 353.72 227.56 351.56 227.56C335.48 227.56 322.88 232.12 313.76 241.24C304.64 250.12 300.08 263.56 300.08 281.56V373H243.92V179.32H297.56V204.88Z" fill="#84BA4F"/>
<path d="M493.355 330.88C503.435 330.88 512.315 329.44 519.995 326.56C527.915 323.44 535.235 318.64 541.955 312.16L571.835 344.56C553.595 365.44 526.955 375.88 491.915 375.88C470.075 375.88 450.755 371.68 433.955 363.28C417.155 354.64 404.195 342.76 395.075 327.64C385.955 312.52 381.395 295.36 381.395 276.16C381.395 257.2 385.835 240.16 394.715 225.04C403.835 209.68 416.195 197.8 431.795 189.4C447.635 180.76 465.395 176.44 485.075 176.44C503.555 176.44 520.355 180.4 535.475 188.32C550.595 196 562.595 207.28 571.475 222.16C580.595 236.8 585.155 254.2 585.155 274.36L441.875 302.08C445.955 311.68 452.315 318.88 460.955 323.68C469.835 328.48 480.635 330.88 493.355 330.88ZM485.075 218.92C470.915 218.92 459.395 223.48 450.515 232.6C441.635 241.72 436.955 254.32 436.475 270.4L530.795 252.04C528.155 241.96 522.755 233.92 514.595 227.92C506.435 221.92 496.595 218.92 485.075 218.92Z" fill="#84BA4F"/>
<path d="M716.505 375.88C695.865 375.88 677.264 371.68 660.704 363.28C644.384 354.64 631.544 342.76 622.185 327.64C613.065 312.52 608.505 295.36 608.505 276.16C608.505 256.96 613.065 239.8 622.185 224.68C631.544 209.56 644.384 197.8 660.704 189.4C677.264 180.76 695.865 176.44 716.505 176.44C736.905 176.44 754.664 180.76 769.784 189.4C785.144 197.8 796.304 209.92 803.264 225.76L759.705 249.16C749.625 231.4 735.105 222.52 716.145 222.52C701.505 222.52 689.384 227.32 679.784 236.92C670.185 246.52 665.385 259.6 665.385 276.16C665.385 292.72 670.185 305.8 679.784 315.4C689.384 325 701.505 329.8 716.145 329.8C735.345 329.8 749.865 320.92 759.705 303.16L803.264 326.92C796.304 342.28 785.144 354.28 769.784 362.92C754.664 371.56 736.905 375.88 716.505 375.88Z" fill="#84BA4F"/>
<path d="M1030.72 179.32V340.6C1030.72 376.12 1021.72 402.52 1003.72 419.8C985.72 437.08 959.56 445.72 925.24 445.72C907 445.72 889.72 443.44 873.4 438.88C857.32 434.32 843.76 427.72 832.72 419.08L855.04 378.76C863.2 385.48 873.16 390.76 884.92 394.6C896.68 398.44 908.56 400.36 920.56 400.36C939.28 400.36 952.96 396.04 961.6 387.4C970.24 378.76 974.56 365.56 974.56 347.8V341.32C967.36 348.52 958.84 354.04 949 357.88C939.16 361.72 928.6 363.64 917.32 363.64C891.88 363.64 871.72 356.44 856.84 342.04C841.96 327.4 834.52 305.56 834.52 276.52V179.32H890.68V268.24C890.68 299.68 903.76 315.4 929.92 315.4C943.36 315.4 954.16 311.08 962.32 302.44C970.48 293.56 974.56 280.48 974.56 263.2V179.32H1030.72Z" fill="#84BA4F"/>
<path d="M1176.35 375.88C1155.71 375.88 1137.11 371.68 1120.55 363.28C1104.23 354.64 1091.39 342.76 1082.03 327.64C1072.91 312.52 1068.35 295.36 1068.35 276.16C1068.35 256.96 1072.91 239.8 1082.03 224.68C1091.39 209.56 1104.23 197.8 1120.55 189.4C1137.11 180.76 1155.71 176.44 1176.35 176.44C1196.75 176.44 1214.51 180.76 1229.63 189.4C1244.99 197.8 1256.15 209.92 1263.11 225.76L1219.55 249.16C1209.47 231.4 1194.95 222.52 1175.99 222.52C1161.35 222.52 1149.23 227.32 1139.63 236.92C1130.03 246.52 1125.23 259.6 1125.23 276.16C1125.23 292.72 1130.03 305.8 1139.63 315.4C1149.23 325 1161.35 329.8 1175.99 329.8C1195.19 329.8 1209.71 320.92 1219.55 303.16L1263.11 326.92C1256.15 342.28 1244.99 354.28 1229.63 362.92C1214.51 371.56 1196.75 375.88 1176.35 375.88Z" fill="#84BA4F"/>
<path d="M1363.52 375.88C1341.68 375.88 1324.64 370.12 1312.4 358.6C1300.16 346.84 1294.04 330.28 1294.04 308.92V105.88H1350.2V305.68C1350.2 313.84 1352.24 320.2 1356.32 324.76C1360.64 329.08 1366.64 331.24 1374.32 331.24C1377.2 331.24 1380.08 330.88 1382.96 330.16C1386.08 329.44 1388.48 328.6 1390.16 327.64L1392.68 371.2C1383.32 374.32 1373.6 375.88 1363.52 375.88Z" fill="#84BA4F"/>
<path d="M1514.29 330.88C1524.37 330.88 1533.25 329.44 1540.93 326.56C1548.85 323.44 1556.17 318.64 1562.89 312.16L1592.77 344.56C1574.53 365.44 1547.89 375.88 1512.85 375.88C1491.01 375.88 1471.69 371.68 1454.89 363.28C1438.09 354.64 1425.13 342.76 1416.01 327.64C1406.89 312.52 1402.33 295.36 1402.33 276.16C1402.33 257.2 1406.77 240.16 1415.65 225.04C1424.77 209.68 1437.13 197.8 1452.73 189.4C1468.57 180.76 1486.33 176.44 1506.01 176.44C1524.49 176.44 1541.29 180.4 1556.41 188.32C1571.53 196 1583.53 207.28 1592.41 222.16C1601.53 236.8 1606.09 254.2 1606.09 274.36L1462.81 302.08C1466.89 311.68 1473.25 318.88 1481.89 323.68C1490.77 328.48 1501.57 330.88 1514.29 330.88ZM1506.01 218.92C1491.85 218.92 1480.33 223.48 1471.45 232.6C1462.57 241.72 1457.89 254.32 1457.41 270.4L1551.73 252.04C1549.09 241.96 1543.69 233.92 1535.53 227.92C1527.37 221.92 1517.53 218.92 1506.01 218.92Z" fill="#84BA4F"/>
<path d="M1706.84 374.8C1689.8 374.8 1676.6 370 1667.24 360.4C1658.12 350.8 1653.56 337.48 1653.56 320.44V105.88H1679.12V318.28C1679.12 329.56 1681.76 338.2 1687.04 344.2C1692.32 349.96 1700.24 352.84 1710.8 352.84C1717.52 352.84 1723.28 351.76 1728.08 349.6L1729.88 370.84C1722.44 373.48 1714.76 374.8 1706.84 374.8Z" fill="#447A0E"/>
<path d="M1764.66 183.64H1790.22V373H1764.66V183.64ZM1777.62 142.24C1772.34 142.24 1767.9 140.44 1764.3 136.84C1760.7 133.24 1758.9 128.92 1758.9 123.88C1758.9 119.08 1760.7 114.88 1764.3 111.28C1767.9 107.68 1772.34 105.88 1777.62 105.88C1782.9 105.88 1787.34 107.68 1790.94 111.28C1794.54 114.64 1796.34 118.72 1796.34 123.52C1796.34 128.8 1794.54 133.24 1790.94 136.84C1787.34 140.44 1782.9 142.24 1777.62 142.24Z" fill="#447A0E"/>
<path d="M1919.66 125.68C1908.62 125.68 1900.22 128.68 1894.46 134.68C1888.94 140.68 1886.18 149.56 1886.18 161.32V183.64H1944.5V205.24H1886.9V373H1861.34V160.24C1861.34 142.96 1866.26 129.28 1876.1 119.2C1886.18 109.12 1900.34 104.08 1918.58 104.08C1925.78 104.08 1932.74 105.16 1939.46 107.32C1946.18 109.24 1951.82 112.12 1956.38 115.96L1947.74 135.04C1940.3 128.8 1930.94 125.68 1919.66 125.68Z" fill="#447A0E"/>
<path d="M2149.75 183.64V349.96C2149.75 382.12 2142.43 405.88 2127.79 421.24C2113.15 436.84 2091.07 444.64 2061.55 444.64C2044.99 444.64 2029.27 442 2014.39 436.72C1999.75 431.68 1987.87 424.6 1978.75 415.48L1991.71 396.04C1999.87 404.2 2009.95 410.56 2021.95 415.12C2033.95 419.68 2046.79 421.96 2060.47 421.96C2082.31 421.96 2098.39 416.32 2108.71 405.04C2119.03 394 2124.19 376.72 2124.19 353.2V331.24C2117.47 342.28 2108.23 350.8 2096.47 356.8C2084.95 362.8 2071.87 365.8 2057.23 365.8C2032.51 365.8 2012.95 358.96 1998.55 345.28C1984.39 331.36 1977.31 311.08 1977.31 284.44V183.64H2002.87V281.92C2002.87 301.84 2007.79 316.96 2017.63 327.28C2027.47 337.6 2041.51 342.76 2059.75 342.76C2079.67 342.76 2095.39 336.76 2106.91 324.76C2118.43 312.52 2124.19 295.6 2124.19 274V183.64H2149.75Z" fill="#447A0E"/>
</svg>
