<svg width="336" height="337" viewBox="0 0 336 337" fill="none" xmlns="http://www.w3.org/2000/svg">
<path d="M203.441 29.1696C197.302 24.0874 184.804 18.7482 174.561 16.8332C166.539 15.3337 152.009 15.9233 143.865 18.079C135.028 20.4179 123.544 26.225 116.71 31.8114C106.765 39.9405 103.251 44.9613 83.6725 79.0278L79.9078 85.5785L71.9172 80.7519C60.4714 73.8381 58.9501 73.1942 56.2169 74.1074C53.9044 74.8794 52.0966 77.4287 52.0966 79.9164C52.0966 82.2986 76.2966 142.279 77.7521 143.504C79.5849 145.048 81.889 144.961 99.4196 142.684C107.685 141.61 121.211 139.862 129.476 138.799C137.742 137.736 145.144 136.719 145.925 136.538C148.366 135.972 149.94 133.667 149.94 130.658C149.94 127.21 149.192 126.55 137.584 119.747C132.75 116.913 128.876 114.235 128.975 113.795C129.075 113.354 135.915 101.342 144.176 87.1019C156.184 66.4002 159.318 61.4318 159.808 62.3139C160.145 62.9203 164.824 73.0272 170.207 84.7734C175.59 96.5196 180.515 106.858 181.152 107.748C183.054 110.407 187.527 112.406 190.868 112.093C194.674 111.734 225.54 97.3648 228.427 94.6072C230.942 92.2043 232.045 89.0758 231.645 85.4827C231.263 82.0521 211.607 38.9639 208.42 34.5696C207.144 32.8113 204.903 30.3811 203.441 29.1696Z" fill="#85BA4F"/>
<path d="M215.146 47.832C208.817 33.9832 204.683 28.8459 197.488 25.8929C190.849 23.1676 182.202 24.7493 177.959 29.4653C176.002 31.6404 159.49 59.907 159.49 61.0816C159.49 61.5191 161.371 65.9244 163.67 70.8714C165.968 75.8177 168.115 80.4469 168.44 81.1588C177.345 100.672 180.731 107.749 181.676 108.825C183.298 110.673 187.533 112.516 190.193 112.532C191.716 112.542 197.174 110.339 207.14 105.692C215.225 101.921 223.035 98.2811 224.494 97.6009C229.604 95.22 232.402 90.3092 231.577 85.1674C231.395 84.0303 230.353 81.1343 229.261 78.7319C226.483 72.6168 223.758 66.6428 221.584 61.9054C220.563 59.6811 217.666 53.3479 215.146 47.832Z" fill="#60804C"/>
<path d="M92.4986 188.597C91.2281 186.721 63.4976 166.662 60.2566 165.274C57.531 164.107 51.8452 164.837 49.4983 166.656C47.3925 168.288 21.8444 204.839 19.397 209.721C14.8261 218.839 14.8722 234.493 19.5102 248.287C27.6934 272.624 47.9047 290.63 73.3092 296.216C76.6628 296.954 83.5224 297.263 101.609 297.493L125.279 297.793V241.386H95.443C78.9217 241.386 65.4043 241.26 65.4043 241.107C65.4043 240.953 71.4171 232.102 78.7655 221.436C86.1139 210.771 92.6921 200.777 93.3833 199.228C94.9017 195.823 94.5526 191.629 92.4986 188.597Z" fill="#85BA4F"/>
<path d="M130.049 213.94H132.735C132.428 213.898 132.099 213.879 131.739 213.879C131.116 213.879 130.555 213.894 130.049 213.94Z" fill="#85BA4F"/>
<path d="M109.385 241.383L190.319 241.383L191.097 297.471L151.409 298.171L109.385 297.593V241.383Z" fill="#84BA4F"/>
<path fill-rule="evenodd" clip-rule="evenodd" d="M61.0059 164.656C62.061 165.153 67.161 168.58 72.3397 172.27C77.5177 175.961 84.01 180.552 86.7668 182.472C92.131 186.209 94.2407 188.789 94.9179 192.445C95.7569 196.971 94.9153 198.59 81.9994 217.294C72.1479 231.558 70.0011 234.684 67.7577 238.027L65.4824 241.417L47.6505 241.425C35.3804 241.43 28.9976 241.185 27.1865 240.637C25.5801 240.152 23.2677 238.576 21.252 236.592C17.0658 232.473 15.5777 227.991 16.1021 221.079C16.7211 212.908 18.4241 209.683 33.7472 187.659C36.4292 183.805 40.6378 177.69 43.0999 174.071C48.7038 165.833 50.6549 164.238 55.4729 163.96C57.6485 163.834 59.8509 164.111 61.0059 164.656Z" fill="#60804C"/>
<path d="M188.764 293.182L188.97 293.185V317.111L190.839 319.003C193.351 321.545 196.518 321.587 199.178 319.115C200.231 318.137 209.73 305.978 220.286 292.096C237.193 269.862 239.48 266.58 239.485 264.542C239.49 262.495 237.276 259.327 220.261 237.037C209.685 223.182 200.278 211.045 199.357 210.066C198.115 208.746 197.069 208.287 195.298 208.287C189.481 208.287 188.97 209.592 188.97 224.434V236.115H188.764V293.182Z" fill="#85BA4F"/>
</svg>
