<svg width="376" height="240" viewBox="0 0 376 240" fill="none" xmlns="http://www.w3.org/2000/svg">
<g clip-path="url(#clip0_550_16350)">
<path opacity="0.1" d="M335.986 237.652C371.11 237.652 381.811 208.699 371.692 173.243C365.969 153.191 352.736 126.97 331.116 115.103C271.953 82.6301 279.926 81.071 265.28 46.5069C241.372 -9.91664 149.437 -12.0939 111.872 28.3378C82.6435 59.797 70.1355 104.146 30.3136 136.822C-17.7538 176.264 -4.6434 238.223 41.5284 238.223L335.986 237.652Z" fill="#65A30D"/>
<path d="M375.319 203.454H4.84937L26.1704 157.586H353.998L375.319 203.454Z" fill="#292A2E"/>
<path d="M375.319 203.454H4.84937L26.1704 157.586H353.998L375.319 203.454Z" fill="white"/>
<path d="M375.319 203.86H4.85132C4.78317 203.86 4.71611 203.843 4.65636 203.81C4.59661 203.777 4.54612 203.73 4.50958 203.673C4.47303 203.615 4.45162 203.549 4.44733 203.481C4.44305 203.413 4.45602 203.345 4.48505 203.284L25.8045 157.416C25.8371 157.346 25.8888 157.288 25.9536 157.247C26.0184 157.205 26.0936 157.184 26.1703 157.184H353.997C354.074 157.184 354.149 157.205 354.214 157.246C354.279 157.288 354.331 157.346 354.363 157.416L375.686 203.284C375.715 203.345 375.728 203.413 375.723 203.481C375.719 203.549 375.698 203.614 375.662 203.672C375.625 203.729 375.575 203.776 375.516 203.809C375.456 203.842 375.39 203.86 375.322 203.86H375.319ZM5.48561 203.052H374.682L353.741 157.992H26.4275L5.48561 203.052Z" fill="#292A2E"/>
<path d="M215.703 142.234H179.826V169.341H215.703V142.234Z" fill="#292A2E"/>
<path opacity="0.64" d="M215.704 142.234H179.826V156.715H215.704V142.234Z" fill="#0C0C0C"/>
<path d="M273.964 34.6875H121.566C119.169 34.6875 117.225 36.6295 117.225 39.0251V145.321C117.225 147.717 119.169 149.659 121.566 149.659H273.964C276.361 149.659 278.304 147.717 278.304 145.321V39.0251C278.304 36.6295 276.361 34.6875 273.964 34.6875Z" fill="#292A2E"/>
<path d="M271.821 39.6133H123.708C122.724 39.6133 121.927 40.4105 121.927 41.3938V129.551C121.927 130.535 122.724 131.332 123.708 131.332H271.821C272.805 131.332 273.603 130.535 273.603 129.551V41.3938C273.603 40.4105 272.805 39.6133 271.821 39.6133Z" fill="white"/>
<path d="M223.167 167.113H172.362C171.062 167.113 170.008 168.167 170.008 169.466C170.008 170.766 171.062 171.819 172.362 171.819H223.167C224.468 171.819 225.522 170.766 225.522 169.466C225.522 168.167 224.468 167.113 223.167 167.113Z" fill="#292A2E"/>
<path d="M19.7052 238.339C17.263 238.338 14.857 237.748 12.692 236.619C10.527 235.489 8.66706 233.853 7.27056 231.851C5.87405 229.849 4.98228 227.539 4.67114 225.118C4.36 222.697 4.6387 220.237 5.48353 217.946C6.34098 215.621 28.3347 158.881 32.1652 149.02L58.6325 164.413C56.4802 169.958 48.6803 190.976 42.4141 207.907L52.8244 206.776L56.099 234.476L21.3454 238.25C20.8006 238.309 20.2531 238.339 19.7052 238.339Z" fill="#4D7C0F"/>
<path d="M106.277 137.222C106.184 137.209 103.637 146.789 83.7594 145.298C69.9981 144.268 66.6427 134.906 66.3274 134.906C67.8111 134.591 70.2205 134.264 70.8794 133.913C73.0463 132.749 74.6246 131.332 75.4194 128.293C76.0407 125.915 76.3573 116.763 76.3573 112.172L97.5328 116.927C97.2377 122.107 95.1719 134.115 102.412 136.24C103.617 136.589 104.915 136.912 106.277 137.222Z" fill="#FED7AA"/>
<path d="M96.7998 127.108C88.4521 127.766 77.7285 124.244 75.6914 113.113L73.8536 103.069C71.8165 91.9383 76.0152 81.8458 86.5019 79.929C96.9882 78.0123 106.478 85.6028 108.515 96.7337L109.328 101.18C110.11 105.451 111.694 125.934 96.7998 127.108Z" fill="#FED7AA"/>
<path d="M57.2849 136.443C49.7833 137 42.1342 137.811 36.6143 142.919C29.9666 149.07 28.7619 156.633 33.003 177.446C36.6519 195.354 35.2043 203.18 37.6456 236.226C37.7176 237.199 37.8716 239.213 37.8716 239.213L118.119 239.08C118.119 239.08 125.638 195.236 129.789 175.014C132.946 159.64 141.239 140.977 106.276 137.216C106.185 137.206 78.1451 134.897 57.2849 136.443Z" fill="#4D7C0F"/>
<path d="M37.8727 239.418C37.8204 239.418 37.7702 239.398 37.7325 239.362C37.6948 239.326 37.6726 239.276 37.6706 239.224L35.1557 173.984C35.1546 173.957 35.1589 173.931 35.1681 173.906C35.1773 173.881 35.1913 173.858 35.2094 173.839C35.2275 173.819 35.2492 173.803 35.2733 173.792C35.2975 173.781 35.3236 173.775 35.3501 173.774C35.3769 173.772 35.4039 173.775 35.4293 173.784C35.4547 173.793 35.4779 173.807 35.4977 173.825C35.5174 173.844 35.5331 173.866 35.5438 173.89C35.5545 173.915 35.56 173.942 35.5599 173.968L38.0749 239.209C38.0768 239.262 38.0575 239.314 38.021 239.353C37.9845 239.393 37.934 239.416 37.8804 239.418L37.8727 239.418Z" fill="#0C0C0C"/>
<path d="M166.639 159.737L172.277 147.098C172.401 146.82 172.581 146.571 172.807 146.367C173.032 146.163 173.297 146.008 173.586 145.912C173.875 145.816 174.18 145.781 174.483 145.809C174.786 145.838 175.08 145.929 175.345 146.077C175.828 146.366 176.186 146.823 176.35 147.361C176.514 147.898 176.472 148.477 176.233 148.986L175.024 151.696L182.74 144.917C183.584 144.15 185.113 143.746 185.913 144.749C186.247 145.116 186.446 145.584 186.478 146.078C186.511 146.572 186.375 147.062 186.093 147.469C186.103 147.475 186.111 147.482 186.119 147.49C186.124 147.497 186.128 147.504 186.132 147.512L187.434 146.327C187.676 146.107 187.963 145.944 188.275 145.85C188.587 145.756 188.917 145.732 189.239 145.781C189.562 145.83 189.869 145.951 190.14 146.133C190.41 146.316 190.636 146.557 190.801 146.838C191.052 147.286 191.142 147.807 191.055 148.313C190.968 148.819 190.71 149.28 190.324 149.619L189.77 150.124C189.777 150.146 189.78 150.17 189.779 150.194C190.232 149.94 190.761 149.856 191.271 149.956C191.782 150.056 192.239 150.335 192.563 150.741C192.904 151.197 193.061 151.764 193.002 152.33C192.943 152.895 192.672 153.418 192.245 153.793L190.868 155.046C190.9 155.042 190.933 155.046 190.963 155.057C190.993 155.068 191.02 155.086 191.042 155.109C191.067 155.139 191.082 155.174 191.087 155.212C191.554 155.098 192.045 155.141 192.485 155.333C192.926 155.525 193.291 155.857 193.524 156.277C193.76 156.723 193.839 157.235 193.747 157.732C193.656 158.228 193.399 158.679 193.019 159.011L181.402 169.581C179.777 171.06 177.747 172.019 175.573 172.338C173.398 172.656 171.178 172.317 169.197 171.366C167.489 170.546 166.168 169.093 165.515 167.315C164.861 165.537 164.928 163.575 165.7 161.845L166.639 159.737Z" fill="#FED7AA"/>
<g opacity="0.2">
<path d="M178.487 154.213C178.523 154.252 178.573 154.276 178.626 154.278C178.679 154.281 178.731 154.263 178.77 154.228L186.1 147.772C186.14 147.736 186.165 147.686 186.168 147.633C186.171 147.579 186.153 147.527 186.118 147.486C186.082 147.446 186.032 147.422 185.979 147.418C185.925 147.415 185.873 147.433 185.832 147.468L178.503 153.924C178.483 153.942 178.467 153.963 178.455 153.987C178.443 154.011 178.436 154.037 178.435 154.063C178.433 154.09 178.437 154.116 178.445 154.141C178.454 154.167 178.467 154.19 178.485 154.21L178.487 154.213Z" fill="#0C0C0C"/>
</g>
<g opacity="0.2">
<path d="M181.247 157.526C181.283 157.565 181.333 157.588 181.386 157.591C181.439 157.593 181.49 157.575 181.53 157.54L189.71 150.336C189.73 150.318 189.746 150.297 189.758 150.273C189.77 150.249 189.776 150.223 189.778 150.197C189.78 150.17 189.776 150.144 189.768 150.118C189.759 150.093 189.745 150.07 189.728 150.05C189.692 150.012 189.642 149.988 189.589 149.985C189.536 149.981 189.483 149.998 189.442 150.032L181.263 157.237C181.243 157.255 181.226 157.276 181.215 157.3C181.203 157.324 181.196 157.35 181.194 157.376C181.193 157.403 181.196 157.429 181.205 157.454C181.214 157.479 181.227 157.502 181.245 157.522L181.247 157.526Z" fill="#0C0C0C"/>
</g>
<g opacity="0.2">
<path d="M184.216 161.125C184.252 161.164 184.301 161.188 184.354 161.191C184.407 161.193 184.459 161.175 184.499 161.14L191.024 155.393C191.064 155.357 191.088 155.307 191.092 155.254C191.095 155.2 191.077 155.148 191.041 155.107C191.006 155.067 190.956 155.043 190.902 155.039C190.849 155.036 190.796 155.054 190.756 155.09L184.231 160.837C184.211 160.854 184.195 160.876 184.183 160.9C184.171 160.923 184.165 160.949 184.163 160.976C184.161 161.002 184.165 161.029 184.174 161.054C184.182 161.079 184.196 161.102 184.213 161.122L184.216 161.125Z" fill="#0C0C0C"/>
</g>
<path d="M104.539 115.699C103.101 108.48 102.442 103.664 102.517 98.5829C104.542 95.0331 104.01 90.9593 103.549 89.1985C104.13 89.5289 104.737 89.8097 105.364 90.0381C105.656 90.1395 105.971 90.1556 106.271 90.0844C106.572 90.0132 106.846 89.8578 107.061 89.6363C107.276 89.4149 107.424 89.1366 107.486 88.8343C107.549 88.5319 107.524 88.218 107.414 87.9295C105.847 83.8747 101.819 75.9953 93.5046 73.355C91.4117 72.5409 86.0661 71.5127 78.9724 72.4851C72.9375 73.3126 59.2741 79.0344 57.1489 95.772V95.7813C57.0785 96.3365 54.4374 110.546 51.5898 117.945C47.7618 127.892 42.3871 130.983 42.5233 142.459C42.6987 157.221 69.8518 159.186 86.2327 158.082C102.614 156.978 111.754 151.595 111.873 140.957C112.002 129.036 107.414 130.143 104.539 115.699Z" fill="#0A0A0A"/>
<path d="M104.543 110.58C101.357 111.162 98.1496 108.227 97.567 105.042C96.9845 101.857 98.4366 98.582 102.517 98.582L104.543 110.58Z" fill="#FED7AA"/>
<path d="M138.822 236.045C135.616 236.044 132.493 235.029 129.901 233.144C127.309 231.26 125.381 228.603 124.394 225.555L103.331 160.451L132.18 151.129L143.257 185.372L162.4 154.947L188.069 171.077L151.652 228.958C150.287 231.127 148.395 232.915 146.151 234.154C143.907 235.393 141.385 236.044 138.822 236.045Z" fill="#4D7C0F"/>
<path d="M121.826 218.068C121.813 218.068 121.801 218.067 121.788 218.065C121.736 218.055 121.689 218.025 121.659 217.981C121.628 217.936 121.617 217.882 121.627 217.829L128.787 178.986C128.791 178.96 128.801 178.935 128.816 178.913C128.83 178.89 128.849 178.871 128.871 178.856C128.893 178.841 128.917 178.83 128.943 178.825C128.969 178.819 128.996 178.819 129.022 178.824C129.048 178.828 129.073 178.838 129.095 178.853C129.118 178.867 129.137 178.886 129.152 178.908C129.167 178.93 129.178 178.954 129.183 178.98C129.189 179.006 129.189 179.033 129.184 179.059L122.024 217.904C122.015 217.95 121.991 217.992 121.954 218.022C121.918 218.052 121.873 218.068 121.826 218.068Z" fill="#0C0C0C"/>
<path d="M145.834 194.539C145.789 194.539 145.745 194.524 145.71 194.497C145.675 194.469 145.649 194.431 145.638 194.388L143.253 185.206C143.239 185.154 143.247 185.099 143.274 185.053C143.301 185.007 143.346 184.973 143.398 184.96C143.45 184.946 143.505 184.954 143.551 184.981C143.597 185.008 143.631 185.053 143.644 185.104L146.029 194.286C146.037 194.316 146.038 194.347 146.032 194.378C146.025 194.408 146.012 194.436 145.993 194.461C145.974 194.485 145.95 194.505 145.922 194.518C145.895 194.532 145.864 194.539 145.833 194.539H145.834Z" fill="#0C0C0C"/>
<path d="M308.101 193.001H229.064C228.569 193.001 228.08 192.896 227.629 192.693C227.178 192.49 226.775 192.194 226.447 191.825C226.119 191.455 225.873 191.02 225.725 190.548C225.577 190.076 225.531 189.579 225.59 189.088L227.705 171.451C227.807 170.602 228.216 169.82 228.857 169.252C229.497 168.684 230.323 168.371 231.179 168.371H308.101C309.028 168.371 309.918 168.74 310.574 169.395C311.23 170.051 311.599 170.94 311.599 171.868V189.505C311.599 190.432 311.23 191.321 310.574 191.976C309.918 192.632 309.028 193 308.101 193.001Z" fill="#292A2E"/>
<path d="M250.444 193.165L253.824 180.202C253.898 179.917 253.912 179.62 253.866 179.329C253.819 179.039 253.712 178.761 253.551 178.514C253.391 178.267 253.181 178.056 252.935 177.894C252.689 177.733 252.411 177.624 252.121 177.576C249.716 177.122 249.423 180.433 248.967 182.02L247.232 172.234C246.967 169.594 243.416 169.507 243.153 172.137C243.134 172.134 243.115 172.138 243.098 172.147C243.182 167.339 237.856 167.711 238.768 171.925C238.748 171.937 238.732 171.954 238.718 171.972C237.829 169.641 234.183 170.732 234.675 173.204L234.958 174.982C234.941 174.964 234.921 174.95 234.898 174.94C234.876 174.929 234.851 174.924 234.827 174.923C234.802 174.923 234.777 174.927 234.754 174.936C234.731 174.945 234.71 174.959 234.692 174.976C233.469 173.245 230.471 174.515 230.933 176.681L233.325 191.691C234.693 201.399 248.988 204.657 250.444 193.165Z" fill="#FED7AA"/>
<g opacity="0.2">
<path d="M244.824 181.831C244.299 181.782 243.175 172.648 242.965 172.362C242.956 172.311 242.968 172.259 242.997 172.216C243.027 172.174 243.073 172.145 243.124 172.136C243.175 172.127 243.228 172.139 243.27 172.168C243.313 172.198 243.342 172.244 243.351 172.295L244.986 181.604C244.991 181.629 244.99 181.656 244.984 181.681C244.979 181.706 244.968 181.73 244.953 181.751C244.938 181.772 244.919 181.79 244.897 181.804C244.875 181.818 244.85 181.827 244.824 181.831Z" fill="#0C0C0C"/>
</g>
<g opacity="0.2">
<path d="M240.735 182.668C240.684 182.676 240.632 182.663 240.59 182.633C240.549 182.603 240.521 182.557 240.513 182.507L238.684 172.117C238.675 172.066 238.687 172.014 238.717 171.971C238.746 171.929 238.792 171.9 238.843 171.891C239.379 171.842 240.684 182.221 240.898 182.439C240.903 182.465 240.902 182.491 240.897 182.517C240.891 182.543 240.88 182.567 240.865 182.588C240.85 182.61 240.83 182.628 240.808 182.641C240.785 182.655 240.76 182.664 240.735 182.668Z" fill="#0C0C0C"/>
</g>
<g opacity="0.2">
<path d="M236.312 183.598C236.261 183.606 236.209 183.593 236.168 183.563C236.126 183.532 236.098 183.487 236.09 183.436L234.631 175.149C234.624 175.099 234.637 175.048 234.667 175.006C234.697 174.965 234.741 174.937 234.791 174.929C234.841 174.92 234.893 174.931 234.935 174.96C234.977 174.988 235.006 175.032 235.017 175.082L236.476 183.369C236.48 183.394 236.48 183.421 236.474 183.447C236.468 183.472 236.458 183.496 236.442 183.518C236.427 183.539 236.408 183.557 236.385 183.571C236.363 183.585 236.338 183.594 236.312 183.598Z" fill="#0C0C0C"/>
</g>
<path d="M130.296 239.414H36.3413L30.3703 193.565C30.2505 192.645 30.3284 191.71 30.5988 190.822C30.8692 189.935 31.326 189.115 31.9385 188.418C32.5511 187.721 33.3054 187.162 34.151 186.78C34.9967 186.397 35.9143 186.199 36.8426 186.199H117.627C119.213 186.199 120.745 186.775 121.936 187.82C123.128 188.866 123.898 190.309 124.104 191.88L130.296 239.414Z" fill="white"/>
<path d="M124.593 191.82C124.369 190.13 123.54 188.579 122.259 187.454C120.978 186.329 119.332 185.707 117.627 185.703H36.8423C35.9549 185.704 35.0757 185.873 34.251 186.2C33.9021 186.337 33.5654 186.503 33.2443 186.697C32.0674 187.398 31.1214 188.428 30.523 189.66C29.9247 190.892 29.7 192.272 29.8768 193.63L35.8438 239.414H36.8423L30.8632 193.505C30.7523 192.655 30.8241 191.791 31.0738 190.971C31.3235 190.151 31.7454 189.393 32.3112 188.749C32.8771 188.105 33.5739 187.588 34.3553 187.234C35.1366 186.881 35.9845 186.697 36.8423 186.697H117.627C119.091 186.701 120.503 187.235 121.604 188.2C122.704 189.165 123.417 190.495 123.61 191.945L129.795 239.414H130.798L124.593 191.82Z" fill="#292A2E"/>
<path d="M124.815 239.414H30.859L24.888 193.565C24.768 192.645 24.8458 191.71 25.1161 190.822C25.3865 189.934 25.8432 189.115 26.4558 188.418C27.0684 187.72 27.8228 187.162 28.6685 186.779C29.5143 186.397 30.432 186.199 31.3603 186.199H112.144C113.729 186.199 115.26 186.776 116.451 187.821C117.642 188.867 118.411 190.309 118.616 191.88L124.815 239.414Z" fill="#292A2E"/>
<path d="M119.111 191.82C118.973 190.767 118.597 189.759 118.014 188.872C117.43 187.984 116.652 187.241 115.739 186.697C115.418 186.504 115.081 186.338 114.732 186.2C113.909 185.872 113.031 185.704 112.145 185.703H31.3604C30.3612 185.703 29.3734 185.915 28.4631 186.327C27.5527 186.739 26.7407 187.34 26.0814 188.09C25.422 188.84 24.9305 189.723 24.6397 190.678C24.3489 191.634 24.2654 192.64 24.3949 193.63L30.3579 239.414H31.3604L25.3813 193.505C25.2704 192.655 25.3422 191.791 25.5919 190.971C25.8416 190.151 26.2635 189.393 26.8293 188.749C27.3952 188.105 28.0921 187.588 28.8734 187.234C29.6547 186.881 30.5026 186.697 31.3604 186.697H112.144C113.608 186.701 115.02 187.235 116.12 188.2C117.221 189.165 117.933 190.495 118.127 191.945L124.312 239.414H125.315L119.111 191.82Z" fill="#292A2E"/>
<path d="M284.293 139.221C284.386 139.209 285.415 156.267 305.243 154.78C318.97 153.752 323.865 139.197 324.179 139.197C322.699 138.883 320.207 138.426 319.55 138.075C317.388 136.915 314.309 135.707 313.613 131.512C313.211 129.093 313.892 116.724 313.682 114.277L293.016 118.977C293.31 124.144 295.371 136.122 288.149 138.242C286.949 138.594 285.653 138.917 284.293 139.221Z" fill="#FED7AA"/>
<path d="M293.598 127.037C301.919 127.679 312.601 124.15 314.613 113.052L316.427 103.039C318.439 91.9411 314.237 81.8893 303.782 79.9969C293.326 78.104 283.881 85.686 281.87 96.7834L281.067 101.216C280.817 102.743 280.673 104.285 280.633 105.832C280.499 109.919 280.31 116.135 282.331 120.7C284.243 125.012 288.283 126.627 293.598 127.037Z" fill="#FED7AA"/>
<path d="M312.259 79.4269C308.956 78.3974 305.529 77.8149 302.071 77.6948C301.736 76.3757 300.99 75.3515 299.892 74.9216C298.064 74.2077 295.83 75.3575 294.344 77.5728C293.518 76.3074 292.399 75.1672 290.915 74.7042C286.822 73.4303 286.619 79.3065 286.619 79.3065C286.619 79.3065 280.129 72.9063 279.926 81.0693C279.681 90.9457 281.497 93.8422 282.822 94.5734C285.438 96.0174 287.387 95.7734 288.422 97.8978C291.558 104.331 288.484 122.452 292.113 124.721C297.671 128.196 309.057 128.317 312.755 128.053C314.177 127.951 315.508 126.304 316.107 125.01C318.041 120.836 322.354 111.372 323.555 107.458C325.77 100.237 325.603 83.7815 312.259 79.4269Z" fill="#0C0C0C"/>
<path d="M289.629 118.247C292.839 117.899 295.068 114.184 294.72 110.975C294.371 107.765 291.577 106.28 288.367 106.628L286.946 108.957L286.869 118.545L289.629 118.247Z" fill="#FED7AA"/>
<path d="M343.251 236.738L343.35 236.744C343.35 236.744 343.279 234.828 343.251 236.738Z" fill="#333333"/>
<path d="M255.788 176.963C256.416 184.322 259.464 230.23 260.066 239.293H343.11C343.579 231.118 345.686 195.375 347.465 179.388C349.162 164.134 352.494 156.497 350.052 151.987C346.061 144.617 335.157 140.357 327.721 139.351C323.181 138.737 322.245 138.297 320.394 138.297H288.421C285.38 138.297 265.964 141.224 261.984 144.149C250.969 152.244 254.458 161.37 255.788 176.963Z" fill="#65A30D"/>
<path d="M360.841 238.812C363.284 238.812 365.69 238.222 367.856 237.092C370.021 235.963 371.881 234.327 373.278 232.324C374.675 230.322 375.567 228.011 375.878 225.59C376.189 223.169 375.91 220.708 375.064 218.418C374.207 216.092 354.093 162.864 350.265 153L321.912 164.481C324.065 170.026 331.866 191.046 338.132 207.979L327.721 206.847L324.444 236.975L359.201 238.722C359.745 238.782 360.293 238.812 360.841 238.812Z" fill="#65A30D"/>
<path d="M344.66 179.697L342.62 239.285L343.172 239.304L345.212 179.715L344.66 179.697Z" fill="#0C0C0C"/>
<path d="M243.776 238.816C241.333 238.815 238.927 238.226 236.762 237.096C234.596 235.966 232.736 234.331 231.339 232.328C229.943 230.325 229.051 228.015 228.74 225.594C228.429 223.172 228.708 220.712 229.553 218.421C230.411 216.096 251.367 162.632 255.195 152.77L282.705 164.486C280.552 170.032 272.751 191.051 266.485 207.984L276.896 206.853L280.173 236.98L245.417 238.727C244.872 238.786 244.324 238.816 243.776 238.816Z" fill="#65A30D"/>
<path d="M266.42 204.45C266.372 204.45 266.325 204.439 266.283 204.417C266.24 204.396 266.203 204.365 266.175 204.326C266.147 204.288 266.128 204.243 266.121 204.196C266.113 204.149 266.117 204.101 266.131 204.055L273.492 180.895C273.503 180.856 273.522 180.82 273.547 180.789C273.573 180.757 273.604 180.731 273.64 180.712C273.676 180.693 273.715 180.681 273.755 180.677C273.796 180.673 273.836 180.678 273.875 180.69C273.914 180.702 273.95 180.722 273.98 180.749C274.011 180.775 274.036 180.807 274.054 180.843C274.073 180.88 274.083 180.919 274.086 180.96C274.088 181 274.083 181.041 274.069 181.079L266.709 204.236C266.69 204.298 266.652 204.352 266.6 204.391C266.548 204.429 266.485 204.45 266.42 204.45Z" fill="#0C0C0C"/>
<path d="M360.743 193.565L354.769 239.414H260.817L267.01 191.88C267.215 190.309 267.985 188.867 269.176 187.822C270.367 186.776 271.898 186.2 273.483 186.199H354.267C355.196 186.199 356.114 186.396 356.96 186.779C357.806 187.161 358.561 187.719 359.174 188.416C359.787 189.114 360.244 189.933 360.515 190.821C360.785 191.709 360.863 192.644 360.743 193.565Z" fill="white"/>
<path d="M359.547 188.091C359.064 187.542 358.498 187.071 357.87 186.697C357.547 186.504 357.209 186.337 356.859 186.2C356.034 185.873 355.155 185.704 354.268 185.703H273.483C271.778 185.708 270.132 186.33 268.852 187.455C267.571 188.58 266.741 190.131 266.518 191.82L260.316 239.414H261.318L267.504 191.945C267.696 190.495 268.408 189.164 269.507 188.199C270.607 187.234 272.02 186.7 273.483 186.697H354.268C355.126 186.698 355.973 186.881 356.755 187.235C357.536 187.589 358.233 188.105 358.799 188.75C359.365 189.394 359.788 190.151 360.038 190.971C360.288 191.791 360.361 192.655 360.251 193.505L354.268 239.414H355.27L361.233 193.63C361.363 192.64 361.279 191.634 360.988 190.679C360.698 189.723 360.206 188.841 359.547 188.091Z" fill="#292A2E"/>
<path d="M366.226 193.565L360.251 239.414H266.299L272.493 191.88C272.641 190.743 273.086 189.666 273.784 188.756C274.482 187.845 275.407 187.135 276.467 186.696C277.258 186.366 278.107 186.197 278.965 186.199H359.753C360.682 186.199 361.599 186.398 362.445 186.78C363.29 187.163 364.044 187.721 364.657 188.418C365.269 189.115 365.726 189.935 365.997 190.822C366.267 191.71 366.345 192.645 366.226 193.565Z" fill="#292A2E"/>
<path d="M365.029 188.091C364.369 187.341 363.558 186.741 362.648 186.329C361.739 185.918 360.752 185.704 359.753 185.703H278.965C277.7 185.705 276.46 186.048 275.375 186.697C274.461 187.241 273.683 187.984 273.098 188.871C272.514 189.759 272.138 190.767 271.999 191.82L265.798 239.414H266.8L272.985 191.945C273.177 190.495 273.889 189.164 274.989 188.199C276.088 187.234 277.501 186.7 278.964 186.697H359.753C360.611 186.697 361.459 186.881 362.24 187.234C363.022 187.588 363.719 188.104 364.284 188.749C364.85 189.393 365.272 190.151 365.522 190.971C365.771 191.791 365.843 192.655 365.732 193.505L359.753 239.414H360.752L366.719 193.63C366.847 192.64 366.762 191.634 366.471 190.679C366.179 189.723 365.688 188.841 365.029 188.091Z" fill="#292A2E"/>
<path d="M4.83108 239.698H374.096C374.171 239.698 374.243 239.669 374.296 239.616C374.35 239.563 374.379 239.491 374.379 239.416C374.379 239.341 374.35 239.269 374.296 239.216C374.243 239.163 374.171 239.133 374.096 239.133H4.83108C4.75603 239.133 4.68405 239.163 4.63098 239.216C4.57791 239.269 4.5481 239.341 4.5481 239.416C4.5481 239.491 4.57791 239.563 4.63098 239.616C4.68405 239.669 4.75603 239.698 4.83108 239.698Z" fill="#292A2E"/>
<g opacity="0.65">
<path d="M4.83108 239.698H374.096C374.171 239.698 374.243 239.669 374.296 239.616C374.35 239.563 374.379 239.491 374.379 239.416C374.379 239.341 374.35 239.269 374.296 239.216C374.243 239.163 374.171 239.133 374.096 239.133H4.83108C4.75603 239.133 4.68405 239.163 4.63098 239.216C4.57791 239.269 4.5481 239.341 4.5481 239.416C4.5481 239.491 4.57791 239.563 4.63098 239.616C4.68405 239.669 4.75603 239.698 4.83108 239.698Z" fill="#292A2E"/>
</g>
<path d="M228.617 223.908L229.917 189.747L247.876 188.797L249.51 223.908H228.617Z" fill="#65A30D"/>
</g>
<defs>
<clipPath id="clip0_550_16350">
<rect width="376" height="239" fill="white" transform="translate(0 0.699219)"/>
</clipPath>
</defs>
</svg>
