<svg width="356" height="351" viewBox="0 0 356 351" fill="none" xmlns="http://www.w3.org/2000/svg">
<path d="M49.272 259.376L48.4922 259.461L58.1201 347.416L58.8999 347.331L49.272 259.376Z" fill="#292A2E"/>
<path d="M74.2082 297.774L69.4717 344.617L70.2522 344.696L74.9887 297.853L74.2082 297.774Z" fill="#292A2E"/>
<path d="M82.3534 338.953H47.208V350.355H82.3534V338.953Z" fill="#292A2E"/>
<path opacity="0.2" d="M82.3534 338.953H47.208V350.355H82.3534V338.953Z" fill="white"/>
<path d="M103.541 317.958C110.199 309.112 107.025 295.494 96.4523 287.541C85.8793 279.588 71.911 280.313 65.2531 289.159C58.5953 298.005 61.7691 311.623 72.3421 319.575C82.9151 327.528 96.8834 326.804 103.541 317.958Z" fill="#65A30D"/>
<path opacity="0.2" d="M103.541 317.958C110.199 309.112 107.025 295.494 96.4523 287.541C85.8793 279.588 71.911 280.313 65.2531 289.159C58.5953 298.005 61.7691 311.623 72.3421 319.575C82.9151 327.528 96.8834 326.804 103.541 317.958Z" fill="white"/>
<path opacity="0.5" d="M103.54 317.962C103.092 318.559 102.605 319.124 102.079 319.653C94.7505 324.334 83.9327 323.597 75.3509 317.141C64.7789 309.189 61.6058 295.572 68.2645 286.726C68.712 286.13 69.1985 285.565 69.721 285.035C77.0536 280.35 87.8677 281.09 96.4531 287.543C107.025 295.498 110.198 309.116 103.54 317.962Z" fill="white"/>
<path d="M54.4921 284.397C64.9661 276.315 67.8129 262.453 60.8505 253.436C53.8881 244.419 39.7531 243.662 29.2791 251.744C18.8051 259.827 15.9583 273.689 22.9207 282.705C29.8831 291.722 44.0181 292.48 54.4921 284.397Z" fill="#65A30D"/>
<path opacity="0.2" d="M51.1748 282.079C43.0631 288.342 32.7544 289.297 25.2818 285.219C24.417 284.458 23.6272 283.615 22.9229 282.703C15.9594 273.689 18.8059 259.826 29.2796 251.745C37.3912 245.485 47.7 244.527 55.1689 248.601C56.0356 249.363 56.8266 250.206 57.5309 251.12C64.495 260.134 61.6484 273.998 51.1748 282.079Z" fill="white"/>
<path d="M331.903 201.168H214.035C211.231 201.168 208.957 203.441 208.957 206.244V264.712C208.957 267.515 211.231 269.788 214.035 269.788H331.903C334.708 269.788 336.981 267.515 336.981 264.712V206.244C336.981 203.441 334.708 201.168 331.903 201.168Z" fill="#F4F4F4"/>
<path d="M286.901 240.133H278.73C278.232 240.133 277.829 240.536 277.829 241.034V259.14C277.829 259.637 278.232 260.041 278.73 260.041H286.901C287.398 260.041 287.802 259.637 287.802 259.14V241.034C287.802 240.536 287.398 240.133 286.901 240.133Z" fill="white"/>
<path d="M306.593 221.129H298.422C297.925 221.129 297.521 221.532 297.521 222.03V259.139C297.521 259.636 297.925 260.04 298.422 260.04H306.593C307.091 260.04 307.494 259.636 307.494 259.139V222.03C307.494 221.532 307.091 221.129 306.593 221.129Z" fill="white"/>
<path d="M326.286 235.668H318.115C317.617 235.668 317.214 236.071 317.214 236.569V259.137C317.214 259.635 317.617 260.038 318.115 260.038H326.286C326.784 260.038 327.187 259.635 327.187 259.137V236.569C327.187 236.071 326.784 235.668 326.286 235.668Z" fill="white"/>
<path d="M227.823 240.133H219.652C219.155 240.133 218.751 240.536 218.751 241.034V259.14C218.751 259.637 219.155 260.041 219.652 260.041H227.823C228.321 260.041 228.724 259.637 228.724 259.14V241.034C228.724 240.536 228.321 240.133 227.823 240.133Z" fill="white"/>
<path d="M247.516 221.129H239.345C238.847 221.129 238.444 221.532 238.444 222.03V259.139C238.444 259.636 238.847 260.04 239.345 260.04H247.516C248.014 260.04 248.417 259.636 248.417 259.139V222.03C248.417 221.532 248.014 221.129 247.516 221.129Z" fill="white"/>
<path d="M267.209 235.668H259.037C258.54 235.668 258.136 236.071 258.136 236.569V259.137C258.136 259.635 258.54 260.038 259.037 260.038H267.209C267.706 260.038 268.11 259.635 268.11 259.137V236.569C268.11 236.071 267.706 235.668 267.209 235.668Z" fill="white"/>
<path d="M282.388 24.8745C282.388 24.8745 277.714 20.8302 277.07 12.1973C276.569 5.51536 282.39 10.2108 282.39 10.2108C282.39 10.2108 282.077 5.39436 285.523 6.10229C288.969 6.81021 290.581 11.9544 290.581 11.9544" fill="#0C0C0C"/>
<path d="M303.467 7.86719C303.467 7.86719 320.605 10.8736 312.797 33.8406H308.148" fill="#0C0C0C"/>
<path d="M314.791 330.195C314.791 330.195 312.752 340.76 302.855 341.351C292.959 341.942 295.105 349.821 295.105 349.821H332.923V330.933L314.791 330.195Z" fill="#65A30D"/>
<path d="M335.488 137.444C335.488 137.444 335.37 134.268 335.394 141.473C335.488 168.349 334.592 336.94 334.592 336.94L309.742 336.731L294.688 136.352L335.488 137.444Z" fill="#262626"/>
<path d="M272.355 330.195C272.355 330.195 270.316 340.76 260.42 341.351C250.523 341.942 252.67 349.821 252.67 349.821H290.488V330.933L272.355 330.195Z" fill="#65A30D"/>
<path d="M267.549 139.529C267.549 139.529 264.444 231.386 264.767 235.876L267.686 336.241L292.127 336.692L296.067 232.244C296.067 232.244 298.651 203.433 305.614 176.679C309.177 162.948 311.321 148.887 312.013 134.719L267.549 139.529Z" fill="#262626"/>
<path d="M299.791 204.656L297.754 173.5C297.754 173.5 295.661 186.453 295.661 197.617C295.661 203.074 296.785 224.68 296.785 224.68L299.791 204.656Z" fill="#0A0A0A"/>
<path d="M284.165 57.7174C284.241 57.7075 285.085 71.7094 301.356 70.4886C312.621 69.6452 316.637 57.6976 316.895 57.6976C315.681 57.4398 314.18 57.0479 313.583 56.9138C312.283 56.6121 311.106 55.9219 310.208 54.935C309.31 53.9481 308.734 52.7113 308.556 51.389C308.227 49.4025 308.785 39.2504 308.613 37.2422L291.322 41.1006C291.564 45.3414 293.255 55.1733 287.328 56.9134C286.342 57.2014 285.28 57.466 284.165 57.7174Z" fill="#FED7AA"/>
<path opacity="0.52" d="M291.08 52.8975C291.351 52.0248 291.525 51.125 291.6 50.2143C291.79 48.1366 291.752 46.0443 291.487 43.9748C295.002 43.5005 298.312 42.0503 301.044 39.7891C301.365 40.9747 303.131 46.155 302.641 47.2805C301.717 49.4102 297.375 52.8975 291.08 52.8975Z" fill="#0C0C0C"/>
<path d="M294.149 49.5136C300.996 49.3592 309.431 45.6055 310.167 36.3777L310.832 28.0509C311.569 18.8226 307.317 10.955 298.626 10.2625C289.934 9.56899 282.84 16.5318 282.104 25.7601L281.809 29.4465C281.731 30.7139 281.738 31.9852 281.832 33.2516C282.058 36.6007 282.409 41.6943 284.434 45.2579C286.345 48.6224 289.775 49.612 294.149 49.5136Z" fill="#FED7AA"/>
<path opacity="0.52" d="M291.557 40.8582C290.148 40.8277 288.766 40.4666 287.522 39.804C287.47 39.7775 287.431 39.7315 287.413 39.6761C287.395 39.6206 287.4 39.5603 287.426 39.5083C287.453 39.4563 287.499 39.417 287.554 39.399C287.61 39.3809 287.67 39.3857 287.722 39.4121C290.406 40.7747 292.926 40.7702 295.01 39.3995C295.051 39.3702 295.095 39.3434 295.14 39.3191C295.192 39.2936 295.253 39.2899 295.308 39.3089C295.363 39.3279 295.409 39.368 295.434 39.4205C295.46 39.4729 295.464 39.5334 295.445 39.5885C295.425 39.6437 295.385 39.6891 295.333 39.7146C295.316 39.7236 295.288 39.7422 295.252 39.767C294.156 40.4901 292.87 40.8701 291.557 40.8582Z" fill="#0C0C0C"/>
<path opacity="0.52" d="M291.483 42.9458C291.228 42.9445 290.974 42.9214 290.723 42.8767C290.695 42.8717 290.667 42.8612 290.643 42.8457C290.619 42.8302 290.598 42.81 290.581 42.7864C290.564 42.7628 290.553 42.7361 290.546 42.7079C290.54 42.6797 290.539 42.6505 290.544 42.622C290.549 42.5936 290.56 42.5664 290.575 42.542C290.591 42.5176 290.611 42.4965 290.635 42.4799C290.658 42.4633 290.685 42.4515 290.713 42.4452C290.741 42.439 290.771 42.4383 290.799 42.4433C292.308 42.7069 293.081 42.059 293.113 42.0311C293.157 41.9926 293.214 41.9732 293.273 41.977C293.331 41.9809 293.385 42.0077 293.424 42.0516C293.462 42.0955 293.482 42.1528 293.478 42.2111C293.474 42.2693 293.447 42.3236 293.403 42.362C292.85 42.7726 292.171 42.9788 291.483 42.9458Z" fill="#0C0C0C"/>
<path d="M284.682 31.4207C285.275 31.4207 285.756 30.94 285.756 30.3471C285.756 29.7541 285.275 29.2734 284.682 29.2734C284.089 29.2734 283.608 29.7541 283.608 30.3471C283.608 30.94 284.089 31.4207 284.682 31.4207Z" fill="#0C0C0C"/>
<path d="M295.538 31.4871C296.131 31.4871 296.612 31.0064 296.612 30.4135C296.612 29.8205 296.131 29.3398 295.538 29.3398C294.945 29.3398 294.464 29.8205 294.464 30.4135C294.464 31.0064 294.945 31.4871 295.538 31.4871Z" fill="#0C0C0C"/>
<path d="M309.403 39.144C312.044 39.3549 314.411 36.701 314.622 34.0603C314.832 31.4196 312.807 29.7929 310.166 29.582L308.664 31.243L307.132 38.9634L309.403 39.144Z" fill="#FED7AA"/>
<path d="M263.948 88.5437C264.461 94.5629 266.954 132.116 267.447 139.531H335.358C335.742 132.844 337.465 103.603 338.919 90.5271C340.308 78.0489 343.033 71.8017 341.036 68.1127C337.772 62.0836 328.855 58.5995 322.774 57.7764C319.061 57.2743 313.476 56.9141 313.476 56.9141C313.476 56.9141 313.003 66.4765 301.728 67.0088C286.38 67.7312 287.404 56.9141 287.329 56.9141C284.842 56.9141 270.637 58.4875 267.162 60.5467C257.693 66.1528 262.86 75.7879 263.948 88.5437Z" fill="#65A30D"/>
<path d="M307.058 34.721C307.058 34.721 307.041 21.5923 303.131 20.5196C300.527 19.8053 293.873 23.1201 288.019 21.5923C285.457 20.9236 282.951 21.4009 282.619 22.609C282.487 23.0876 281.338 16.0083 285.755 10.9901C289.273 6.99491 299.936 6.51453 304.661 8.21843C317.74 12.936 310.672 30.194 310.672 30.194L309.776 34.66L307.058 34.721Z" fill="#0C0C0C"/>
<g opacity="0.52">
<path d="M290.167 37.6676H290.15C289.299 37.6022 287.878 37.3967 287.926 36.7601C287.968 36.2328 289.851 30.6497 290.066 30.015C290.085 29.9604 290.124 29.9153 290.176 29.8897C290.227 29.8642 290.287 29.8602 290.342 29.8786C290.396 29.8971 290.441 29.9364 290.467 29.9881C290.493 30.0397 290.497 30.0994 290.478 30.154C289.642 32.6268 288.388 36.4351 288.36 36.7935C288.432 36.9507 289.302 37.166 290.183 37.2342C290.239 37.2392 290.29 37.2653 290.327 37.3071C290.364 37.349 290.383 37.4034 290.381 37.4591C290.379 37.5148 290.356 37.5675 290.316 37.6065C290.276 37.6455 290.223 37.6677 290.167 37.6685V37.6676Z" fill="#0C0C0C"/>
</g>
<path d="M287.7 25.6935C287.013 25.4096 286.263 25.3121 285.527 25.4109C285.152 25.458 284.786 25.5616 284.443 25.7183C284.091 25.8764 283.761 26.0778 283.46 26.3179L283.436 26.336C283.358 26.3961 283.26 26.4235 283.162 26.4123C283.065 26.401 282.975 26.352 282.914 26.2758C282.852 26.1995 282.822 26.102 282.831 26.0043C282.84 25.9065 282.887 25.8162 282.962 25.7526C283.296 25.4424 283.668 25.1756 284.068 24.9585C284.475 24.7364 284.912 24.5765 285.366 24.484C285.82 24.3866 286.286 24.352 286.75 24.381C287.228 24.406 287.699 24.4991 288.15 24.6573C288.29 24.708 288.405 24.812 288.469 24.9467C288.533 25.0814 288.541 25.236 288.492 25.3766C288.442 25.5173 288.339 25.6327 288.205 25.6977C288.07 25.7627 287.916 25.7721 287.775 25.7238C287.761 25.7188 287.748 25.7138 287.735 25.7079L287.7 25.6935Z" fill="#0C0C0C"/>
<path d="M294.006 24.7461C294.901 24.438 295.863 24.3782 296.79 24.5732C297.244 24.6657 297.681 24.8256 298.088 25.0477C298.488 25.2648 298.86 25.5318 299.194 25.8423C299.267 25.9061 299.314 25.9961 299.322 26.0932C299.331 26.1903 299.301 26.287 299.24 26.3628C299.179 26.4386 299.09 26.4876 298.993 26.4994C298.897 26.5112 298.799 26.4849 298.721 26.4261L298.696 26.4072C298.395 26.1669 298.065 25.9654 297.713 25.8076C297.37 25.6507 297.004 25.5469 296.629 25.4997C295.893 25.4009 295.143 25.4984 294.456 25.7823L294.424 25.7963C294.287 25.8578 294.131 25.8622 293.99 25.8086C293.85 25.7549 293.736 25.6476 293.675 25.5103C293.613 25.3729 293.609 25.2168 293.662 25.0762C293.716 24.9356 293.823 24.8221 293.961 24.7606C293.976 24.7565 293.99 24.7507 294.006 24.7461Z" fill="#0C0C0C"/>
<path d="M294.922 11.6658C295.717 8.82687 294.797 6.08788 292.868 5.54812C290.939 5.00836 288.731 6.87222 287.936 9.71118C287.141 12.5501 288.061 15.2891 289.99 15.8289C291.919 16.3686 294.128 14.5048 294.922 11.6658Z" fill="#0C0C0C"/>
<path d="M110.346 22.9961H5.54132C2.48012 22.9961 -0.00146484 25.4769 -0.00146484 28.5372V79.5716C-0.00146484 82.6318 2.48012 85.1126 5.54132 85.1126H110.346C113.407 85.1126 115.889 82.6318 115.889 79.5716V28.5372C115.889 25.4769 113.407 22.9961 110.346 22.9961Z" fill="#F4F4F4"/>
<path d="M70.5553 58.2695H63.1577C62.7075 58.2695 62.3425 58.6344 62.3425 59.0845V75.4756C62.3425 75.9257 62.7075 76.2905 63.1577 76.2905H70.5553C71.0055 76.2905 71.3705 75.9257 71.3705 75.4756V59.0845C71.3705 58.6344 71.0055 58.2695 70.5553 58.2695Z" fill="white"/>
<path d="M88.3817 41.0664H80.9841C80.5339 41.0664 80.1689 41.4313 80.1689 41.8813V75.4745C80.1689 75.9245 80.5339 76.2894 80.9841 76.2894H88.3817C88.8319 76.2894 89.1969 75.9245 89.1969 75.4745V41.8813C89.1969 41.4313 88.8319 41.0664 88.3817 41.0664Z" fill="white"/>
<path d="M106.208 54.2305H98.8103C98.3601 54.2305 97.9951 54.5953 97.9951 55.0454V75.476C97.9951 75.926 98.3601 76.2909 98.8103 76.2909H106.208C106.658 76.2909 107.023 75.926 107.023 75.476V55.0454C107.023 54.5953 106.658 54.2305 106.208 54.2305Z" fill="white"/>
<path d="M17.077 58.2695H9.67944C9.22923 58.2695 8.86426 58.6344 8.86426 59.0845V75.4756C8.86426 75.9257 9.22923 76.2905 9.67944 76.2905H17.077C17.5273 76.2905 17.8922 75.9257 17.8922 75.4756V59.0845C17.8922 58.6344 17.5273 58.2695 17.077 58.2695Z" fill="white"/>
<path d="M34.9032 41.0664H27.5056C27.0554 41.0664 26.6904 41.4313 26.6904 41.8813V75.4745C26.6904 75.9245 27.0554 76.2894 27.5056 76.2894H34.9032C35.3534 76.2894 35.7184 75.9245 35.7184 75.4745V41.8813C35.7184 41.4313 35.3534 41.0664 34.9032 41.0664Z" fill="white"/>
<path d="M52.7291 54.2305H45.3315C44.8813 54.2305 44.5164 54.5953 44.5164 55.0454V75.476C44.5164 75.926 44.8813 76.2909 45.3315 76.2909H52.7291C53.1794 76.2909 53.5443 75.926 53.5443 75.476V55.0454C53.5443 54.5953 53.1794 54.2305 52.7291 54.2305Z" fill="white"/>
<path d="M249.32 1.15234H59.3446C55.289 1.15234 52.0012 4.43908 52.0012 8.49348V232.1C52.0012 236.155 55.289 239.442 59.3446 239.442H249.32C253.376 239.442 256.664 236.155 256.664 232.1V8.49348C256.664 4.43908 253.376 1.15234 249.32 1.15234Z" fill="white"/>
<path d="M249.32 239.891H59.3446C57.278 239.889 55.2966 239.067 53.8353 237.606C52.374 236.146 51.552 234.165 51.5496 232.099V8.49184C51.552 6.42584 52.374 4.44514 53.8353 2.98426C55.2966 1.52338 57.278 0.701609 59.3446 0.699219L249.32 0.699219C251.387 0.701609 253.368 1.52338 254.83 2.98426C256.291 4.44514 257.113 6.42584 257.115 8.49184V232.099C257.113 234.165 256.291 236.146 254.83 237.606C253.368 239.067 251.387 239.889 249.32 239.891ZM59.3446 1.60219C57.5174 1.60434 55.7657 2.3309 54.4737 3.62249C53.1817 4.91409 52.455 6.66525 52.4528 8.49184V232.099C52.455 233.925 53.1817 235.677 54.4737 236.968C55.7657 238.26 57.5174 238.986 59.3446 238.988H249.32C251.147 238.986 252.899 238.26 254.191 236.968C255.483 235.677 256.21 233.925 256.212 232.099V8.49184C256.21 6.66525 255.483 4.91409 254.191 3.62249C252.899 2.3309 251.147 1.60434 249.32 1.60219H59.3446Z" fill="#292A2E"/>
<path d="M175.842 37.2036C178.273 37.2036 180.244 35.2334 180.244 32.803C180.244 30.3726 178.273 28.4023 175.842 28.4023C173.411 28.4023 171.44 30.3726 171.44 32.803C171.44 35.2334 173.411 37.2036 175.842 37.2036Z" fill="#65A30D"/>
<path d="M175.842 37.2036C178.273 37.2036 180.244 35.2334 180.244 32.803C180.244 30.3726 178.273 28.4023 175.842 28.4023C173.411 28.4023 171.44 30.3726 171.44 32.803C171.44 35.2334 173.411 37.2036 175.842 37.2036Z" fill="#65A30D"/>
<path d="M175.842 59.6333C178.273 59.6333 180.244 57.663 180.244 55.2326C180.244 52.8023 178.273 50.832 175.842 50.832C173.411 50.832 171.44 52.8023 171.44 55.2326C171.44 57.663 173.411 59.6333 175.842 59.6333Z" fill="#292A2E"/>
<path opacity="0.5" d="M175.842 82.0669C178.273 82.0669 180.244 80.0966 180.244 77.6662C180.244 75.2359 178.273 73.2656 175.842 73.2656C173.411 73.2656 171.44 75.2359 171.44 77.6662C171.44 80.0966 173.411 82.0669 175.842 82.0669Z" fill="#65A30D"/>
<path opacity="0.2" d="M175.842 104.497C178.273 104.497 180.244 102.526 180.244 100.096C180.244 97.6655 178.273 95.6953 175.842 95.6953C173.411 95.6953 171.44 97.6655 171.44 100.096C171.44 102.526 173.411 104.497 175.842 104.497Z" fill="#65A30D"/>
<path d="M88.464 66.4496C88.4654 71.8134 90.1304 77.0449 93.2295 81.4236C96.3287 85.8022 100.71 89.1126 105.769 90.8988L98.6531 108.243C88.867 104.556 80.6851 97.5535 75.5328 88.4556C70.3806 79.3576 68.5846 68.7409 70.4579 58.4552C72.3312 48.1696 77.755 38.8669 85.7842 32.1682C93.8134 25.4694 103.939 21.7992 114.397 21.7969V40.5249C107.519 40.5249 100.923 43.2562 96.0598 48.118C91.1964 52.9798 88.4641 59.5739 88.464 66.4496Z" fill="#292A2E"/>
<path d="M159.064 66.4496H140.33C140.33 59.5739 137.598 52.9798 132.735 48.118C127.871 43.2562 121.275 40.5249 114.397 40.5249V21.7969C126.243 21.7976 137.604 26.5023 145.981 34.8761C154.357 43.2499 159.063 54.6071 159.064 66.4496Z" fill="#65A30D"/>
<path opacity="0.5" d="M159.064 66.4492C159.063 76.5669 155.626 86.3845 149.316 94.2951C143.007 102.206 134.197 107.741 124.331 109.994L121.157 91.4831C126.66 89.9965 131.52 86.7391 134.986 82.2145C138.452 77.6899 140.331 72.15 140.332 66.451L159.064 66.4492Z" fill="#65A30D"/>
<path opacity="0.2" d="M124.331 109.994C115.785 111.929 106.859 111.321 98.6548 108.244L105.77 90.8984C110.723 92.636 116.086 92.8392 121.157 91.4813L124.331 109.994Z" fill="#65A30D"/>
<path d="M237.078 33.1228H186.089C186.005 33.1228 185.923 33.0891 185.864 33.0293C185.804 32.9694 185.77 32.8882 185.77 32.8036C185.77 32.7189 185.804 32.6377 185.864 32.5779C185.923 32.518 186.005 32.4844 186.089 32.4844H237.078C237.162 32.4844 237.244 32.518 237.303 32.5779C237.363 32.6377 237.397 32.7189 237.397 32.8036C237.397 32.8882 237.363 32.9694 237.303 33.0293C237.244 33.0891 237.162 33.1228 237.078 33.1228Z" fill="#65A30D"/>
<path d="M237.078 55.5564H186.089C186.005 55.5564 185.923 55.5227 185.864 55.4629C185.804 55.403 185.77 55.3218 185.77 55.2372C185.77 55.1525 185.804 55.0713 185.864 55.0115C185.923 54.9516 186.005 54.918 186.089 54.918H237.078C237.162 54.918 237.244 54.9516 237.303 55.0115C237.363 55.0713 237.397 55.1525 237.397 55.2372C237.397 55.3218 237.363 55.403 237.303 55.4629C237.244 55.5227 237.162 55.5564 237.078 55.5564Z" fill="#292A2E"/>
<g opacity="0.5">
<path d="M237.078 77.9858H186.089C186.007 77.9827 185.929 77.9478 185.871 77.8883C185.814 77.8288 185.782 77.7494 185.782 77.6669C185.782 77.5843 185.814 77.5049 185.871 77.4454C185.929 77.386 186.007 77.351 186.089 77.3479H237.078C237.121 77.3463 237.163 77.3533 237.203 77.3686C237.244 77.3839 237.28 77.4072 237.311 77.4369C237.342 77.4667 237.367 77.5024 237.383 77.5419C237.4 77.5814 237.409 77.6239 237.409 77.6669C237.409 77.7098 237.4 77.7523 237.383 77.7918C237.367 77.8313 237.342 77.867 237.311 77.8968C237.28 77.9265 237.244 77.9498 237.203 77.9651C237.163 77.9804 237.121 77.9874 237.078 77.9858Z" fill="#65A30D"/>
</g>
<g opacity="0.2">
<path d="M237.078 100.416H186.089C186.007 100.412 185.929 100.377 185.871 100.318C185.814 100.258 185.782 100.179 185.782 100.097C185.782 100.014 185.814 99.9346 185.871 99.8751C185.929 99.8156 186.007 99.7807 186.089 99.7776H237.078C237.121 99.776 237.163 99.783 237.203 99.7983C237.244 99.8136 237.28 99.8369 237.311 99.8666C237.342 99.8964 237.367 99.9321 237.383 99.9716C237.4 100.011 237.409 100.054 237.409 100.097C237.409 100.139 237.4 100.182 237.383 100.221C237.367 100.261 237.342 100.297 237.311 100.326C237.28 100.356 237.244 100.379 237.203 100.395C237.163 100.41 237.121 100.417 237.078 100.416Z" fill="#65A30D"/>
</g>
<g opacity="0.1">
<path d="M237.297 222.33H71.3679C69.9253 222.328 68.5422 221.754 67.5221 220.735C66.5021 219.715 65.9283 218.332 65.9268 216.89V132.85C65.9284 131.408 66.5022 130.025 67.5223 129.005C68.5423 127.985 69.9254 127.412 71.3679 127.41H237.297C238.74 127.412 240.123 127.985 241.143 129.005C242.163 130.025 242.737 131.407 242.739 132.85V216.89C242.737 218.332 242.163 219.715 241.143 220.735C240.123 221.754 238.74 222.328 237.297 222.33Z" fill="#65A30D"/>
</g>
<path opacity="0.5" d="M88.5455 146.473H85.315C84.8289 146.473 84.4348 146.867 84.4348 147.353V209.044C84.4348 209.53 84.8289 209.924 85.315 209.924H88.5455C89.0316 209.924 89.4257 209.53 89.4257 209.044V147.353C89.4257 146.867 89.0316 146.473 88.5455 146.473Z" fill="#65A30D"/>
<path d="M83.554 166.402H80.3236C79.8374 166.402 79.4434 166.796 79.4434 167.282V209.045C79.4434 209.531 79.8374 209.925 80.3236 209.925H83.554C84.0402 209.925 84.4343 209.531 84.4343 209.045V167.282C84.4343 166.796 84.0402 166.402 83.554 166.402Z" fill="#65A30D"/>
<path opacity="0.5" d="M128.487 201.898H125.257C124.771 201.898 124.376 202.292 124.376 202.778V209.047C124.376 209.533 124.771 209.927 125.257 209.927H128.487C128.973 209.927 129.367 209.533 129.367 209.047V202.778C129.367 202.292 128.973 201.898 128.487 201.898Z" fill="#65A30D"/>
<path d="M123.496 162.82H120.266C119.78 162.82 119.385 163.214 119.385 163.7V209.046C119.385 209.532 119.78 209.926 120.266 209.926H123.496C123.982 209.926 124.376 209.532 124.376 209.046V163.7C124.376 163.214 123.982 162.82 123.496 162.82Z" fill="#65A30D"/>
<path opacity="0.5" d="M108.516 171.945H105.286C104.8 171.945 104.406 172.339 104.406 172.825V209.045C104.406 209.531 104.8 209.925 105.286 209.925H108.516C109.003 209.925 109.397 209.531 109.397 209.045V172.825C109.397 172.339 109.003 171.945 108.516 171.945Z" fill="#65A30D"/>
<path d="M103.525 185.066H100.295C99.8084 185.066 99.4143 185.46 99.4143 185.946V209.043C99.4143 209.529 99.8084 209.923 100.295 209.923H103.525C104.011 209.923 104.405 209.529 104.405 209.043V185.946C104.405 185.46 104.011 185.066 103.525 185.066Z" fill="#65A30D"/>
<path opacity="0.5" d="M188.4 158.746H185.169C184.683 158.746 184.289 159.14 184.289 159.626V209.046C184.289 209.532 184.683 209.926 185.169 209.926H188.4C188.886 209.926 189.28 209.532 189.28 209.046V159.626C189.28 159.14 188.886 158.746 188.4 158.746Z" fill="#65A30D"/>
<path d="M183.409 177.59H180.178C179.692 177.59 179.298 177.984 179.298 178.47V209.047C179.298 209.533 179.692 209.927 180.178 209.927H183.409C183.895 209.927 184.289 209.533 184.289 209.047V178.47C184.289 177.984 183.895 177.59 183.409 177.59Z" fill="#65A30D"/>
<path opacity="0.5" d="M148.458 166.73H145.228C144.742 166.73 144.347 167.124 144.347 167.61V209.047C144.347 209.533 144.742 209.927 145.228 209.927H148.458C148.944 209.927 149.338 209.533 149.338 209.047V167.61C149.338 167.124 148.944 166.73 148.458 166.73Z" fill="#65A30D"/>
<path d="M143.467 171.621H140.237C139.751 171.621 139.356 172.015 139.356 172.501V209.047C139.356 209.533 139.751 209.927 140.237 209.927H143.467C143.953 209.927 144.347 209.533 144.347 209.047V172.501C144.347 172.015 143.953 171.621 143.467 171.621Z" fill="#65A30D"/>
<path opacity="0.5" d="M168.429 146.473H165.198C164.712 146.473 164.318 146.867 164.318 147.353V209.044C164.318 209.53 164.712 209.924 165.198 209.924H168.429C168.915 209.924 169.309 209.53 169.309 209.044V147.353C169.309 146.867 168.915 146.473 168.429 146.473Z" fill="#65A30D"/>
<path d="M163.438 149.527H160.207C159.721 149.527 159.327 149.921 159.327 150.407V209.042C159.327 209.528 159.721 209.922 160.207 209.922H163.438C163.924 209.922 164.318 209.528 164.318 209.042V150.407C164.318 149.921 163.924 149.527 163.438 149.527Z" fill="#65A30D"/>
<path opacity="0.5" d="M208.37 146.473H205.14C204.654 146.473 204.26 146.867 204.26 147.353V209.044C204.26 209.53 204.654 209.924 205.14 209.924H208.37C208.857 209.924 209.251 209.53 209.251 209.044V147.353C209.251 146.867 208.857 146.473 208.37 146.473Z" fill="#65A30D"/>
<path d="M203.379 166.402H200.149C199.663 166.402 199.269 166.796 199.269 167.282V209.045C199.269 209.531 199.663 209.925 200.149 209.925H203.379C203.866 209.925 204.26 209.531 204.26 209.045V167.282C204.26 166.796 203.866 166.402 203.379 166.402Z" fill="#65A30D"/>
<path opacity="0.5" d="M228.341 171.945H225.111C224.625 171.945 224.231 172.339 224.231 172.825V209.045C224.231 209.531 224.625 209.925 225.111 209.925H228.341C228.828 209.925 229.222 209.531 229.222 209.045V172.825C229.222 172.339 228.828 171.945 228.341 171.945Z" fill="#65A30D"/>
<path d="M223.35 185.066H220.12C219.634 185.066 219.24 185.46 219.24 185.946V209.043C219.24 209.529 219.634 209.923 220.12 209.923H223.35C223.837 209.923 224.231 209.529 224.231 209.043V185.946C224.231 185.46 223.837 185.066 223.35 185.066Z" fill="#65A30D"/>
<path d="M249.041 134.406C247.032 134.403 245.059 133.874 243.317 132.873C241.575 131.872 240.125 130.433 239.112 128.699C238.098 126.965 237.556 124.995 237.539 122.987C237.522 120.978 238.031 119 239.015 117.249L266.465 68.4394C267.203 67.1143 268.195 65.948 269.384 65.0072C270.574 64.0665 271.937 63.3699 273.397 62.9575C274.856 62.5451 276.383 62.4249 277.889 62.604C279.395 62.783 280.851 63.2577 282.173 64.0008C283.495 64.7439 284.658 65.7408 285.593 66.9341C286.529 68.1275 287.22 69.4939 287.625 70.9548C288.031 72.4158 288.145 73.9425 287.959 75.4473C287.773 76.9521 287.292 78.4054 286.542 79.7238L259.092 128.534C258.09 130.317 256.63 131.801 254.864 132.833C253.097 133.865 251.087 134.408 249.041 134.406Z" fill="#65A30D"/>
<path d="M265.902 116.425L265.491 108.102" stroke="#0C0C0C" stroke-width="0.75" stroke-linecap="round" stroke-linejoin="round"/>
<path d="M299.185 94.3666L292.082 86.0553C291.93 85.8766 291.742 85.731 291.531 85.6272C291.32 85.5233 291.09 85.4636 290.856 85.4515C290.621 85.4394 290.386 85.4753 290.166 85.5569C289.945 85.6385 289.744 85.7641 289.574 85.9261C289.255 86.2511 289.072 86.685 289.061 87.1399C289.05 87.5948 289.212 88.0369 289.515 88.3768L291.033 90.1529L298.626 95.9184L299.185 94.3666Z" fill="#FED7AA"/>
<path d="M288.044 96.5551L265.617 97.952C264.717 98.0082 263.828 97.7288 263.122 97.1678C262.415 96.6069 261.942 95.8042 261.793 94.9149L256.252 61.8288C256.168 61.3251 256.191 60.8094 256.318 60.315C256.446 59.8206 256.676 59.3586 256.994 58.9587C257.312 58.5589 257.71 58.2303 258.163 57.9941C258.616 57.7578 259.113 57.6193 259.623 57.5875L282.05 56.1906C282.95 56.1346 283.839 56.4141 284.546 56.9751C285.252 57.5361 285.725 58.3388 285.874 59.2282L291.414 92.3139C291.498 92.8174 291.475 93.333 291.348 93.8273C291.22 94.3216 290.99 94.7837 290.672 95.1835C290.355 95.5833 289.957 95.9119 289.504 96.1482C289.051 96.3845 288.554 96.5231 288.044 96.5551Z" fill="#292A2E"/>
<path d="M291.032 90.1504L283.671 86.7435C282.858 86.3507 281.611 86.3877 281.23 87.3272C281.06 87.6791 281.014 88.0781 281.101 88.4593C281.187 88.8404 281.399 89.1811 281.704 89.4257C281.698 89.4329 281.693 89.4406 281.688 89.4488C281.686 89.4553 281.685 89.4619 281.684 89.4686L280.432 88.8623C280.201 88.7507 279.948 88.6917 279.692 88.6896C279.436 88.6875 279.182 88.7423 278.95 88.85C278.717 88.9577 278.511 89.1157 278.347 89.3126C278.183 89.5094 278.065 89.7402 278.001 89.9883C277.907 90.3857 277.953 90.8035 278.132 91.1707C278.31 91.538 278.611 91.8323 278.981 92.0037L279.515 92.262C279.514 92.2813 279.517 92.3006 279.524 92.3188C279.127 92.2287 278.712 92.281 278.35 92.4667C277.988 92.6524 277.704 92.9596 277.546 93.3342C277.385 93.7597 277.391 94.2306 277.564 94.6517C277.736 95.0727 278.062 95.4126 278.476 95.6025L279.786 96.2346C279.761 96.2388 279.737 96.2489 279.717 96.2641C279.696 96.2792 279.68 96.299 279.668 96.3217C279.656 96.351 279.652 96.3834 279.658 96.4147C279.29 96.4313 278.936 96.5654 278.65 96.7975C278.363 97.0295 278.158 97.3473 278.065 97.7041C277.971 98.1016 278.018 98.5195 278.196 98.8868C278.375 99.2542 278.675 99.5485 279.046 99.72L290.212 105.126C291.775 105.882 293.527 106.155 295.245 105.909C296.963 105.663 298.569 104.909 299.856 103.745L304 99.9977L291.032 90.1504Z" fill="#FED7AA"/>
<g opacity="0.2">
<path d="M288.974 92.8366C288.955 92.8739 288.923 92.9025 288.883 92.9164C288.844 92.9302 288.801 92.9281 288.763 92.9106L281.763 89.6599C281.744 89.651 281.727 89.6385 281.713 89.623C281.699 89.6075 281.688 89.5894 281.68 89.5697C281.673 89.5499 281.67 89.529 281.671 89.508C281.672 89.4871 281.677 89.4665 281.686 89.4475C281.695 89.4285 281.707 89.4114 281.723 89.3973C281.738 89.3831 281.757 89.3722 281.776 89.365C281.796 89.3579 281.817 89.3547 281.838 89.3556C281.859 89.3566 281.879 89.3616 281.898 89.3705L288.899 92.619C288.937 92.6368 288.967 92.6692 288.981 92.709C288.996 92.7488 288.994 92.7927 288.976 92.8312L288.974 92.8366Z" fill="#0C0C0C"/>
</g>
<g opacity="0.2">
<path d="M287.625 95.9593C287.607 95.9967 287.575 96.0254 287.535 96.0393C287.496 96.0533 287.453 96.0513 287.415 96.0338L279.606 92.4084C279.567 92.3904 279.538 92.358 279.523 92.3183C279.508 92.2785 279.51 92.2346 279.528 92.1962C279.547 92.1588 279.579 92.13 279.619 92.1156C279.658 92.1011 279.701 92.1022 279.74 92.1185L287.55 95.7439C287.588 95.7619 287.618 95.7943 287.632 95.834C287.647 95.8738 287.645 95.9177 287.627 95.9561L287.625 95.9593Z" fill="#0C0C0C"/>
</g>
<g opacity="0.2">
<path d="M286.185 99.3526C286.167 99.3901 286.135 99.4188 286.095 99.4327C286.056 99.4466 286.013 99.4446 285.975 99.4271L279.745 96.5349C279.726 96.526 279.709 96.5135 279.695 96.498C279.681 96.4825 279.67 96.4644 279.663 96.4447C279.655 96.4249 279.652 96.404 279.653 96.383C279.654 96.3621 279.659 96.3415 279.668 96.3225C279.677 96.3035 279.69 96.2864 279.705 96.2723C279.721 96.2581 279.739 96.2472 279.758 96.24C279.778 96.2329 279.799 96.2297 279.82 96.2306C279.841 96.2316 279.862 96.2366 279.881 96.2455L286.11 99.1373C286.149 99.1553 286.178 99.1877 286.193 99.2275C286.207 99.2672 286.205 99.3111 286.188 99.3495L286.185 99.3526Z" fill="#0C0C0C"/>
</g>
<path d="M290.58 108.334L339.02 132.088C341.071 133.032 343.347 133.377 345.586 133.083C347.825 132.789 349.935 131.869 351.672 130.428C353.41 128.986 354.704 127.083 355.407 124.938C356.109 122.793 356.19 120.493 355.64 118.303L342.705 71.8144C341.933 68.7355 339.968 66.0896 337.244 64.4586C334.52 62.8276 331.26 62.3452 328.18 63.1175C321.767 64.7261 318.323 71.227 319.932 77.6386L330.08 102.775L299.041 89.765L290.58 108.334Z" fill="#65A30D"/>
<path d="M335.833 130.781C335.818 130.778 335.804 130.774 335.791 130.767L290.511 108.475C290.473 108.457 290.445 108.425 290.43 108.386C290.416 108.346 290.418 108.303 290.435 108.265L298.895 89.6964C298.912 89.6583 298.943 89.6284 298.982 89.6132C299.021 89.598 299.064 89.5987 299.102 89.6151L329.384 102.044L323.391 84C323.385 83.9798 323.383 83.9588 323.386 83.938C323.388 83.9171 323.394 83.897 323.405 83.8787C323.415 83.8604 323.429 83.8443 323.445 83.8313C323.461 83.8183 323.48 83.8087 323.5 83.8029C323.521 83.7972 323.542 83.7955 323.563 83.798C323.583 83.8004 323.604 83.8069 323.622 83.8171C323.64 83.8273 323.656 83.841 323.669 83.8574C323.682 83.8739 323.692 83.8927 323.698 83.9129L329.781 102.277C329.789 102.306 329.789 102.337 329.781 102.366C329.772 102.394 329.756 102.42 329.733 102.44C329.711 102.46 329.683 102.474 329.653 102.478C329.623 102.483 329.593 102.48 329.565 102.468L299.121 89.9695L290.79 108.255L335.93 130.479C335.964 130.495 335.992 130.524 336.007 130.559C336.022 130.595 336.023 130.634 336.012 130.671C336 130.707 335.975 130.738 335.943 130.758C335.91 130.778 335.871 130.786 335.833 130.78V130.781Z" fill="#0C0C0C"/>
<path d="M335.059 104.918C335.046 104.916 335.033 104.912 335.021 104.907L329.563 102.469C329.544 102.461 329.527 102.448 329.512 102.433C329.498 102.418 329.487 102.4 329.479 102.381C329.472 102.361 329.468 102.34 329.469 102.319C329.469 102.298 329.474 102.278 329.483 102.259C329.491 102.239 329.503 102.222 329.519 102.208C329.534 102.193 329.552 102.182 329.571 102.175C329.591 102.167 329.612 102.164 329.633 102.164C329.654 102.165 329.674 102.169 329.693 102.178L335.151 104.616C335.186 104.632 335.214 104.66 335.23 104.695C335.246 104.73 335.249 104.77 335.238 104.806C335.227 104.843 335.203 104.875 335.17 104.896C335.138 104.916 335.099 104.924 335.061 104.918H335.059Z" fill="#0C0C0C"/>
<path d="M273.359 72.3473C273.127 72.0559 272.806 71.8476 272.445 71.7535C272.085 71.6595 271.703 71.6847 271.358 71.8254C271.355 71.804 271.348 71.7834 271.336 71.7656C271.323 71.7477 271.307 71.7331 271.288 71.7231C271.269 71.713 271.248 71.7078 271.226 71.7078C271.204 71.7079 271.183 71.7132 271.164 71.7234L272.106 70.5856C272.395 70.2494 272.55 69.8178 272.539 69.3742C272.528 68.9307 272.353 68.507 272.048 68.1851C271.751 67.8917 271.358 67.7155 270.942 67.6888C270.526 67.6622 270.114 67.787 269.782 68.0402C269.782 68.023 269.766 68.0104 269.759 67.995L270.144 67.5295C270.409 67.2216 270.559 66.8323 270.571 66.4267C270.583 66.0211 270.455 65.6237 270.209 65.301C270.048 65.0995 269.845 64.9363 269.613 64.8233C269.382 64.7104 269.128 64.6504 268.87 64.6479C268.613 64.6454 268.358 64.7004 268.124 64.8088C267.89 64.9173 267.684 65.0765 267.519 65.2748L266.63 66.3494C266.625 66.3439 266.626 66.3354 266.62 66.3304C266.614 66.3254 266.602 66.3263 266.594 66.3214C266.771 65.9718 266.824 65.5725 266.744 65.1888C266.664 64.8051 266.457 64.4599 266.155 64.2098C265.418 63.5136 264.267 63.9985 263.692 64.6938L258.256 71.1432L258.412 70.8516L259.056 68.5978C259.187 68.1736 259.155 67.7163 258.967 67.3144C258.779 66.9124 258.449 66.5944 258.04 66.4221C257.816 66.3358 257.576 66.2971 257.336 66.3085C257.096 66.3199 256.861 66.3811 256.646 66.4883C256.431 66.5954 256.24 66.7462 256.087 66.9309C255.933 67.1156 255.82 67.3302 255.754 67.5612L252.749 78.0717L252.02 80.6239C251.67 81.8481 251.811 83.1605 252.414 84.2821C253.016 85.4038 254.032 86.2464 255.246 86.6309L256.04 86.8824C257.695 87.4064 259.468 87.4245 261.133 86.9344C262.798 86.4443 264.279 85.4683 265.385 84.1315L273.295 74.5754C273.559 74.2676 273.71 73.8784 273.722 73.4728C273.733 73.0672 273.606 72.6699 273.359 72.3473Z" fill="#FED7AA"/>
<g opacity="0.2">
<path d="M261.401 72.4374C261.434 72.4637 261.475 72.4763 261.516 72.4726C261.558 72.4689 261.596 72.4491 261.623 72.4175L266.636 66.555C266.651 66.5393 266.663 66.5207 266.67 66.5004C266.678 66.48 266.681 66.4584 266.68 66.4367C266.679 66.4151 266.673 66.3939 266.664 66.3744C266.654 66.355 266.641 66.3377 266.624 66.3236C266.608 66.3095 266.589 66.2989 266.568 66.2924C266.547 66.286 266.526 66.2838 266.504 66.286C266.482 66.2882 266.462 66.2948 266.443 66.3053C266.424 66.3159 266.407 66.3302 266.394 66.3473L261.381 72.2098C261.367 72.2258 261.357 72.2443 261.35 72.2643C261.344 72.2843 261.341 72.3054 261.343 72.3264C261.344 72.3473 261.35 72.3678 261.36 72.3865C261.369 72.4053 261.382 72.4219 261.398 72.4356L261.401 72.4374Z" fill="#0C0C0C"/>
</g>
<g opacity="0.2">
<path d="M263.927 74.7189C263.96 74.7452 264.001 74.7578 264.043 74.7541C264.084 74.7504 264.123 74.7306 264.15 74.699L269.745 68.1565C269.759 68.1406 269.769 68.1221 269.776 68.1021C269.783 68.0821 269.785 68.061 269.783 68.04C269.782 68.019 269.776 67.9986 269.766 67.9799C269.757 67.9611 269.744 67.9444 269.728 67.9308C269.695 67.9045 269.653 67.8918 269.611 67.895C269.569 67.8983 269.53 67.9174 269.502 67.9484L263.907 74.4909C263.893 74.5068 263.883 74.5253 263.876 74.5453C263.87 74.5653 263.867 74.5864 263.869 74.6074C263.87 74.6284 263.876 74.6488 263.886 74.6676C263.895 74.6863 263.908 74.703 263.924 74.7166L263.927 74.7189Z" fill="#0C0C0C"/>
</g>
<g opacity="0.2">
<path d="M266.648 77.2076C266.68 77.2339 266.721 77.2465 266.763 77.2428C266.804 77.2391 266.843 77.2194 266.87 77.1878L271.333 71.9691C271.348 71.9533 271.36 71.9347 271.367 71.9144C271.375 71.8941 271.378 71.8724 271.377 71.8508C271.376 71.8291 271.37 71.808 271.361 71.7885C271.351 71.7691 271.338 71.7518 271.321 71.7377C271.305 71.7236 271.286 71.713 271.265 71.7065C271.244 71.7 271.223 71.6978 271.201 71.7001C271.179 71.7023 271.159 71.7089 271.14 71.7194C271.121 71.7299 271.104 71.7442 271.091 71.7614L266.627 76.9805C266.613 76.9965 266.603 77.015 266.596 77.035C266.59 77.0551 266.587 77.0762 266.589 77.0972C266.591 77.1182 266.596 77.1386 266.606 77.1573C266.616 77.1761 266.629 77.1927 266.645 77.2063L266.648 77.2076Z" fill="#0C0C0C"/>
</g>
<path d="M269.783 83.8L260.871 123.866C260.364 126.999 258.633 129.803 256.059 131.661C253.484 133.519 250.276 134.278 247.142 133.772C244.007 133.265 241.202 131.535 239.344 128.961C237.486 126.387 236.726 123.181 237.233 120.047L249.469 77.2422" fill="#65A30D"/>
<path d="M261.564 116.424L266.589 97.9688" stroke="#0C0C0C" stroke-width="0.75" stroke-linecap="round" stroke-linejoin="round"/>
<path d="M346.474 350.7H32.0854C31.9656 350.7 31.8508 350.652 31.7661 350.568C31.6814 350.483 31.6338 350.368 31.6338 350.248C31.6338 350.129 31.6814 350.014 31.7661 349.929C31.8508 349.844 31.9656 349.797 32.0854 349.797H346.474C346.594 349.797 346.709 349.844 346.793 349.929C346.878 350.014 346.926 350.129 346.926 350.248C346.926 350.368 346.878 350.483 346.793 350.568C346.709 350.652 346.594 350.7 346.474 350.7Z" fill="#292A2E"/>
</svg>
