<svg width="47" height="68" viewBox="0 0 47 68" fill="none" xmlns="http://www.w3.org/2000/svg">
<rect x="0.5" y="0.5" width="45.0195" height="66.9861" rx="7.5" fill="#FEFCE8"/>
<rect x="0.5" y="0.5" width="45.0195" height="66.9861" rx="7.5" stroke="#FDE047"/>
<path d="M18.9821 31.2344L18.7812 36.3455L18.7545 36.651L13.1295 36.2483C12.808 36.2205 12.5089 36.0747 12.2321 35.8108C11.9554 35.5469 11.7455 35.2436 11.6027 34.901C11.5045 34.651 11.4397 34.3964 11.4085 34.1372C11.3772 33.8779 11.3951 33.577 11.4621 33.2344C11.529 32.8918 11.5826 32.6372 11.6228 32.4705C11.6629 32.3038 11.7589 32.0075 11.9107 31.5816C12.0625 31.1557 12.1473 30.9103 12.1652 30.8455C12.8616 30.9566 15.1339 31.0862 18.9821 31.2344ZM13.7991 23.0955L16.2098 28.3594L14.2411 27.0816C13.6786 27.7483 13.1808 28.4172 12.7478 29.0885C12.3147 29.7598 11.9911 30.3385 11.7768 30.8247C11.5625 31.3108 11.3862 31.7483 11.2478 32.1372C11.1094 32.526 11.0268 32.8177 11 33.0122L10.9464 33.3038L8.40179 28.3455C8.25 28.1047 8.16964 27.8455 8.16071 27.5677C8.15179 27.2899 8.17857 27.0723 8.24107 26.9149L8.34821 26.6649C8.66071 26.0816 9.16964 25.2112 9.875 24.0538L8 22.8594L13.7991 23.0955Z" fill="#CA8A04"/>
<path d="M23.0491 10.4429C22.6295 11.0262 21.4464 13.0401 19.5 16.4846L15.2545 13.8873L15 13.7207L18.0134 8.77623C18.192 8.4892 18.4598 8.28086 18.817 8.15123C19.1741 8.0216 19.5312 7.97531 19.8884 8.01235C20.1027 8.03086 20.3192 8.08642 20.5379 8.17901C20.7567 8.2716 20.9442 8.36883 21.1004 8.47068C21.2567 8.57253 21.442 8.72531 21.6562 8.92901C21.8705 9.13272 22.0312 9.29244 22.1384 9.40818C22.2455 9.52392 22.4062 9.70679 22.6205 9.95679C22.8348 10.2068 22.9777 10.3688 23.0491 10.4429ZM29.9062 11.5679L31.808 10.4151L28.8616 15.5957L23.25 15.3179L25.2723 14.1235C24.9687 13.2994 24.6339 12.5309 24.2679 11.8179C23.9018 11.1049 23.5647 10.5332 23.2567 10.1026C22.9487 9.67207 22.6607 9.3017 22.3929 8.99151C22.125 8.68133 21.9152 8.46605 21.7634 8.34568L21.5357 8.16512L26.9598 8.17901C27.2366 8.15123 27.4955 8.19985 27.7366 8.32485C27.9777 8.44985 28.1518 8.58179 28.2589 8.72068L28.4062 8.92901C28.7545 9.49383 29.2545 10.3735 29.9062 11.5679Z" fill="#CA8A04"/>
<path d="M36.7366 29.5694L34.2188 34.5556C34.1116 34.8241 33.9487 35.0394 33.7299 35.2014C33.5112 35.3634 33.317 35.4583 33.1473 35.4861L32.9062 35.5417C32.2723 35.6065 31.2946 35.662 29.9732 35.7083L30.0804 37.9861L27 32.8889L29.8259 27.8611L29.9196 30.2639C31.4375 30.412 32.7009 30.4352 33.7098 30.3333C34.7188 30.2315 35.4777 30.0787 35.9866 29.875L36.7366 29.5694ZM34.9955 21L37.8348 26.0417C37.9955 26.3843 38.0513 26.7361 38.0022 27.0972C37.9531 27.4583 37.8304 27.8009 37.6339 28.125C37.5179 28.3102 37.3705 28.4815 37.192 28.6389C37.0134 28.7963 36.8437 28.9259 36.683 29.0278C36.5223 29.1296 36.3058 29.2315 36.0335 29.3333C35.7612 29.4352 35.5513 29.5093 35.404 29.5556C35.2567 29.6019 35.0268 29.6667 34.7143 29.75C34.4018 29.8333 34.1964 29.8889 34.0982 29.9167C33.7946 29.25 32.6116 27.2315 30.5491 23.8611L34.7411 21.1528L34.9955 21Z" fill="#CA8A04"/>
<path d="M21.432 21.8V20.252H24.324V29H22.596V21.8H21.432Z" fill="#CA8A04"/>
<path d="M19.5258 50.0703C19.5258 50.7663 19.2858 51.3463 18.8058 51.8103C18.3338 52.2663 17.6098 52.4943 16.6338 52.4943H15.0258V55.9863H13.9338V47.6223H16.6338C17.5778 47.6223 18.2938 47.8503 18.7818 48.3063C19.2778 48.7623 19.5258 49.3503 19.5258 50.0703ZM16.6338 51.5943C17.2418 51.5943 17.6898 51.4623 17.9778 51.1983C18.2658 50.9343 18.4098 50.5583 18.4098 50.0703C18.4098 49.0383 17.8178 48.5223 16.6338 48.5223H15.0258V51.5943H16.6338ZM21.975 48.5103V51.3063H25.023V52.2063H21.975V55.0863H25.383V55.9863H20.883V47.6103H25.383V48.5103H21.975ZM32.1833 47.6223V48.5103H29.9033V55.9863H28.8113V48.5103H26.5193V47.6223H32.1833Z" fill="#CA8A04"/>
</svg>
