<svg width="59" height="94" viewBox="0 0 59 94" fill="none" xmlns="http://www.w3.org/2000/svg">
<path d="M21.5842 45.5138L21.1894 55.526L21.1367 56.1245L10.0814 55.3355C9.44967 55.2811 8.86181 54.9954 8.31781 54.4785C7.77382 53.9616 7.36144 53.3676 7.08067 52.6965C6.88764 52.2067 6.76042 51.7079 6.699 51.2001C6.63758 50.6922 6.67268 50.1027 6.80429 49.4316C6.9359 48.7605 7.04119 48.2617 7.12016 47.9352C7.19912 47.6088 7.38776 47.0283 7.68608 46.194C7.9844 45.3596 8.15111 44.879 8.1862 44.752C9.55496 44.9697 14.021 45.2236 21.5842 45.5138ZM11.3975 29.5706L16.1355 39.882L12.2661 37.3789C11.1606 38.6849 10.1823 39.9953 9.33122 41.3103C8.48013 42.6254 7.84402 43.759 7.42286 44.7112C7.00171 45.6635 6.65513 46.5205 6.38313 47.2823C6.11114 48.0441 5.94882 48.6154 5.89617 48.9963L5.79088 49.5677L0.789666 39.8548C0.491348 39.3832 0.333414 38.8753 0.315866 38.3312C0.298318 37.787 0.350963 37.3608 0.4738 37.0525L0.684377 36.5627C1.29856 35.42 2.29881 33.7151 3.68511 31.4478L0 29.108L11.3975 29.5706Z" fill="#38BDF8"/>
<path d="M29.5774 4.7854C28.7526 5.92809 26.4275 9.8731 22.602 16.6204L14.2579 11.5327L13.7577 11.2062L19.6802 1.52057C20.0312 0.958289 20.5576 0.550185 21.2596 0.296253C21.9615 0.042322 22.6634 -0.0483679 23.3653 0.0241839C23.7865 0.0604599 24.212 0.169288 24.642 0.350667C25.0719 0.532047 25.4404 0.722496 25.7475 0.922013C26.0546 1.12153 26.4187 1.42081 26.8399 1.81984C27.261 2.21888 27.5769 2.53176 27.7875 2.75848C27.998 2.98521 28.3139 3.34343 28.7351 3.83316C29.1562 4.32288 29.437 4.6403 29.5774 4.7854ZM43.0543 6.98916L46.7921 4.73099L41.0012 14.8792L29.9722 14.335L33.9469 11.9952C33.3502 10.381 32.6922 8.87551 31.9727 7.47889C31.2532 6.08226 30.5908 4.96224 29.9854 4.11883C29.38 3.27541 28.814 2.5499 28.2876 1.94227C27.7611 1.33465 27.3488 0.912944 27.0504 0.677151L26.603 0.32346L37.2635 0.350667C37.8075 0.296253 38.3163 0.391478 38.7901 0.63634C39.264 0.881203 39.6061 1.13967 39.8167 1.41174L40.1063 1.81984C40.7906 2.92626 41.7733 4.64936 43.0543 6.98916Z" fill="#38BDF8"/>
<path d="M56.4787 42.2524L51.5301 52.0197C51.3195 52.5457 50.9993 52.9674 50.5693 53.2848C50.1394 53.6022 49.7577 53.7881 49.4243 53.8425L48.9505 53.9514C47.7046 54.0783 45.7831 54.1872 43.186 54.2779L43.3965 58.7398L37.3424 48.7549L42.8964 38.9059L43.0807 43.6127C46.0639 43.9029 48.5469 43.9483 50.5299 43.7488C52.5128 43.5493 54.0044 43.25 55.0046 42.8509L56.4787 42.2524ZM53.0568 25.4657L58.6371 35.3418C58.953 36.0129 59.0626 36.7022 58.9661 37.4096C58.8696 38.1169 58.6283 38.788 58.2423 39.4229C58.0141 39.7856 57.7246 40.1212 57.3736 40.4295C57.0227 40.7379 56.6892 40.9918 56.3734 41.1913C56.0575 41.3908 55.632 41.5904 55.0968 41.7899C54.5615 41.9894 54.1492 42.1345 53.8596 42.2252C53.5701 42.3159 53.1182 42.4428 52.504 42.6061C51.8898 42.7693 51.4862 42.8781 51.2932 42.9326C50.6966 41.6266 48.3714 37.6726 44.3178 31.0703L52.5567 25.765L53.0568 25.4657Z" fill="#38BDF8"/>
<path d="M36.3912 26.8448H28.7497V30.8644C29.0799 30.457 29.5516 30.1279 30.1648 29.8771C30.778 29.6107 31.4305 29.4775 32.1224 29.4775C33.3802 29.4775 34.4101 29.7518 35.2119 30.3003C36.0138 30.8488 36.5956 31.554 36.9572 32.4159C37.3188 33.2621 37.4997 34.1711 37.4997 35.1427C37.4997 36.9449 36.9808 38.3944 35.9431 39.4914C34.9211 40.5884 33.4588 41.1369 31.5563 41.1369C29.7639 41.1369 28.3331 40.6903 27.2639 39.797C26.1947 38.9038 25.5894 37.7363 25.4479 36.2945H28.6554C28.7969 36.9214 29.1114 37.4228 29.5988 37.7989C30.1019 38.175 30.7387 38.3631 31.5091 38.3631C32.4368 38.3631 33.1365 38.0732 33.6082 37.4933C34.0799 36.9135 34.3157 36.1456 34.3157 35.1897C34.3157 34.2181 34.072 33.4815 33.5846 32.98C33.1129 32.4629 32.4132 32.2043 31.4856 32.2043C30.8252 32.2043 30.2749 32.3689 29.8346 32.698C29.3944 33.0271 29.0799 33.4659 28.8912 34.0143H25.7309V23.9534H36.3912V26.8448Z" fill="#38BDF8"/>
<path d="M28.5488 82.4111C28.5488 83.7745 28.0771 84.9107 27.1337 85.8196C26.206 86.7129 24.7831 87.1595 22.8648 87.1595H19.7045V94H17.5583V77.6158H22.8648C24.7202 77.6158 26.1274 78.0624 27.0865 78.9557C28.0613 79.8489 28.5488 81.0007 28.5488 82.4111ZM22.8648 85.3965C24.0598 85.3965 24.9403 85.1379 25.5063 84.6208C26.0724 84.1036 26.3554 83.3671 26.3554 82.4111C26.3554 80.3896 25.1919 79.3788 22.8648 79.3788H19.7045V85.3965H22.8648Z" fill="#38BDF8"/>
<path d="M42.2067 82.4111C42.2067 83.7745 41.735 84.9107 40.7916 85.8196C39.8639 86.7129 38.441 87.1595 36.5228 87.1595H33.3624V94H31.2162V77.6158H36.5228C38.3781 77.6158 39.7853 78.0624 40.7444 78.9557C41.7193 79.8489 42.2067 81.0007 42.2067 82.4111ZM36.5228 85.3965C37.7177 85.3965 38.5982 85.1379 39.1643 84.6208C39.7303 84.1036 40.0133 83.3671 40.0133 82.4111C40.0133 80.3896 38.8498 79.3788 36.5228 79.3788H33.3624V85.3965H36.5228Z" fill="#38BDF8"/>
</svg>
