<svg width="59" height="94" viewBox="0 0 59 94" fill="none" xmlns="http://www.w3.org/2000/svg">
<path d="M21.5842 45.4343L21.1894 55.4289L21.1367 56.0265L10.0814 55.2388C9.44967 55.1845 8.86181 54.8993 8.31781 54.3833C7.77382 53.8673 7.36144 53.2743 7.08067 52.6044C6.88764 52.1155 6.76042 51.6176 6.699 51.1106C6.63758 50.6036 6.67268 50.0152 6.80429 49.3452C6.9359 48.6753 7.04119 48.1774 7.12016 47.8515C7.19912 47.5256 7.38776 46.9462 7.68608 46.1133C7.9844 45.2804 8.15111 44.8006 8.1862 44.6738C9.55496 44.8911 14.021 45.1446 21.5842 45.4343ZM11.3975 29.5189L16.1355 39.8123L12.2661 37.3136C11.1606 38.6173 10.1823 39.9255 9.33122 41.2382C8.48013 42.5509 7.84402 43.6825 7.42286 44.6331C7.00171 45.5837 6.65513 46.4392 6.38313 47.1996C6.11114 47.9601 5.94882 48.5305 5.89617 48.9107L5.79088 49.481L0.789666 39.7851C0.491348 39.3144 0.333415 38.8074 0.315866 38.2642C0.298318 37.721 0.350963 37.2955 0.4738 36.9877L0.684377 36.4988C1.29856 35.3581 2.29881 33.6562 3.68511 31.3929L0 29.0572L11.3975 29.5189Z" fill="#6D28D9"/>
<path d="M29.5774 4.77704C28.7526 5.91773 26.4275 9.85585 22.602 16.5914L14.2579 11.5126L13.7577 11.1867L19.6802 1.51791C20.0312 0.956614 20.5576 0.549223 21.2596 0.295736C21.9615 0.042248 22.6634 -0.0482834 23.3653 0.0241417C23.7865 0.0603542 24.212 0.168992 24.642 0.350055C25.0719 0.531117 25.4404 0.721233 25.7475 0.920402C26.0546 1.11957 26.4187 1.41832 26.8399 1.81666C27.261 2.215 27.5769 2.52733 27.7875 2.75366C27.998 2.97999 28.3139 3.33759 28.7351 3.82646C29.1562 4.31533 29.437 4.63219 29.5774 4.77704ZM43.0543 6.97695L46.7921 4.72272L41.0012 14.8532L29.9722 14.31L33.9469 11.9743C33.3502 10.3628 32.6922 8.86 31.9727 7.46582C31.2532 6.07164 30.5908 4.95357 29.9854 4.11163C29.38 3.26969 28.814 2.54544 28.2876 1.93888C27.7611 1.33232 27.3488 0.911349 27.0504 0.675967L26.603 0.322895L37.2635 0.350055C37.8075 0.295736 38.3163 0.390794 38.7901 0.635228C39.2639 0.879663 39.6061 1.13768 39.8167 1.40927L40.1063 1.81666C40.7906 2.92114 41.7733 4.64124 43.0543 6.97695Z" fill="#6D28D9"/>
<path d="M56.4787 42.1786L51.5301 51.9288C51.3195 52.4539 50.9993 52.8748 50.5693 53.1917C50.1394 53.5086 49.7577 53.6941 49.4243 53.7485L48.9505 53.8571C47.7046 53.9838 45.7831 54.0925 43.186 54.183L43.3965 58.6372L37.3424 48.6697L42.8964 38.8379L43.0807 43.5365C46.0639 43.8262 48.5469 43.8715 50.5299 43.6723C52.5128 43.4732 54.0044 43.1744 55.0046 42.7761L56.4787 42.1786ZM53.0568 25.4212L58.6371 35.2801C58.953 35.95 59.0626 36.638 58.9661 37.3442C58.8696 38.0503 58.6283 38.7203 58.2423 39.354C58.0141 39.7161 57.7246 40.0511 57.3736 40.3589C57.0227 40.6667 56.6892 40.9202 56.3734 41.1193C56.0575 41.3185 55.632 41.5177 55.0968 41.7168C54.5615 41.916 54.1492 42.0609 53.8596 42.1514C53.5701 42.2419 53.1182 42.3687 52.504 42.5316C51.8898 42.6946 51.4862 42.8032 51.2932 42.8575C50.6966 41.5539 48.3714 37.6067 44.3178 31.016L52.5567 25.72L53.0568 25.4212Z" fill="#6D28D9"/>
<path d="M33.7497 28.2293C33.5925 27.5722 33.3173 27.0794 32.9242 26.7509C32.5469 26.4224 31.9966 26.2581 31.2733 26.2581C30.1884 26.2581 29.3865 26.6962 28.8677 27.5722C28.3645 28.4326 28.1051 29.8406 28.0894 31.7961C28.4667 31.1703 29.017 30.6853 29.7403 30.3412C30.4636 29.9814 31.2497 29.8015 32.0988 29.8015C33.1208 29.8015 34.0248 30.0205 34.811 30.4585C35.5972 30.8965 36.2104 31.5379 36.6506 32.3827C37.0909 33.2118 37.311 34.213 37.311 35.3863C37.311 36.497 37.083 37.4904 36.627 38.3665C36.1868 39.2269 35.5343 39.8996 34.6695 40.3845C33.8047 40.8695 32.7749 41.1119 31.5799 41.1119C29.9447 41.1119 28.6554 40.7521 27.712 40.0325C26.7844 39.3129 26.1318 38.3117 25.7545 37.0289C25.3929 35.7305 25.212 34.1348 25.212 32.2419C25.212 29.3791 25.7073 27.2202 26.6979 25.7654C27.6884 24.2948 29.2529 23.5596 31.3912 23.5596C33.0422 23.5596 34.3236 24.0054 35.2355 24.8971C36.1475 25.7888 36.6742 26.8995 36.8157 28.2293H33.7497ZM31.3441 32.5C30.5107 32.5 29.8111 32.7425 29.245 33.2275C28.679 33.7124 28.396 34.4164 28.396 35.3394C28.396 36.2624 28.6554 36.9898 29.1743 37.5217C29.7089 38.0536 30.4557 38.3195 31.4148 38.3195C32.2639 38.3195 32.9321 38.0614 33.4195 37.5452C33.9227 37.0289 34.1742 36.3328 34.1742 35.4567C34.1742 34.5494 33.9305 33.8298 33.4431 33.2979C32.9714 32.766 32.2717 32.5 31.3441 32.5Z" fill="#6D28D9"/>
<path d="M28.5488 82.2671C28.5488 83.6281 28.0771 84.7623 27.1337 85.6697C26.206 86.5614 24.7831 87.0072 22.8648 87.0072H19.7045V93.8357H17.5583V77.4801H22.8648C24.7202 77.4801 26.1274 77.926 27.0865 78.8177C28.0613 79.7094 28.5488 80.8592 28.5488 82.2671ZM22.8648 85.2473C24.0598 85.2473 24.9403 84.9892 25.5063 84.4729C26.0724 83.9567 26.3554 83.2214 26.3554 82.2671C26.3554 80.2491 25.1919 79.2401 22.8648 79.2401H19.7045V85.2473H22.8648Z" fill="#6D28D9"/>
<path d="M36.4284 94C35.3435 94 34.3687 93.8123 33.5039 93.4368C32.6549 93.0457 31.9867 92.5138 31.4992 91.8412C31.0118 91.1528 30.7602 90.3628 30.7445 89.4711H33.0322C33.1108 90.2377 33.4253 90.8869 33.9756 91.4188C34.5417 91.935 35.3593 92.1931 36.4284 92.1931C37.4504 92.1931 38.2523 91.9428 38.8341 91.4422C39.4315 90.926 39.7303 90.269 39.7303 89.4711C39.7303 88.8454 39.5573 88.3369 39.2114 87.9458C38.8655 87.5547 38.4331 87.2575 37.9143 87.0542C37.3954 86.8508 36.6957 86.6318 35.8152 86.3971C34.7303 86.1155 33.8577 85.8339 33.1973 85.5523C32.5527 85.2707 31.9945 84.8327 31.5228 84.2383C31.0668 83.6281 30.8389 82.8147 30.8389 81.7978C30.8389 80.9061 31.0668 80.1161 31.5228 79.4278C31.9788 78.7395 32.6156 78.2076 33.4332 77.8321C34.2665 77.4567 35.2177 77.2689 36.2869 77.2689C37.8278 77.2689 39.0856 77.6522 40.0605 78.4188C41.051 79.1853 41.6092 80.2021 41.735 81.4693H39.3765C39.2979 80.8435 38.9677 80.296 38.386 79.8267C37.8042 79.3417 37.0338 79.0993 36.0747 79.0993C35.1784 79.0993 34.4473 79.3339 33.8813 79.8032C33.3153 80.2569 33.0322 80.8983 33.0322 81.7274C33.0322 82.3219 33.1973 82.8068 33.5275 83.1823C33.8734 83.5577 34.2901 83.8472 34.7775 84.0505C35.2806 84.2383 35.9803 84.4573 36.8765 84.7076C37.9614 85.0048 38.8341 85.302 39.4944 85.5993C40.1548 85.8809 40.7208 86.3267 41.1925 86.9368C41.6642 87.5313 41.9001 88.3448 41.9001 89.3773C41.9001 90.1751 41.6878 90.926 41.2633 91.63C40.8388 92.3339 40.2098 92.9049 39.3765 93.343C38.5432 93.781 37.5605 94 36.4284 94Z" fill="#6D28D9"/>
</svg>
