<svg width="48" height="70" viewBox="0 0 48 70" fill="none" xmlns="http://www.w3.org/2000/svg">
<rect x="0.789062" y="0.75" width="46.5195" height="68.4861" rx="8.25" stroke="#DC2626" stroke-width="0.5"/>
<path d="M20.0212 32.2344L19.8203 37.3455L19.7935 37.651L14.1685 37.2483C13.8471 37.2205 13.548 37.0747 13.2712 36.8108C12.9944 36.5469 12.7846 36.2436 12.6417 35.901C12.5435 35.651 12.4788 35.3964 12.4475 35.1372C12.4163 34.8779 12.4342 34.577 12.5011 34.2344C12.5681 33.8918 12.6217 33.6372 12.6618 33.4705C12.702 33.3038 12.798 33.0075 12.9498 32.5816C13.1016 32.1557 13.1864 31.9103 13.2042 31.8455C13.9007 31.9566 16.173 32.0862 20.0212 32.2344ZM14.8382 24.0955L17.2489 29.3594L15.2801 28.0816C14.7176 28.7483 14.2199 29.4172 13.7868 30.0885C13.3538 30.7598 13.0301 31.3385 12.8158 31.8247C12.6016 32.3108 12.4252 32.7483 12.2868 33.1372C12.1484 33.526 12.0658 33.8177 12.0391 34.0122L11.9855 34.3038L9.44085 29.3455C9.28906 29.1047 9.20871 28.8455 9.19978 28.5677C9.19085 28.2899 9.21763 28.0723 9.28013 27.9149L9.38728 27.6649C9.69978 27.0816 10.2087 26.2112 10.9141 25.0538L9.03906 23.8594L14.8382 24.0955Z" fill="#DC2626"/>
<path d="M24.0882 11.4429C23.6685 12.0262 22.4855 14.0401 20.5391 17.4846L16.2935 14.8873L16.0391 14.7207L19.0525 9.77623C19.231 9.4892 19.4989 9.28086 19.856 9.15123C20.2132 9.0216 20.5703 8.97531 20.9275 9.01235C21.1417 9.03086 21.3583 9.08642 21.577 9.17901C21.7958 9.2716 21.9833 9.36883 22.1395 9.47068C22.2958 9.57253 22.481 9.72531 22.6953 9.92901C22.9096 10.1327 23.0703 10.2924 23.1775 10.4082C23.2846 10.5239 23.4453 10.7068 23.6596 10.9568C23.8739 11.2068 24.0167 11.3688 24.0882 11.4429ZM30.9453 12.5679L32.8471 11.4151L29.9007 16.5957L24.2891 16.3179L26.3114 15.1235C26.0078 14.2994 25.673 13.5309 25.3069 12.8179C24.9408 12.1049 24.6038 11.5332 24.2958 11.1026C23.9877 10.6721 23.6998 10.3017 23.4319 9.99151C23.1641 9.68133 22.9542 9.46605 22.8025 9.34568L22.5748 9.16512L27.9989 9.17901C28.2757 9.15123 28.5346 9.19985 28.7757 9.32485C29.0167 9.44985 29.1908 9.58179 29.298 9.72068L29.4453 9.92901C29.7935 10.4938 30.2935 11.3735 30.9453 12.5679Z" fill="#DC2626"/>
<path d="M37.7757 30.5694L35.2578 35.5556C35.1507 35.8241 34.9877 36.0394 34.769 36.2014C34.5502 36.3634 34.356 36.4583 34.1864 36.4861L33.9453 36.5417C33.3114 36.6065 32.3337 36.662 31.0123 36.7083L31.1194 38.9861L28.0391 33.8889L30.865 28.8611L30.9587 31.2639C32.4766 31.412 33.74 31.4352 34.7489 31.3333C35.7578 31.2315 36.5167 31.0787 37.0257 30.875L37.7757 30.5694ZM36.0346 22L38.8739 27.0417C39.0346 27.3843 39.0904 27.7361 39.0413 28.0972C38.9922 28.4583 38.8694 28.8009 38.673 29.125C38.5569 29.3102 38.4096 29.4815 38.231 29.6389C38.0525 29.7963 37.8828 29.9259 37.7221 30.0278C37.5614 30.1296 37.3449 30.2315 37.0725 30.3333C36.8002 30.4352 36.5904 30.5093 36.4431 30.5556C36.2958 30.6019 36.0658 30.6667 35.7533 30.75C35.4408 30.8333 35.2355 30.8889 35.1373 30.9167C34.8337 30.25 33.6507 28.2315 31.5882 24.8611L35.7801 22.1528L36.0346 22Z" fill="#DC2626"/>
<path d="M21.6991 23.556C21.7391 22.756 22.0191 22.14 22.5391 21.708C23.0671 21.268 23.7591 21.048 24.6151 21.048C25.1991 21.048 25.6991 21.152 26.1151 21.36C26.5311 21.56 26.8431 21.836 27.0511 22.188C27.2671 22.532 27.3751 22.924 27.3751 23.364C27.3751 23.868 27.2431 24.296 26.9791 24.648C26.7231 24.992 26.4151 25.224 26.0551 25.344V25.392C26.5191 25.536 26.8791 25.792 27.1351 26.16C27.3991 26.528 27.5311 27 27.5311 27.576C27.5311 28.056 27.4191 28.484 27.1951 28.86C26.9791 29.236 26.6551 29.532 26.2231 29.748C25.7991 29.956 25.2871 30.06 24.6871 30.06C23.7831 30.06 23.0471 29.832 22.4791 29.376C21.9111 28.92 21.6111 28.248 21.5791 27.36H23.2111C23.2271 27.752 23.3591 28.068 23.6071 28.308C23.8631 28.54 24.2111 28.656 24.6511 28.656C25.0591 28.656 25.3711 28.544 25.5871 28.32C25.8111 28.088 25.9231 27.792 25.9231 27.432C25.9231 26.952 25.7711 26.608 25.4671 26.4C25.1631 26.192 24.6911 26.088 24.0511 26.088H23.7031V24.708H24.0511C25.1871 24.708 25.7551 24.328 25.7551 23.568C25.7551 23.224 25.6511 22.956 25.4431 22.764C25.2431 22.572 24.9511 22.476 24.5671 22.476C24.1911 22.476 23.8991 22.58 23.6911 22.788C23.4911 22.988 23.3751 23.244 23.3431 23.556H21.6991Z" fill="#DC2626"/>
<path d="M18.0648 51.0703C18.0648 51.7663 17.8248 52.3463 17.3448 52.8103C16.8728 53.2663 16.1488 53.4943 15.1728 53.4943H13.5648V56.9863H12.4728V48.6223H15.1728C16.1168 48.6223 16.8328 48.8503 17.3208 49.3063C17.8168 49.7623 18.0648 50.3503 18.0648 51.0703ZM15.1728 52.5943C15.7808 52.5943 16.2288 52.4623 16.5168 52.1983C16.8048 51.9343 16.9488 51.5583 16.9488 51.0703C16.9488 50.0383 16.3568 49.5223 15.1728 49.5223H13.5648V52.5943H15.1728ZM26.334 48.6223L23.178 56.9863H21.918L18.762 48.6223H19.926L22.554 55.8343L25.182 48.6223H26.334ZM27.1234 52.7983C27.1234 51.9823 27.3074 51.2503 27.6754 50.6023C28.0434 49.9463 28.5434 49.4343 29.1754 49.0663C29.8154 48.6983 30.5234 48.5143 31.2994 48.5143C32.2114 48.5143 33.0074 48.7343 33.6874 49.1743C34.3674 49.6143 34.8634 50.2383 35.1754 51.0463H33.8674C33.6354 50.5423 33.2994 50.1543 32.8594 49.8823C32.4274 49.6103 31.9074 49.4743 31.2994 49.4743C30.7154 49.4743 30.1914 49.6103 29.7274 49.8823C29.2634 50.1543 28.8994 50.5423 28.6354 51.0463C28.3714 51.5423 28.2394 52.1263 28.2394 52.7983C28.2394 53.4623 28.3714 54.0463 28.6354 54.5503C28.8994 55.0463 29.2634 55.4303 29.7274 55.7023C30.1914 55.9743 30.7154 56.1103 31.2994 56.1103C31.9074 56.1103 32.4274 55.9783 32.8594 55.7143C33.2994 55.4423 33.6354 55.0543 33.8674 54.5503H35.1754C34.8634 55.3503 34.3674 55.9703 33.6874 56.4103C33.0074 56.8423 32.2114 57.0583 31.2994 57.0583C30.5234 57.0583 29.8154 56.8783 29.1754 56.5183C28.5434 56.1503 28.0434 55.6423 27.6754 54.9943C27.3074 54.3463 27.1234 53.6143 27.1234 52.7983Z" fill="#DC2626"/>
</svg>
