<svg width="59" height="94" viewBox="0 0 59 94" fill="none" xmlns="http://www.w3.org/2000/svg">
<path d="M21.5842 45.4456L21.1894 55.4428L21.1367 56.0404L10.0814 55.2526C9.44967 55.1983 8.86181 54.913 8.31781 54.3969C7.77382 53.8807 7.36144 53.2876 7.08067 52.6175C6.88764 52.1285 6.76042 51.6305 6.699 51.1234C6.63758 50.6163 6.67268 50.0277 6.80429 49.3576C6.9359 48.6875 7.04119 48.1894 7.12016 47.8634C7.19912 47.5374 7.38776 46.9579 7.68608 46.1248C7.9844 45.2917 8.15111 44.8118 8.1862 44.685C9.55496 44.9023 14.021 45.1559 21.5842 45.4456ZM11.3975 29.5262L16.1355 39.8222L12.2661 37.3229C11.1606 38.6269 10.1823 39.9354 9.33122 41.2485C8.48013 42.5615 7.84402 43.6934 7.42286 44.6442C7.00171 45.5951 6.65513 46.4508 6.38313 47.2114C6.11114 47.9721 5.94882 48.5426 5.89617 48.9229L5.79088 49.4934L0.789666 39.7951C0.491348 39.3242 0.333414 38.8171 0.315866 38.2738C0.298318 37.7304 0.350963 37.3048 0.4738 36.9969L0.684377 36.508C1.29856 35.367 2.29881 33.6646 3.68511 31.4007L0 29.0644L11.3975 29.5262Z" fill="#DC2626"/>
<path d="M29.5774 4.77823C28.7526 5.91921 26.4275 9.85831 22.602 16.5955L14.2579 11.5154L13.7577 11.1895L19.6802 1.51829C20.0312 0.956853 20.5576 0.549361 21.2596 0.29581C21.9615 0.0422585 22.6634 -0.0482954 23.3653 0.0241477C23.7865 0.0603693 24.212 0.169034 24.642 0.350142C25.0719 0.53125 25.4404 0.721413 25.7475 0.920632C26.0546 1.11985 26.4187 1.41868 26.8399 1.81712C27.261 2.21555 27.5769 2.52796 27.7875 2.75435C27.998 2.98073 28.3139 3.33842 28.7351 3.82741C29.1562 4.3164 29.437 4.63334 29.5774 4.77823ZM43.0543 6.97869L46.7921 4.7239L41.0012 14.8569L29.9722 14.3136L33.9469 11.9773C33.3502 10.3654 32.6922 8.86221 31.9727 7.46768C31.2532 6.07315 30.5908 4.95481 29.9854 4.11266C29.38 3.27051 28.814 2.54608 28.2876 1.93936C27.7611 1.33265 27.3488 0.911576 27.0504 0.676136L26.603 0.322976L37.2635 0.350142C37.8075 0.29581 38.3163 0.390891 38.7901 0.635387C39.264 0.879883 39.6061 1.13796 39.8167 1.40962L40.1063 1.81712C40.7906 2.92187 41.7733 4.6424 43.0543 6.97869Z" fill="#DC2626"/>
<path d="M56.4787 42.1891L51.5301 51.9417C51.3195 52.467 50.9993 52.888 50.5693 53.205C50.1394 53.5219 49.7577 53.7076 49.4243 53.7619L48.9505 53.8705C47.7046 53.9973 45.7831 54.106 43.186 54.1965L43.3965 58.6518L37.3424 48.6818L42.8964 38.8476L43.0807 43.5474C46.0639 43.8372 48.5469 43.8824 50.5299 43.6832C52.5128 43.484 54.0044 43.1852 55.0046 42.7867L56.4787 42.1891ZM53.0568 25.4275L58.6371 35.2889C58.953 35.959 59.0626 36.6472 58.9661 37.3535C58.8696 38.0598 58.6283 38.7299 58.2423 39.3638C58.0141 39.726 57.7246 40.0611 57.3736 40.369C57.0227 40.6768 56.6892 40.9304 56.3734 41.1296C56.0575 41.3288 55.632 41.528 55.0968 41.7273C54.5615 41.9265 54.1492 42.0714 53.8596 42.1619C53.5701 42.2525 53.1182 42.3792 52.504 42.5422C51.8898 42.7052 51.4862 42.8139 51.2932 42.8682C50.6966 41.5643 48.3714 37.6161 44.3178 31.0238L52.5567 25.7264L53.0568 25.4275Z" fill="#DC2626"/>
<path d="M24.8819 28.471C24.9605 26.9063 25.5108 25.7014 26.5328 24.8564C27.5705 23.9958 28.9306 23.5655 30.6129 23.5655C31.7607 23.5655 32.7434 23.7689 33.561 24.1757C34.3786 24.5669 34.9918 25.1068 35.4006 25.7953C35.8251 26.4681 36.0374 27.2349 36.0374 28.0955C36.0374 29.0813 35.778 29.9184 35.2591 30.6069C34.756 31.2798 34.1506 31.7336 33.4431 31.9683V32.0622C34.355 32.3438 35.0626 32.8446 35.5657 33.5644C36.0846 34.2842 36.344 35.2074 36.344 36.334C36.344 37.2729 36.1239 38.11 35.6836 38.8455C35.2591 39.5809 34.6223 40.1599 33.7733 40.5824C32.94 40.9892 31.9337 41.1926 30.7544 41.1926C28.9777 41.1926 27.5312 40.7467 26.4149 39.8548C25.2985 38.9628 24.7089 37.6484 24.646 35.9115H27.8535C27.885 36.6783 28.1444 37.2963 28.6318 37.7658C29.135 38.2196 29.8189 38.4465 30.6837 38.4465C31.4856 38.4465 32.0988 38.2274 32.5233 37.7892C32.9635 37.3355 33.1837 36.7565 33.1837 36.0524C33.1837 35.1135 32.8849 34.4406 32.2874 34.0338C31.69 33.627 30.7623 33.4235 29.5044 33.4235H28.8205V30.7243H29.5044C31.7371 30.7243 32.8535 29.981 32.8535 28.4945C32.8535 27.8217 32.6491 27.2975 32.2403 26.9219C31.8472 26.5464 31.2733 26.3586 30.5186 26.3586C29.7796 26.3586 29.2057 26.562 28.7969 26.9689C28.4038 27.36 28.1758 27.8608 28.113 28.471H24.8819Z" fill="#DC2626"/>
<path d="M17.7391 82.2877C17.7391 83.649 17.2674 84.7835 16.324 85.6911C15.3964 86.583 13.9734 87.0289 12.0552 87.0289H8.89484V93.8592H6.74863V77.4995H12.0552C13.9105 77.4995 15.3177 77.9454 16.2768 78.8374C17.2517 79.7293 17.7391 80.8794 17.7391 82.2877ZM12.0552 85.2686C13.2501 85.2686 14.1306 85.0104 14.6967 84.494C15.2627 83.9776 15.5457 83.2422 15.5457 82.2877C15.5457 80.2691 14.3822 79.2598 12.0552 79.2598H8.89484V85.2686H12.0552Z" fill="#DC2626"/>
<path d="M33.9913 77.4995L27.7886 93.8592H25.3122L19.1094 77.4995H21.3971L26.5622 91.6059L31.7272 77.4995H33.9913Z" fill="#DC2626"/>
<path d="M35.5428 85.6676C35.5428 84.0715 35.9044 82.6398 36.6277 81.3723C37.3509 80.0892 38.3336 79.0877 39.5758 78.3679C40.8336 77.6481 42.2251 77.2882 43.7503 77.2882C45.5427 77.2882 47.1071 77.7185 48.4436 78.5792C49.7801 79.4398 50.7549 80.6603 51.3681 82.2407H48.7974C48.3414 81.2549 47.681 80.496 46.8163 79.964C45.9672 79.432 44.9452 79.166 43.7503 79.166C42.6025 79.166 41.5726 79.432 40.6607 79.964C39.7487 80.496 39.0333 81.2549 38.5145 82.2407C37.9956 83.2109 37.7362 84.3532 37.7362 85.6676C37.7362 86.9664 37.9956 88.1086 38.5145 89.0944C39.0333 90.0646 39.7487 90.8157 40.6607 91.3477C41.5726 91.8797 42.6025 92.1457 43.7503 92.1457C44.9452 92.1457 45.9672 91.8876 46.8163 91.3712C47.681 90.8392 48.3414 90.0802 48.7974 89.0944H51.3681C50.7549 90.6592 49.7801 91.8719 48.4436 92.7325C47.1071 93.5775 45.5427 94 43.7503 94C42.2251 94 40.8336 93.6479 39.5758 92.9438C38.3336 92.224 37.3509 91.2304 36.6277 89.9629C35.9044 88.6954 35.5428 87.2637 35.5428 85.6676Z" fill="#DC2626"/>
</svg>
