<svg width="341" height="349" viewBox="0 0 341 349" fill="none" xmlns="http://www.w3.org/2000/svg">
<g opacity="0.8">
<path d="M332.897 231.295C316.183 182.557 272.978 146.788 262.928 93.1684C256.454 37.1004 184.458 14.1684 145.336 43.7944C83.347 90.7374 136.025 121.621 14.4847 232.685C-15.5267 260.108 8.00168 310.554 23.301 326.214C34.5663 337.744 64.4624 354.192 90.915 346.892C141.91 332.819 170.367 320.531 193.221 318.069C250.829 311.864 340.029 315.327 332.897 231.295Z" fill="#F4F4F4"/>
<path d="M259.6 80.9154C259.59 93.9868 256.548 106.862 250.733 118.439C244.918 130.017 236.502 139.954 226.206 147.4C215.91 154.847 204.039 159.581 191.608 161.199C179.177 162.818 166.555 161.271 154.821 156.693C149.318 154.544 144.07 151.741 139.181 148.34C129.837 141.862 121.944 133.354 116.043 123.398V123.389C109.749 112.741 105.907 100.715 104.82 88.2559C103.732 75.7969 105.428 63.2445 109.774 51.5848C114.12 39.9251 120.998 29.4757 129.868 21.0576C138.738 12.6396 149.357 6.48221 160.893 3.06923C172.428 -0.343745 184.564 -0.919338 196.349 1.38768C208.133 3.6947 219.245 8.82148 228.81 16.3652C238.375 23.909 246.133 33.6642 251.475 44.8644C256.817 56.0647 259.597 68.4048 259.597 80.9154H259.6Z" fill="white"/>
<path opacity="0.2" d="M259.6 80.9154C259.59 93.9868 256.548 106.862 250.733 118.439C244.918 130.017 236.502 139.954 226.206 147.4C215.91 154.847 204.039 159.581 191.608 161.199C179.177 162.818 166.555 161.271 154.821 156.693C149.318 154.544 144.07 151.741 139.181 148.34C129.837 141.862 121.944 133.354 116.043 123.398V123.389C109.749 112.741 105.907 100.715 104.82 88.2559C103.732 75.7969 105.428 63.2445 109.774 51.5848C114.12 39.9251 120.998 29.4757 129.868 21.0576C138.738 12.6396 149.357 6.48221 160.893 3.06923C172.428 -0.343745 184.564 -0.919338 196.349 1.38768C208.133 3.6947 219.245 8.82148 228.81 16.3652C238.375 23.909 246.133 33.6642 251.475 44.8644C256.817 56.0647 259.597 68.4048 259.597 80.9154H259.6Z" fill="#65A30D"/>
<path d="M169.115 32.1674C169.115 32.1674 163.424 27.8742 161.835 17.7448C160.605 9.9012 167.659 14.8483 167.659 14.8483C167.659 14.8483 166.826 9.18986 170.796 9.66948C174.766 10.1491 177.103 16.0581 177.103 16.0581" fill="#0C0C0C"/>
<path d="M191.28 9.89453C191.28 9.89453 210.974 11.6711 204.418 39.6074L202.682 39.7663L199.152 40.0888" fill="#0C0C0C"/>
<path d="M172.633 68.8827C172.719 68.871 173.678 85.4734 192.162 84.0256C204.959 83.0251 209.522 68.8593 209.815 68.8593C208.353 68.6056 206.91 68.2406 205.499 67.7671C203.484 66.6373 200.991 65.4616 200.341 61.3795C199.967 59.0254 200.6 46.9865 200.407 44.6055L180.764 49.1807C181.038 54.2104 182.959 65.8667 176.226 67.9297C175.106 68.271 173.9 68.5845 172.633 68.8827Z" fill="#FED7AA"/>
<path opacity="0.52" d="M180.489 63.1676C180.796 62.1328 180.994 61.0661 181.079 59.9863C181.295 57.5225 181.252 55.0414 180.951 52.5873C184.944 52.0257 188.705 50.3064 191.807 47.625C192.172 49.0306 194.178 55.1695 193.623 56.5078C192.573 59.0325 187.639 63.1676 180.489 63.1676Z" fill="#0C0C0C"/>
<path d="M184.87 60.0487C192.604 59.1577 201.775 53.8514 201.693 42.875L201.619 32.971C201.533 21.9946 195.944 13.1415 186.038 13.2232C176.133 13.3041 168.797 22.2623 168.879 33.2387L168.913 37.6235C168.949 39.1282 169.084 40.6287 169.316 42.1142C169.902 46.0464 170.807 52.0254 173.452 56.0258C175.951 59.8044 179.929 60.6181 184.87 60.0487Z" fill="#FED7AA"/>
<path d="M172.254 39.6626C172.928 39.6626 173.474 39.0928 173.474 38.3899C173.474 37.687 172.928 37.1172 172.254 37.1172C171.58 37.1172 171.034 37.687 171.034 38.3899C171.034 39.0928 171.58 39.6626 172.254 39.6626Z" fill="#0C0C0C"/>
<path d="M183.419 38.7212C184.093 38.7212 184.639 38.1514 184.639 37.4485C184.639 36.7456 184.093 36.1758 183.419 36.1758C182.746 36.1758 182.199 36.7456 182.199 37.4485C182.199 38.1514 182.746 38.7212 183.419 38.7212Z" fill="#0C0C0C"/>
<path d="M201.103 46.2251C204.116 46.2009 206.526 42.8211 206.505 39.6803C206.483 36.5394 204.027 34.8302 201.017 34.8518L199.482 36.9696L198.515 46.2467L201.103 46.2251Z" fill="#FED7AA"/>
<path d="M198.009 41.2419C198.009 41.2419 196.687 25.737 192.156 24.8748C189.138 24.3009 181.937 28.9049 175.16 27.7067C172.196 27.1822 169.408 28.0049 169.151 29.4671C169.049 30.0455 167.046 21.8031 171.547 15.4181C175.13 10.3345 187.152 8.66308 192.667 10.1864C207.936 14.4077 201.651 35.5207 201.651 35.5207L201.079 40.8881L198.009 41.2419Z" fill="#0C0C0C"/>
<g opacity="0.52">
<path d="M179.009 46.7507H178.99C178.02 46.7615 176.392 46.6663 176.384 45.9091C176.378 45.2804 177.956 38.4921 178.135 37.7206C178.151 37.6542 178.191 37.5968 178.247 37.5612C178.303 37.5256 178.37 37.5146 178.434 37.5307C178.497 37.5467 178.552 37.5886 178.587 37.6469C178.621 37.7053 178.631 37.7754 178.616 37.8419C177.914 40.8489 176.874 45.4762 176.878 45.9037C177.544 46.191 178.267 46.3047 178.984 46.2352C179.048 46.2338 179.111 46.2586 179.158 46.3043C179.205 46.35 179.233 46.4129 179.236 46.4799C179.239 46.5468 179.217 46.6124 179.175 46.6628C179.133 46.7132 179.073 46.7453 179.009 46.7507Z" fill="#0C0C0C"/>
</g>
<path d="M175.557 31.485C174.545 31.2157 173.482 31.2358 172.48 31.5434C171.986 31.691 171.517 31.9153 171.088 32.2089C170.663 32.4968 170.274 32.8396 169.931 33.2293C169.871 33.2896 169.837 33.3723 169.836 33.459C169.834 33.5458 169.866 33.6295 169.924 33.6918C169.982 33.7541 170.061 33.7898 170.144 33.7912C170.227 33.7925 170.308 33.7594 170.367 33.699L170.385 33.6819C170.707 33.3554 171.066 33.0723 171.455 32.8394C171.837 32.6082 172.251 32.439 172.682 32.3374C173.535 32.1267 174.426 32.1555 175.264 32.4209L175.296 32.4317C175.355 32.4516 175.417 32.4591 175.479 32.4539C175.541 32.4488 175.601 32.431 175.656 32.4015C175.711 32.3721 175.76 32.3316 175.801 32.2824C175.841 32.2331 175.871 32.1761 175.89 32.1146C175.909 32.0531 175.917 31.9883 175.912 31.9239C175.907 31.8594 175.89 31.7967 175.861 31.7391C175.833 31.6816 175.794 31.6304 175.747 31.5885C175.7 31.5466 175.645 31.5148 175.586 31.4949L175.557 31.485Z" fill="#0C0C0C"/>
<path d="M182.776 31.8419C183.556 31.4296 184.427 31.2399 185.301 31.2923C185.742 31.3135 186.177 31.4044 186.592 31.5617C187.013 31.7203 187.414 31.934 187.784 32.1976L187.805 32.2111C187.873 32.2496 187.953 32.2604 188.028 32.2412C188.104 32.2221 188.17 32.1743 188.214 32.1073C188.257 32.0403 188.276 31.9587 188.265 31.8783C188.255 31.798 188.216 31.7245 188.157 31.6722C187.754 31.3511 187.314 31.084 186.848 30.8773C186.375 30.6667 185.876 30.531 185.365 30.4749C184.327 30.354 183.277 30.5272 182.325 30.9761C182.269 31.0032 182.218 31.0415 182.176 31.089C182.134 31.1364 182.102 31.192 182.08 31.2526C182.059 31.3132 182.049 31.3776 182.052 31.4421C182.054 31.5066 182.069 31.57 182.095 31.6286C182.121 31.6872 182.157 31.74 182.203 31.7838C182.248 31.8276 182.302 31.8616 182.36 31.8839C182.418 31.9062 182.479 31.9164 182.541 31.9138C182.603 31.9112 182.664 31.8959 182.72 31.8689L182.742 31.8581L182.776 31.8419Z" fill="#0C0C0C"/>
<path d="M181.989 15.2706C182.607 11.8349 181.294 8.6949 179.057 8.25717C176.82 7.81943 174.507 10.2497 173.889 13.6854C173.271 17.1211 174.584 20.2611 176.821 20.6988C179.057 21.1366 181.371 18.7063 181.989 15.2706Z" fill="#0C0C0C"/>
<path d="M234.99 107.916C234.223 116.448 233.689 129.938 233.345 141.597C222.793 151.295 209.916 157.822 196.086 160.481C182.257 163.14 167.995 161.832 154.823 156.695C154.402 149.411 153.739 138.112 153.12 127.891C152.499 117.688 151.923 108.553 151.682 105.554C150.71 93.6439 147.378 85.812 149.427 79.2105C150.04 77.2573 151.077 75.4778 152.456 74.0102C157.596 68.3428 170.851 67.9297 176.179 67.9297C176.274 67.9297 175.103 80.8003 192.596 79.9381C205.446 79.3093 205.99 67.9297 205.99 67.9297C205.99 67.9297 212.351 68.3608 216.585 68.9536C223.514 69.9326 228.085 72.3845 231.719 76.1748C235.101 79.7135 237.167 83.5325 234.99 107.916Z" fill="#65A30D"/>
<path d="M176.508 93.0226L153.12 127.88V127.889L140.604 146.535C140.173 147.171 139.698 147.775 139.184 148.34C129.84 141.862 121.947 133.354 116.046 123.398V123.389L125.514 76.1642L148.153 81.104L149.428 79.2089V79.1999L152.114 75.2031L176.508 93.0226Z" fill="#65A30D"/>
<path d="M142.625 106.732L138.357 134.52L138.777 134.59L143.045 106.802L142.625 106.732Z" fill="#0C0C0C"/>
<path d="M152.464 72.85C152.629 72.6407 152.751 72.3984 152.823 72.1381C152.895 71.8777 152.916 71.6047 152.884 71.3357C152.852 71.0668 152.767 70.8075 152.636 70.5737C152.504 70.3399 152.329 70.1365 152.119 69.9759C151.704 69.678 151.196 69.5562 150.699 69.6353C150.201 69.7144 149.751 69.9885 149.44 70.4017L148.498 71.6977L151.252 60.0711C151.326 59.8256 151.35 59.5672 151.324 59.3116C151.298 59.056 151.222 58.8086 151.101 58.5847C150.98 58.3609 150.816 58.1651 150.62 58.0096C150.424 57.854 150.2 57.7419 149.96 57.6802C149.721 57.6185 149.473 57.6084 149.23 57.6506C148.987 57.6928 148.754 57.7863 148.547 57.9255C148.34 58.0647 148.163 58.2466 148.025 58.46C147.888 58.6735 147.794 58.9139 147.749 59.1666L146.602 64.0086C146.59 64.0012 146.577 63.9951 146.565 63.9906C146.584 63.4747 146.411 62.971 146.083 62.585C145.754 62.199 145.295 61.9608 144.802 61.9204C144.351 61.8936 143.904 62.0302 143.539 62.3071C143.173 62.584 142.911 62.9843 142.795 63.4401L142.618 64.093C142.596 64.0966 142.575 64.1045 142.556 64.1164C142.577 63.6483 142.44 63.1873 142.168 62.8143C141.896 62.4414 141.507 62.1802 141.069 62.0766C140.575 61.979 140.063 62.0809 139.638 62.3616C139.213 62.6424 138.905 63.0811 138.778 63.5891L138.341 65.1986C138.334 65.1763 138.322 65.1558 138.306 65.1384C138.291 65.121 138.272 65.1069 138.251 65.097C138.23 65.0872 138.208 65.0817 138.185 65.081C138.162 65.0802 138.14 65.0842 138.118 65.0927C138.029 64.678 137.815 64.3041 137.507 64.0257C137.199 63.7472 136.814 63.5788 136.408 63.5451C135.957 63.5181 135.511 63.6545 135.145 63.9313C134.78 64.2081 134.517 64.6082 134.402 65.0639L132.02 73.7868C131.497 75.7135 131.538 77.7591 132.137 79.6615C132.736 81.5638 133.865 83.2362 135.381 84.4641L140.261 88.416L152.464 72.85Z" fill="#FED7AA"/>
<g opacity="0.2">
<path d="M145.267 68.9068C145.263 68.8852 145.263 68.863 145.267 68.8413L146.329 64.1251C146.334 64.1011 146.344 64.0785 146.358 64.0585C146.372 64.0386 146.389 64.0216 146.409 64.0086C146.429 63.9957 146.451 63.9869 146.475 63.9829C146.498 63.979 146.522 63.9798 146.545 63.9854C146.568 63.991 146.589 64.0013 146.608 64.0156C146.628 64.0299 146.644 64.0481 146.656 64.069C146.669 64.0898 146.677 64.1131 146.681 64.1374C146.685 64.1616 146.684 64.1864 146.679 64.2104L145.616 68.9275C145.606 68.9699 145.582 69.0073 145.549 69.0332C145.515 69.0592 145.474 69.072 145.432 69.0696C145.39 69.0671 145.35 69.0495 145.319 69.0198C145.289 68.9901 145.269 68.9502 145.263 68.9068H145.267Z" fill="#0C0C0C"/>
<path d="M141.606 68.0005C141.603 67.9782 141.603 67.9554 141.606 67.9331L142.467 64.2327C142.473 64.2088 142.483 64.1862 142.497 64.1664C142.511 64.1465 142.529 64.1297 142.549 64.1169C142.569 64.1042 142.592 64.0957 142.615 64.092C142.638 64.0883 142.662 64.0894 142.685 64.0953C142.708 64.1012 142.73 64.1117 142.749 64.1264C142.768 64.141 142.784 64.1594 142.796 64.1805C142.808 64.2016 142.816 64.225 142.82 64.2493C142.823 64.2737 142.822 64.2986 142.817 64.3225L141.956 68.0229C141.946 68.0653 141.922 68.1027 141.888 68.1286C141.854 68.1545 141.813 68.1672 141.771 68.1647C141.729 68.1621 141.689 68.1444 141.659 68.1146C141.628 68.0848 141.608 68.0447 141.603 68.0014L141.606 68.0005Z" fill="#0C0C0C"/>
<path d="M137.633 67.0492C137.63 67.0286 137.63 67.0077 137.633 66.9872L138.001 65.2295C138.013 65.1828 138.041 65.1426 138.081 65.1174C138.12 65.0922 138.168 65.0839 138.213 65.0942C138.258 65.1045 138.298 65.1326 138.324 65.1727C138.35 65.2128 138.36 65.2618 138.352 65.3094L137.984 67.0671C137.975 67.1107 137.952 67.1495 137.918 67.1766C137.884 67.2037 137.842 67.2175 137.8 67.2153C137.757 67.2131 137.717 67.1953 137.685 67.1648C137.654 67.1344 137.634 67.0934 137.63 67.0492H137.633Z" fill="#0C0C0C"/>
</g>
<path d="M135.562 106.062H150.644C151.033 106.062 151.418 105.972 151.77 105.799C152.122 105.625 152.432 105.372 152.679 105.058C152.926 104.744 153.103 104.376 153.198 103.982C153.293 103.588 153.302 103.177 153.226 102.779L147.259 71.4887C147.14 70.8614 146.814 70.2973 146.339 69.8936C145.863 69.49 145.268 69.272 144.655 69.2774L129.957 69.4068C129.572 69.4102 129.192 69.5016 128.845 69.6746C128.497 69.8475 128.191 70.0978 127.946 70.4079C127.701 70.718 127.525 71.0802 127.429 71.4691C127.333 71.8581 127.32 72.2642 127.391 72.659L132.974 103.82C133.086 104.45 133.407 105.019 133.88 105.429C134.352 105.838 134.948 106.063 135.562 106.062Z" fill="#262626"/>
<path d="M133.444 88.6374C133.675 88.2759 134.011 88.0013 134.403 87.854C134.795 87.7068 135.222 87.6945 135.621 87.8191C135.621 87.7938 135.628 87.769 135.639 87.7468C135.651 87.7246 135.668 87.7058 135.688 87.6919C135.708 87.678 135.731 87.6695 135.756 87.6671C135.78 87.6647 135.804 87.6685 135.827 87.6781L134.656 86.4593C134.286 86.0896 134.065 85.5874 134.036 85.0539C134.007 84.5205 134.174 83.9956 134.502 83.5852C134.807 83.2295 135.223 82.9976 135.677 82.9302C136.13 82.8629 136.591 82.9644 136.98 83.217C136.98 83.1972 136.995 83.1801 137.002 83.1613L136.519 82.6592C136.188 82.3263 135.977 81.8842 135.922 81.4075C135.867 80.9309 135.972 80.4491 136.218 80.0438C136.378 79.7929 136.589 79.5822 136.836 79.4267C137.083 79.2712 137.36 79.1748 137.647 79.1446C137.934 79.1144 138.224 79.151 138.496 79.2518C138.768 79.3526 139.015 79.5151 139.22 79.7276L140.332 80.8854C140.337 80.8782 140.332 80.8683 140.341 80.862C140.349 80.8557 140.361 80.8557 140.37 80.8485C140.135 80.4599 140.033 79.9997 140.081 79.543C140.129 79.0862 140.324 78.6599 140.634 78.3337C141.386 77.4355 142.727 77.8747 143.446 78.6238L150.233 85.5594L150.026 85.236L149.065 82.6808C148.868 82.1869 148.858 81.6336 149.038 81.1326C149.217 80.6316 149.572 80.2203 150.03 79.9818C150.271 79.8673 150.532 79.8052 150.796 79.7993C151.061 79.7934 151.324 79.8438 151.569 79.9475C151.814 80.0511 152.037 80.2058 152.223 80.4021C152.409 80.5984 152.555 80.8322 152.652 81.0892L158.27 95.5855C158.27 95.5855 146.467 104.498 143.636 101.552L133.746 91.2591C133.413 90.9259 133.201 90.4826 133.146 90.0046C133.091 89.5266 133.196 89.0434 133.444 88.6374Z" fill="#FED7AA"/>
<g opacity="0.2">
<path d="M146.845 87.4183C146.812 87.4526 146.767 87.4717 146.72 87.4717C146.673 87.4717 146.627 87.4526 146.594 87.4183L140.345 81.1214C140.327 81.1043 140.313 81.0838 140.303 81.0611C140.294 81.0383 140.288 81.0138 140.288 80.9889C140.287 80.964 140.292 80.9393 140.3 80.9161C140.309 80.8929 140.322 80.8718 140.339 80.8539C140.355 80.836 140.375 80.8218 140.397 80.812C140.419 80.8022 140.443 80.7971 140.466 80.7969C140.49 80.7967 140.514 80.8015 140.536 80.8109C140.558 80.8204 140.578 80.8343 140.595 80.8519L146.843 87.148C146.861 87.1652 146.875 87.1859 146.885 87.2088C146.895 87.2318 146.9 87.2565 146.9 87.2816C146.901 87.3067 146.896 87.3316 146.888 87.355C146.879 87.3783 146.866 87.3995 146.849 87.4174L146.845 87.4183Z" fill="#0C0C0C"/>
<path d="M144.261 90.3727C144.227 90.4069 144.182 90.4261 144.135 90.4261C144.088 90.4261 144.043 90.4069 144.009 90.3727L137.037 83.3455C137.02 83.328 137.006 83.3071 136.996 83.2839C136.987 83.2608 136.982 83.2359 136.982 83.2108C136.982 83.1856 136.987 83.1608 136.996 83.1376C137.006 83.1145 137.02 83.0935 137.037 83.076C137.071 83.0423 137.117 83.0234 137.164 83.0234C137.211 83.0234 137.256 83.0423 137.291 83.076L144.263 90.1023C144.28 90.1199 144.294 90.1409 144.303 90.164C144.313 90.1871 144.317 90.212 144.317 90.2371C144.317 90.2621 144.313 90.287 144.303 90.3101C144.294 90.3333 144.28 90.3542 144.263 90.3718L144.261 90.3727Z" fill="#0C0C0C"/>
<path d="M141.478 93.5812C141.445 93.6154 141.399 93.6346 141.352 93.6346C141.306 93.6346 141.26 93.6154 141.227 93.5812L135.664 87.9758C135.63 87.9406 135.611 87.893 135.611 87.8433C135.611 87.7937 135.63 87.746 135.664 87.7109C135.68 87.6927 135.7 87.6783 135.722 87.6682C135.744 87.6582 135.768 87.6528 135.792 87.6524C135.816 87.652 135.84 87.6565 135.862 87.6658C135.884 87.675 135.905 87.6888 135.922 87.7064L141.484 93.3109C141.502 93.3281 141.516 93.3487 141.526 93.3717C141.535 93.3946 141.541 93.4194 141.541 93.4445C141.542 93.4696 141.537 93.4945 141.528 93.5178C141.519 93.5412 141.506 93.5624 141.489 93.5803L141.478 93.5812Z" fill="#0C0C0C"/>
</g>
<path d="M211.041 87.3789L187.118 121.553L158.488 88.1226L139.048 104.96L176.836 153.479C177.677 154.607 178.661 155.61 179.763 156.459C186.219 161.381 196.556 159.464 201.272 152.726L201.588 152.277L235.087 105.707L211.041 87.3789Z" fill="#65A30D"/>
<path d="M188.327 159.439C185.22 159.486 182.179 158.505 179.638 156.638C178.519 155.777 177.519 154.761 176.665 153.615L138.75 104.935L158.515 87.8164L158.651 87.9844L187.101 122.964L207.22 92.4608L207.571 92.7123L187.136 123.693L158.462 88.4334L139.346 104.995L176.998 153.343C178.62 155.552 180.81 157.233 183.314 158.191C185.817 159.148 188.53 159.343 191.135 158.751C195.092 158.116 198.662 155.912 201.101 152.6L201.416 152.151L227.593 116.045L227.932 116.314L201.758 152.42L201.445 152.869C198.94 156.275 195.273 158.541 191.207 159.196C190.255 159.361 189.292 159.442 188.327 159.439Z" fill="#0C0C0C"/>
<path d="M187.284 123.196L186.952 123.473L190.883 128.62L191.215 128.344L187.284 123.196Z" fill="#0C0C0C"/>
<path d="M176.994 49.0057C180.19 49.0971 183.324 48.075 185.901 46.101C185.99 46.033 186.096 45.993 186.206 45.9856C186.317 45.9783 186.427 46.0039 186.524 46.0595C186.621 46.1151 186.701 46.1984 186.754 46.2996C186.807 46.4008 186.831 46.5158 186.824 46.631C186.685 48.6069 185.889 52.2543 181.956 52.874C179.416 53.2746 177.492 51.3059 176.51 49.9847C176.442 49.8932 176.401 49.7834 176.39 49.6681C176.38 49.5529 176.402 49.437 176.453 49.3341C176.503 49.2312 176.581 49.1456 176.677 49.0874C176.773 49.0292 176.883 49.0009 176.994 49.0057Z" fill="white"/>
<path d="M88.9548 331.073C132.008 331.073 166.91 294.142 166.91 248.585C166.91 203.029 132.008 166.098 88.9548 166.098C45.9016 166.098 11 203.029 11 248.585C11 294.142 45.9016 331.073 88.9548 331.073Z" fill="white"/>
<path opacity="0.3" d="M166.911 248.581C166.912 264.896 162.34 280.844 153.774 294.409C145.208 307.974 133.033 318.547 118.789 324.791C104.545 331.034 88.8704 332.668 73.7486 329.485C58.6267 326.302 44.7364 318.446 33.8342 306.91C22.932 295.373 15.5075 280.675 12.4996 264.674C9.49171 248.673 11.0355 232.088 16.9359 217.015C22.8362 201.942 32.828 189.059 45.6477 179.996C58.4675 170.932 73.5394 166.094 88.9574 166.094C99.2052 166.054 109.359 168.16 118.834 172.291C128.309 176.422 136.918 182.496 144.164 190.164C151.411 197.832 157.151 206.941 161.055 216.967C164.959 226.993 166.95 237.737 166.911 248.581Z" fill="#65A30D"/>
<path d="M157.447 288.015C152.091 298.39 144.699 307.433 135.769 314.538L116.128 291.383L94.8396 266.28L112.877 248.496L119.972 256.274L130.836 268.166L147.192 261.169L157.447 288.015Z" fill="#474747"/>
<path d="M134.462 300.593C134.482 300.593 134.502 300.589 134.521 300.582C134.567 300.565 134.604 300.53 134.625 300.484C134.646 300.439 134.65 300.386 134.634 300.338L122.264 262.547C122.247 262.499 122.214 262.459 122.171 262.437C122.127 262.415 122.078 262.412 122.032 262.428C121.986 262.445 121.949 262.48 121.928 262.526C121.907 262.572 121.904 262.624 121.92 262.673L134.29 300.466C134.303 300.503 134.327 300.535 134.357 300.558C134.388 300.581 134.424 300.593 134.462 300.593Z" fill="#0C0C0C"/>
<path d="M54.2153 201.787C54.2153 201.787 55.0641 226.631 70.7313 227.772L73.3821 195.012L54.2153 201.787Z" fill="#0A0A0A"/>
<path d="M57.2335 232.849C62.3606 232.849 66.5169 228.451 66.5169 223.026C66.5169 217.601 62.3606 213.203 57.2335 213.203C52.1065 213.203 47.9502 217.601 47.9502 223.026C47.9502 228.451 52.1065 232.849 57.2335 232.849Z" fill="#0A0A0A"/>
<path d="M93.5574 239.312C93.4725 239.3 92.5575 255.41 74.8719 254.005C62.6279 253.034 58.2625 239.289 57.9807 239.289C59.3798 239.043 60.7599 238.689 62.1101 238.23C64.0378 237.133 66.4229 235.992 67.0451 232.032C67.4024 229.749 66.7955 218.068 66.9823 215.758L85.7798 220.195C85.5167 225.073 83.679 236.385 90.1206 238.387C91.1909 238.718 92.3453 239.023 93.5574 239.312Z" fill="#FED7AA"/>
<path opacity="0.5" d="M86.0412 233.763C85.7467 232.76 85.5572 231.725 85.4759 230.677C85.2693 228.287 85.3106 225.879 85.599 223.498C81.7787 222.952 78.1798 221.282 75.2114 218.68C74.8625 220.044 72.9433 226.002 73.4747 227.302C74.4797 229.751 79.199 233.763 86.0412 233.763Z" fill="#0C0C0C"/>
<path d="M83.0972 229.414C75.6532 229.515 66.3477 225.54 65.1942 214.96L64.1536 205.413C63.0001 194.832 67.3162 185.615 76.7311 184.465C86.1461 183.316 94.118 191.034 95.2715 201.614L95.7324 205.841C96.1747 209.901 96.3775 229.236 83.0972 229.414Z" fill="#FED7AA"/>
<path d="M93.034 205.556C93.6786 205.556 94.2011 205.003 94.2011 204.321C94.2011 203.639 93.6786 203.086 93.034 203.086C92.3895 203.086 91.8669 203.639 91.8669 204.321C91.8669 205.003 92.3895 205.556 93.034 205.556Z" fill="#0C0C0C"/>
<path d="M81.1026 207.001C81.7472 207.001 82.2698 206.448 82.2698 205.766C82.2698 205.084 81.7472 204.531 81.1026 204.531C80.4581 204.531 79.9355 205.084 79.9355 205.766C79.9355 206.448 80.4581 207.001 81.1026 207.001Z" fill="#0C0C0C"/>
<path opacity="0.5" d="M87.0241 215.173H87.0428C87.4242 215.124 87.8028 215.052 88.1768 214.958C88.7353 214.814 89.4721 214.561 89.4143 214.032C89.349 213.429 87.0793 207.117 86.8204 206.398C86.81 206.366 86.7936 206.336 86.7722 206.311C86.7508 206.286 86.7248 206.265 86.6957 206.251C86.6667 206.236 86.6352 206.228 86.6031 206.227C86.571 206.225 86.539 206.231 86.5089 206.243C86.4789 206.255 86.4515 206.273 86.4283 206.297C86.4051 206.32 86.3866 206.349 86.3739 206.38C86.3612 206.411 86.3546 206.445 86.3545 206.479C86.3543 206.513 86.3607 206.546 86.3731 206.578C87.3416 209.267 88.8949 213.684 88.939 214.09C88.3417 214.446 87.6721 214.645 86.9868 214.67C86.9251 214.677 86.8686 214.71 86.8291 214.76C86.7896 214.811 86.7701 214.876 86.7748 214.941C86.7796 215.007 86.8081 215.067 86.8544 215.111C86.9008 215.155 86.9613 215.178 87.0233 215.175L87.0241 215.173Z" fill="#0C0C0C"/>
<path opacity="0.5" d="M85.3407 219.573C86.8698 219.48 88.357 219.009 89.6823 218.197C89.7117 218.182 89.738 218.161 89.7594 218.135C89.7808 218.109 89.797 218.078 89.807 218.045C89.8169 218.013 89.8204 217.978 89.8173 217.944C89.8141 217.909 89.8043 217.876 89.7886 217.846C89.7729 217.816 89.7514 217.789 89.7257 217.768C89.6999 217.747 89.6703 217.731 89.6388 217.723C89.6072 217.714 89.5743 217.713 89.5421 217.718C89.5099 217.723 89.4791 217.735 89.4515 217.754C86.5885 219.43 83.8494 219.527 81.5347 218.035C81.4879 218.002 81.4395 217.972 81.3895 217.945C81.332 217.921 81.2678 217.921 81.2104 217.945C81.153 217.97 81.1069 218.017 81.0817 218.077C81.0565 218.137 81.0543 218.205 81.0754 218.267C81.0966 218.328 81.1395 218.379 81.1952 218.408C81.2138 218.418 81.2435 218.437 81.286 218.464C82.5032 219.252 83.915 219.638 85.3407 219.573Z" fill="#0C0C0C"/>
<path d="M56.496 208.131L64.9322 207.153C71.4256 204.934 74.1214 193.528 74.1214 193.528C74.1214 193.528 79.9357 200.525 97.168 197.33C97.168 197.33 96.5009 173.823 70.2941 177.132C61.1644 178.289 54.2891 187.969 54.2161 200.63C54.1669 209.502 56.496 208.131 56.496 208.131Z" fill="#0A0A0A"/>
<path d="M66.1306 218.115C63.2693 218.465 60.5973 215.511 60.2671 212.482C59.9369 209.453 62.0742 207.502 64.9355 207.152L66.6331 209.001L68.593 217.815L66.1306 218.115Z" fill="#FED7AA"/>
<path d="M88.903 201.242C89.747 200.748 90.701 200.504 91.665 200.534C92.1412 200.545 92.613 200.632 93.0647 200.791C93.5129 200.948 93.9407 201.163 94.3379 201.433C94.3799 201.458 94.4105 201.501 94.4231 201.55C94.4357 201.6 94.4292 201.652 94.405 201.697C94.3808 201.741 94.3409 201.774 94.2941 201.787C94.2473 201.8 94.1974 201.793 94.1554 201.768L94.1427 201.761C93.766 201.524 93.3628 201.339 92.9425 201.208C92.5256 201.077 92.0924 201.012 91.6574 201.018C90.7913 201.023 89.9421 201.271 89.1959 201.736L89.178 201.748C89.1159 201.785 89.0427 201.795 88.9737 201.776C88.9048 201.757 88.8456 201.71 88.8085 201.646C88.7714 201.581 88.7594 201.504 88.775 201.431C88.7905 201.357 88.8325 201.293 88.892 201.251L88.903 201.242Z" fill="#0C0C0C"/>
<path d="M81.3446 202.711C80.5203 202.435 79.6419 202.395 78.7982 202.594C78.3731 202.691 77.9645 202.856 77.5861 203.083C77.2037 203.309 76.8498 203.585 76.5328 203.905L76.5226 203.915C76.487 203.95 76.4398 203.968 76.3913 203.967C76.3428 203.965 76.2971 203.942 76.2641 203.905C76.2311 203.867 76.2136 203.817 76.2155 203.766C76.2173 203.715 76.2383 203.666 76.2739 203.631C76.6033 203.275 76.9741 202.963 77.3773 202.705C77.7839 202.443 78.2254 202.247 78.687 202.123C79.6207 201.868 80.6018 201.882 81.5288 202.163C81.5967 202.186 81.6531 202.237 81.6862 202.304C81.7193 202.371 81.7265 202.449 81.7062 202.522C81.6859 202.594 81.6397 202.655 81.5775 202.693C81.5152 202.73 81.4417 202.74 81.3726 202.72H81.365L81.3446 202.711Z" fill="#0C0C0C"/>
<path opacity="0.52" d="M85.5005 221.969C85.7774 221.957 86.0527 221.92 86.3238 221.859C86.386 221.845 86.4404 221.805 86.4751 221.749C86.5098 221.693 86.5219 221.624 86.5089 221.559C86.4958 221.493 86.4586 221.435 86.4054 221.399C86.3523 221.362 86.2875 221.349 86.2254 221.363C85.8025 221.494 85.3581 221.528 84.9219 221.462C84.4856 221.397 84.0677 221.233 83.6959 220.983C83.6467 220.94 83.5836 220.92 83.5204 220.927C83.4572 220.934 83.3991 220.967 83.359 221.019C83.3188 221.071 83.2998 221.138 83.3061 221.205C83.3125 221.271 83.3437 221.333 83.3929 221.375C84.0097 221.825 84.7543 222.034 85.5005 221.969Z" fill="#0C0C0C"/>
<path opacity="0.1" d="M79.4861 215.372C80.7135 215.327 81.683 214.517 81.6515 213.564C81.62 212.612 80.5994 211.876 79.3719 211.922C78.1445 211.967 77.175 212.776 77.2065 213.729C77.238 214.682 78.2586 215.417 79.4861 215.372Z" fill="#0C0C0C"/>
<path opacity="0.1" d="M92.6242 212.737C92.6582 213.688 93.6784 214.423 94.9058 214.379C95.1179 214.372 95.3287 214.342 95.5348 214.289C95.6799 213.171 95.7691 212.091 95.8174 211.089C95.4872 210.97 95.1389 210.917 94.7904 210.932C93.563 210.973 92.5937 211.782 92.6242 212.737Z" fill="#0C0C0C"/>
<path d="M119.972 256.275C119.921 261.897 118.097 268.606 117.443 276.708C117.273 278.872 116.764 284.423 116.128 291.384C115.135 302.368 113.793 316.882 112.91 327.085C99.2659 331.738 84.6744 332.322 70.7371 328.775C56.7999 325.227 44.0558 317.685 33.9041 306.976C33.5222 296.557 33.0205 285.968 32.2914 279.088C30.7211 264.089 31.1455 254.604 33.4118 250.167C37.1211 242.919 43.7248 240.71 50.6332 239.713C54.8526 239.111 61.1923 238.68 61.1923 238.68C61.1923 238.68 61.727 250.176 74.5363 250.814C91.9707 251.685 90.8078 238.68 90.8919 238.68C97.2154 238.68 109.201 240.278 113.793 243.593C118.666 247.095 120.031 251.254 119.972 256.275Z" fill="#474747"/>
<path d="M70.4598 322.268C72.8669 322.268 75.2311 321.593 77.3118 320.313C79.3924 319.032 81.1152 317.19 82.3048 314.976L107.012 266.256L86.4351 252.34L70.711 280.514L53.7146 249.438L31.6458 266.572L58.4968 314.749C59.6585 317.005 61.369 318.892 63.4511 320.213C65.5331 321.535 67.9112 322.244 70.3392 322.267L70.4598 322.268Z" fill="#474747"/>
<path d="M116.55 292.129C116.596 292.129 116.64 292.111 116.674 292.077C116.707 292.044 116.728 291.998 116.731 291.95L117.449 281.585C117.452 281.534 117.436 281.483 117.404 281.445C117.372 281.406 117.327 281.383 117.279 281.379C117.231 281.376 117.183 281.394 117.147 281.427C117.11 281.461 117.088 281.508 117.084 281.559L116.366 291.924C116.363 291.976 116.379 292.026 116.411 292.064C116.443 292.103 116.488 292.127 116.536 292.13L116.55 292.129Z" fill="#0C0C0C"/>
<path d="M129.033 268.135H113.79C113.396 268.135 113.008 268.043 112.652 267.865C112.296 267.687 111.982 267.427 111.732 267.105C111.482 266.783 111.303 266.407 111.208 266.003C111.112 265.599 111.102 265.177 111.179 264.769L117.212 232.693C117.332 232.05 117.661 231.472 118.142 231.058C118.622 230.644 119.223 230.421 119.843 230.426L134.697 230.558C135.086 230.561 135.47 230.655 135.821 230.832C136.172 231.01 136.482 231.266 136.729 231.584C136.977 231.902 137.155 232.273 137.252 232.672C137.349 233.071 137.362 233.487 137.291 233.892L131.647 265.836C131.533 266.481 131.209 267.065 130.732 267.484C130.255 267.904 129.654 268.134 129.033 268.135Z" fill="#262626"/>
<path d="M117.289 250.271C117.522 249.9 117.862 249.618 118.259 249.467C118.655 249.316 119.086 249.304 119.49 249.432C119.492 249.394 119.506 249.357 119.528 249.328C119.55 249.305 119.578 249.29 119.608 249.283C119.638 249.275 119.669 249.277 119.698 249.287L118.515 248.038C118.14 247.659 117.916 247.143 117.887 246.596C117.858 246.048 118.027 245.51 118.359 245.089C118.668 244.725 119.089 244.487 119.547 244.418C120.005 244.349 120.471 244.453 120.864 244.712C120.864 244.691 120.879 244.674 120.885 244.654L120.398 244.14C120.063 243.799 119.85 243.345 119.794 242.857C119.739 242.368 119.845 241.874 120.094 241.459C120.255 241.202 120.469 240.985 120.718 240.826C120.968 240.667 121.248 240.568 121.538 240.537C121.829 240.506 122.122 240.543 122.397 240.647C122.671 240.75 122.921 240.917 123.128 241.135L124.252 242.321C124.257 242.314 124.252 242.304 124.261 242.298C124.27 242.291 124.281 242.29 124.29 242.283C124.051 241.885 123.948 241.412 123.996 240.942C124.045 240.473 124.243 240.036 124.558 239.701C125.322 238.781 126.673 239.231 127.401 239.998L134.26 247.108L134.051 246.777L133.08 244.157C132.881 243.651 132.871 243.084 133.052 242.57C133.233 242.057 133.592 241.635 134.055 241.391C134.299 241.273 134.562 241.209 134.83 241.203C135.097 241.197 135.363 241.249 135.611 241.355C135.859 241.461 136.084 241.62 136.272 241.821C136.46 242.023 136.608 242.262 136.705 242.526L142.385 257.387C142.385 257.387 130.453 266.523 127.592 263.503L117.594 252.952C117.258 252.61 117.045 252.157 116.99 251.669C116.934 251.18 117.04 250.686 117.289 250.271Z" fill="#FED7AA"/>
<g opacity="0.2">
<path d="M130.837 249.025C130.802 249.06 130.757 249.08 130.709 249.08C130.662 249.08 130.616 249.06 130.582 249.025L124.265 242.57C124.23 242.534 124.211 242.485 124.21 242.434C124.209 242.383 124.228 242.333 124.262 242.297C124.295 242.26 124.342 242.239 124.39 242.238C124.438 242.238 124.485 242.257 124.52 242.293L130.837 248.748C130.87 248.784 130.888 248.832 130.888 248.883C130.888 248.933 130.87 248.982 130.837 249.018V249.025Z" fill="#0C0C0C"/>
<path d="M128.22 252.052C128.186 252.088 128.14 252.107 128.092 252.107C128.045 252.107 127.999 252.088 127.965 252.052L120.916 244.848C120.882 244.813 120.863 244.764 120.863 244.714C120.863 244.663 120.882 244.615 120.916 244.579C120.95 244.544 120.995 244.524 121.042 244.523C121.089 244.522 121.135 244.54 121.17 244.574L128.221 251.778C128.254 251.814 128.272 251.862 128.272 251.912C128.272 251.963 128.254 252.011 128.221 252.047L128.22 252.052Z" fill="#0C0C0C"/>
<path d="M125.41 255.345C125.376 255.381 125.33 255.4 125.283 255.4C125.235 255.4 125.189 255.381 125.155 255.345L119.531 249.597C119.497 249.561 119.477 249.512 119.476 249.461C119.475 249.41 119.494 249.361 119.528 249.324C119.562 249.287 119.608 249.266 119.656 249.266C119.705 249.265 119.751 249.285 119.786 249.32L125.409 255.069C125.443 255.104 125.462 255.153 125.462 255.203C125.462 255.254 125.443 255.302 125.409 255.338L125.41 255.345Z" fill="#0C0C0C"/>
</g>
<path d="M157.582 287.76C157.532 287.85 157.49 287.931 157.448 288.02C152.696 297.225 146.336 305.39 138.705 312.082L122.468 262.468L144.334 253.441L157.582 287.76Z" fill="#474747"/>
<path d="M89.7996 254.612L102.867 263.449L109.958 258.348C110.341 258.084 110.627 257.688 110.766 257.227C110.905 256.766 110.889 256.268 110.722 255.818C110.562 255.417 110.285 255.081 109.931 254.858C109.578 254.635 109.166 254.538 108.757 254.58C108.759 254.545 108.75 254.51 108.73 254.48C108.722 254.467 108.718 254.453 108.705 254.444C108.699 254.436 108.692 254.43 108.684 254.426C108.676 254.418 108.667 254.412 108.657 254.408C108.634 254.397 108.61 254.391 108.584 254.39L109.926 253.43C110.353 253.137 110.658 252.684 110.781 252.162C110.904 251.64 110.835 251.088 110.588 250.617C110.354 250.206 109.99 249.895 109.561 249.74C109.132 249.584 108.664 249.593 108.241 249.766C108.245 249.742 108.245 249.717 108.241 249.693L108.786 249.303C109.169 249.039 109.453 248.643 109.591 248.183C109.729 247.722 109.712 247.226 109.544 246.777C109.351 246.288 108.987 245.898 108.527 245.689C108.068 245.479 107.55 245.466 107.082 245.653C107.074 245.644 107.065 245.63 107.057 245.621L111.145 242.896C111.555 242.623 111.845 242.19 111.952 241.691C112.06 241.191 111.975 240.668 111.718 240.234C111.46 239.801 111.05 239.494 110.579 239.38C110.107 239.267 109.612 239.356 109.202 239.629L99.3808 246.172L100.275 244.802C100.555 244.352 100.663 243.806 100.578 243.275C100.493 242.744 100.22 242.267 99.8146 241.94C99.6003 241.78 99.3574 241.667 99.1007 241.609C98.844 241.552 98.5789 241.55 98.3214 241.604C98.0639 241.658 97.8196 241.766 97.6032 241.924C97.3868 242.081 97.2029 242.283 97.0628 242.518L89.7996 254.612Z" fill="#FED7AA"/>
<g opacity="0.2">
<path d="M102.976 248.551C102.998 248.547 103.018 248.539 103.036 248.527L107.036 245.928C107.075 245.9 107.101 245.858 107.111 245.81C107.12 245.762 107.112 245.712 107.088 245.67C107.063 245.628 107.025 245.597 106.98 245.585C106.935 245.572 106.887 245.578 106.846 245.602L102.846 248.199C102.809 248.223 102.782 248.259 102.769 248.302C102.755 248.345 102.757 248.391 102.772 248.433C102.788 248.475 102.817 248.51 102.854 248.531C102.891 248.553 102.935 248.56 102.976 248.551Z" fill="#0C0C0C"/>
<path d="M104.97 251.982C104.992 251.977 105.013 251.969 105.031 251.956L108.16 249.89C108.18 249.877 108.198 249.86 108.212 249.839C108.225 249.818 108.235 249.795 108.241 249.771C108.246 249.746 108.247 249.721 108.243 249.696C108.239 249.671 108.23 249.647 108.218 249.625C108.205 249.604 108.189 249.586 108.169 249.571C108.15 249.556 108.128 249.546 108.104 249.54C108.081 249.534 108.057 249.534 108.034 249.538C108.01 249.542 107.988 249.551 107.967 249.564L104.838 251.63C104.801 251.654 104.774 251.69 104.76 251.733C104.747 251.776 104.748 251.823 104.764 251.865C104.779 251.907 104.809 251.942 104.847 251.964C104.885 251.985 104.928 251.992 104.97 251.982Z" fill="#0C0C0C"/>
<path d="M107.11 255.708C107.13 255.703 107.149 255.696 107.167 255.684L108.666 254.745C108.708 254.719 108.738 254.677 108.75 254.627C108.762 254.578 108.755 254.525 108.731 254.481C108.706 254.437 108.666 254.406 108.619 254.393C108.572 254.38 108.523 254.388 108.481 254.413L106.982 255.354C106.94 255.38 106.91 255.422 106.898 255.471C106.886 255.521 106.893 255.573 106.918 255.617C106.937 255.651 106.966 255.678 107 255.694C107.035 255.711 107.073 255.715 107.11 255.708Z" fill="#0C0C0C"/>
</g>
<path d="M70.4597 322.457C72.8983 322.454 75.2928 321.769 77.4007 320.472C79.5085 319.174 81.2548 317.31 82.4626 315.068L107.17 266.344C107.191 266.301 107.197 266.251 107.185 266.205C107.174 266.158 107.146 266.117 107.108 266.091L86.5334 252.179C86.513 252.165 86.49 252.155 86.4659 252.151C86.4418 252.147 86.4171 252.148 86.3934 252.154C86.3695 252.16 86.3471 252.171 86.3274 252.186C86.3077 252.202 86.2911 252.221 86.2788 252.244L70.7118 280.136L59.0518 259.036C59.0273 258.992 58.9874 258.96 58.9408 258.947C58.8941 258.934 58.8446 258.942 58.8031 258.967C58.7615 258.993 58.7314 259.036 58.7193 259.085C58.7072 259.134 58.7141 259.187 58.7386 259.231L70.5539 280.607C70.5697 280.636 70.5925 280.66 70.6199 280.677C70.6473 280.693 70.6784 280.702 70.7101 280.702C70.7412 280.702 70.7719 280.694 70.7992 280.679C70.8266 280.663 70.8497 280.64 70.8662 280.612L86.4952 252.61L106.771 266.322L82.1443 314.886C80.9682 317.068 79.268 318.882 77.2159 320.145C75.1638 321.408 72.8327 322.074 70.4588 322.076H70.3374C67.942 322.053 65.596 321.352 63.5419 320.048C61.4878 318.744 59.7999 316.883 58.6528 314.658L34.6063 271.277C34.5948 271.254 34.5791 271.233 34.5601 271.217C34.541 271.201 34.519 271.189 34.4954 271.181C34.4718 271.174 34.4471 271.172 34.4228 271.176C34.3984 271.179 34.375 271.187 34.3538 271.2C34.3326 271.213 34.3142 271.231 34.2996 271.252C34.285 271.273 34.2745 271.297 34.2688 271.322C34.2632 271.347 34.2624 271.373 34.2665 271.399C34.2707 271.424 34.2797 271.449 34.2931 271.471L58.3371 314.844C59.5151 317.127 61.2478 319.037 63.3563 320.375C65.4649 321.714 67.8728 322.433 70.3315 322.457H70.4597Z" fill="#0C0C0C"/>
<path d="M64.8787 291.624C64.9109 291.624 64.9426 291.616 64.9705 291.599C64.9984 291.582 65.0215 291.557 65.0375 291.527L70.8687 280.608C70.8925 280.563 70.8986 280.511 70.8857 280.461C70.8728 280.412 70.842 280.37 70.8 280.345C70.758 280.32 70.7083 280.314 70.6618 280.327C70.6153 280.341 70.5759 280.374 70.5521 280.418L64.7209 291.341C64.6973 291.385 64.6913 291.438 64.7042 291.487C64.717 291.536 64.7478 291.578 64.7896 291.603C64.8172 291.618 64.8478 291.625 64.8787 291.624Z" fill="#0C0C0C"/>
<path d="M341 240.138C341.018 252.167 338.214 264.018 332.835 274.655V274.664C324.762 290.675 311.356 303.048 295.145 309.448C278.933 315.848 261.039 315.831 244.839 309.402C228.638 302.973 215.253 290.575 207.207 274.549C199.162 258.522 197.014 239.976 201.168 222.41C205.323 204.843 215.493 189.472 229.758 179.197C244.024 168.921 261.398 164.453 278.603 166.634C295.808 168.816 311.654 177.496 323.149 191.037C334.644 204.579 340.994 222.045 341 240.138Z" fill="white"/>
<path opacity="0.2" d="M341 240.138C341.018 252.167 338.214 264.018 332.835 274.655V274.664C324.762 290.675 311.356 303.048 295.145 309.448C278.933 315.848 261.039 315.831 244.839 309.402C228.638 302.973 215.253 290.575 207.207 274.549C199.162 258.522 197.014 239.976 201.168 222.41C205.323 204.843 215.493 189.472 229.758 179.197C244.024 168.921 261.398 164.453 278.603 166.634C295.808 168.816 311.654 177.496 323.149 191.037C334.644 204.579 340.994 222.045 341 240.138Z" fill="#4D7C0F"/>
<path d="M304.184 192.551C304.184 192.551 306.077 203.139 308.81 206.728C316.692 217.057 320.029 229.362 314.14 236.727C308.25 244.092 265.969 249.401 261.059 234.727C256.929 222.373 262.56 220.296 262.784 209.656C262.886 204.842 263.516 194.696 263.516 194.696" fill="#0A0A0A"/>
<path d="M270.042 229.179C270.115 229.169 270.93 243.3 286.655 242.068C297.541 241.216 301.422 229.159 301.671 229.159C300.427 228.943 299.2 228.633 298 228.23C296.286 227.268 294.165 226.267 293.613 222.792C293.294 220.79 293.835 210.542 293.668 208.512L276.959 212.406C277.192 216.686 278.826 226.608 273.098 228.365C272.146 228.658 271.119 228.925 270.042 229.179Z" fill="#FED7AA"/>
<path opacity="0.5" d="M276.725 224.316C276.986 223.435 277.154 222.527 277.227 221.608C277.411 219.511 277.374 217.4 277.118 215.311C280.514 214.833 283.713 213.371 286.353 211.09C286.663 212.286 288.37 217.513 287.902 218.651C287.004 220.799 282.807 224.316 276.725 224.316Z" fill="#0C0C0C"/>
<path d="M279.499 220.887C286.116 220.742 294.273 216.966 294.997 207.654L295.651 199.251C296.375 189.939 292.278 181.992 283.88 181.28C275.483 180.568 268.617 187.584 267.893 196.896L267.603 200.617C267.324 204.187 267.692 221.144 279.499 220.887Z" fill="#FED7AA"/>
<path d="M270.082 200.58C270.655 200.58 271.12 200.095 271.12 199.497C271.12 198.899 270.655 198.414 270.082 198.414C269.509 198.414 269.045 198.899 269.045 199.497C269.045 200.095 269.509 200.58 270.082 200.58Z" fill="#0C0C0C"/>
<path d="M280.711 201.229C281.284 201.229 281.749 200.744 281.749 200.146C281.749 199.547 281.284 199.062 280.711 199.062C280.138 199.062 279.674 199.547 279.674 200.146C279.674 200.744 280.138 201.229 280.711 201.229Z" fill="#0C0C0C"/>
<path opacity="0.5" d="M275.606 208.515H275.589C275.249 208.484 274.91 208.433 274.575 208.362C274.074 208.254 273.413 208.055 273.449 207.589C273.49 207.059 275.328 201.452 275.537 200.814C275.546 200.787 275.56 200.761 275.578 200.739C275.597 200.717 275.619 200.7 275.644 200.687C275.669 200.674 275.697 200.666 275.725 200.665C275.752 200.663 275.78 200.667 275.807 200.676C275.833 200.685 275.858 200.7 275.879 200.719C275.9 200.739 275.917 200.762 275.929 200.788C275.941 200.815 275.949 200.843 275.95 200.872C275.952 200.901 275.948 200.93 275.939 200.958C275.155 203.346 273.9 207.268 273.875 207.625C274.415 207.919 275.016 208.073 275.625 208.074C275.682 208.077 275.735 208.102 275.773 208.146C275.811 208.189 275.831 208.247 275.829 208.305C275.826 208.364 275.802 208.42 275.76 208.459C275.719 208.499 275.664 208.52 275.607 208.518L275.606 208.515Z" fill="#0C0C0C"/>
<path opacity="0.5" d="M277.226 212.322C275.864 212.289 274.529 211.923 273.328 211.252C273.304 211.239 273.281 211.221 273.263 211.199C273.245 211.176 273.232 211.151 273.223 211.123C273.214 211.095 273.211 211.066 273.213 211.037C273.216 211.008 273.223 210.98 273.236 210.954C273.249 210.928 273.266 210.905 273.287 210.886C273.309 210.867 273.333 210.853 273.36 210.844C273.386 210.835 273.414 210.831 273.442 210.834C273.47 210.836 273.497 210.844 273.522 210.857C276.113 212.237 278.549 212.236 280.565 210.857C280.605 210.828 280.647 210.801 280.691 210.777C280.741 210.754 280.799 210.751 280.85 210.771C280.902 210.791 280.945 210.831 280.969 210.883C280.993 210.934 280.997 210.994 280.98 211.049C280.963 211.104 280.926 211.149 280.877 211.176C280.86 211.185 280.834 211.204 280.798 211.229C279.738 211.956 278.494 212.337 277.226 212.322Z" fill="#0C0C0C"/>
<path d="M302.529 201.387L295.006 200.795C289.175 199.054 286.456 189.141 286.456 189.141C286.456 189.141 280.371 196.802 263.518 194.701C263.518 194.701 264.379 170.381 289.392 174.647C297.458 176.022 303.923 183.642 304.345 194.74C304.641 202.517 302.529 201.387 302.529 201.387Z" fill="#0A0A0A"/>
<path d="M294.255 210.442C296.807 210.659 299.097 207.984 299.305 205.323C299.512 202.661 297.557 201.012 295.003 200.797L293.549 202.471L292.057 210.26L294.255 210.442Z" fill="#FED7AA"/>
<path d="M272.944 195.763C272.18 195.355 271.326 195.169 270.469 195.224C270.047 195.249 269.63 195.34 269.233 195.494C268.838 195.645 268.462 195.847 268.115 196.096C268.081 196.121 268.058 196.159 268.05 196.201C268.042 196.243 268.05 196.287 268.072 196.324C268.094 196.361 268.128 196.387 268.168 196.399C268.208 196.41 268.25 196.405 268.287 196.385L268.298 196.378C268.626 196.158 268.979 195.983 269.348 195.856C269.715 195.727 270.098 195.657 270.485 195.648C271.254 195.625 272.015 195.815 272.691 196.199L272.708 196.209C272.764 196.239 272.83 196.246 272.891 196.227C272.951 196.208 273.003 196.165 273.034 196.107C273.065 196.05 273.073 195.982 273.057 195.917C273.041 195.853 273.002 195.798 272.947 195.764L272.944 195.763Z" fill="#0C0C0C"/>
<path d="M280.299 196.587C281.024 196.319 281.804 196.257 282.559 196.407C282.94 196.479 283.308 196.611 283.651 196.798C283.997 196.984 284.319 197.216 284.61 197.486L284.62 197.494C284.653 197.522 284.694 197.535 284.737 197.531C284.779 197.527 284.818 197.507 284.845 197.474C284.873 197.44 284.887 197.397 284.885 197.353C284.883 197.309 284.864 197.268 284.833 197.238C284.529 196.936 284.189 196.674 283.822 196.46C283.454 196.243 283.056 196.085 282.642 195.991C281.805 195.796 280.934 195.839 280.118 196.115C280.056 196.137 280.006 196.183 279.977 196.243C279.948 196.304 279.943 196.374 279.964 196.438C279.984 196.502 280.028 196.555 280.086 196.585C280.144 196.616 280.211 196.621 280.273 196.599H280.28L280.299 196.587Z" fill="#0C0C0C"/>
<path opacity="0.52" d="M277.151 214.423C276.905 214.421 276.66 214.397 276.418 214.352C276.362 214.342 276.313 214.309 276.28 214.261C276.248 214.213 276.235 214.153 276.245 214.095C276.254 214.037 276.286 213.986 276.332 213.952C276.378 213.918 276.435 213.905 276.491 213.915C276.87 214.016 277.266 214.032 277.652 213.961C278.037 213.89 278.404 213.733 278.727 213.502C278.77 213.465 278.825 213.446 278.881 213.45C278.937 213.454 278.989 213.481 279.026 213.525C279.062 213.569 279.081 213.626 279.078 213.685C279.074 213.743 279.049 213.798 279.007 213.837C278.472 214.25 277.816 214.458 277.151 214.423Z" fill="#0C0C0C"/>
<path d="M294.987 200.671L295.024 200.508C289.938 199.216 287.924 195.909 287.13 193.362C286.609 191.656 286.435 189.856 286.619 188.076L286.461 188.051C286.275 189.854 286.45 191.678 286.977 193.407C287.782 195.997 289.826 199.359 294.987 200.671Z" fill="#0C0C0C"/>
<path opacity="0.1" d="M284.286 206.94C284.287 206.104 283.402 205.424 282.31 205.423C281.218 205.422 280.333 206.099 280.332 206.935C280.331 207.771 281.215 208.45 282.307 208.452C283.399 208.453 284.285 207.776 284.286 206.94Z" fill="#0C0C0C"/>
<path opacity="0.1" d="M270.56 206.564C270.56 207.399 269.671 208.075 268.581 208.075C268.393 208.075 268.205 208.054 268.02 208.013C267.859 207.037 267.749 206.093 267.676 205.216C267.966 205.101 268.274 205.044 268.585 205.047C269.68 205.047 270.56 205.726 270.56 206.564Z" fill="#0C0C0C"/>
<path d="M268.341 253.556L248.966 276.091L228.38 300.027C220.71 294.204 214.234 286.839 209.332 278.365L220.706 248.968L235.589 255.246L245.473 244.576L251.935 237.598L268.341 253.556Z" fill="#4D7C0F"/>
<path d="M232.291 284.363C232.273 284.363 232.255 284.359 232.237 284.353C232.196 284.338 232.162 284.307 232.143 284.266C232.124 284.225 232.121 284.177 232.135 284.134L243.389 250.21C243.396 250.188 243.408 250.169 243.422 250.152C243.436 250.135 243.454 250.121 243.473 250.111C243.493 250.101 243.514 250.095 243.536 250.094C243.557 250.093 243.579 250.096 243.6 250.103C243.62 250.111 243.639 250.122 243.655 250.137C243.672 250.152 243.685 250.171 243.694 250.191C243.704 250.211 243.709 250.234 243.71 250.256C243.712 250.279 243.709 250.301 243.702 250.323L232.447 284.246C232.436 284.28 232.415 284.31 232.387 284.331C232.359 284.352 232.326 284.363 232.291 284.363Z" fill="#0C0C0C"/>
<path d="M325.242 265.053C324.622 270.864 324.175 279.621 323.84 288.423C315.186 298.916 303.889 306.668 291.231 310.802C278.572 314.935 265.058 315.285 252.219 311.811C251.445 302.766 250.008 287.372 248.966 276.091C248.391 269.84 247.934 264.855 247.771 262.915C247.178 255.64 245.516 249.613 245.473 244.575C245.413 240.066 246.652 236.339 251.092 233.195C255.282 230.222 266.172 228.785 271.937 228.785C272.015 228.785 270.956 240.461 286.811 239.68C298.461 239.105 298.951 228.785 298.951 228.785C298.951 228.785 304.723 229.171 308.561 229.71C314.841 230.599 320.854 232.593 324.227 239.096C324.491 239.614 324.712 240.155 324.889 240.713C325.21 241.704 325.45 242.723 325.604 243.757V243.766C326.361 248.482 326.257 255.532 325.242 265.053Z" fill="#4D7C0F"/>
<path d="M248.587 276.758C248.546 276.758 248.506 276.741 248.475 276.712C248.445 276.682 248.426 276.642 248.423 276.599L247.77 267.295C247.767 267.249 247.782 267.204 247.81 267.169C247.839 267.134 247.88 267.113 247.923 267.109C247.967 267.108 248.009 267.123 248.042 267.153C248.075 267.183 248.096 267.224 248.101 267.269L248.754 276.573C248.755 276.618 248.74 276.662 248.712 276.696C248.683 276.729 248.643 276.75 248.6 276.753L248.587 276.758Z" fill="#0C0C0C"/>
<path d="M237.231 255.228H251.102C251.461 255.228 251.814 255.145 252.138 254.985C252.461 254.825 252.747 254.593 252.974 254.304C253.201 254.015 253.364 253.677 253.451 253.314C253.538 252.951 253.547 252.573 253.477 252.206L247.989 223.414C247.879 222.837 247.58 222.318 247.142 221.946C246.705 221.575 246.158 221.374 245.594 221.379L232.076 221.498C231.722 221.501 231.373 221.585 231.053 221.745C230.734 221.904 230.451 222.134 230.226 222.419C230.001 222.705 229.839 223.038 229.751 223.396C229.663 223.754 229.651 224.128 229.716 224.491L234.851 253.164C234.955 253.744 235.249 254.268 235.684 254.644C236.119 255.021 236.666 255.228 237.231 255.228Z" fill="#262626"/>
<path d="M247.914 239.191C247.702 238.858 247.393 238.605 247.032 238.47C246.672 238.334 246.28 238.323 245.913 238.438C245.91 238.405 245.897 238.374 245.878 238.348C245.857 238.328 245.832 238.315 245.805 238.308C245.778 238.302 245.749 238.303 245.723 238.311L246.8 237.19C247.14 236.849 247.344 236.387 247.37 235.896C247.396 235.404 247.243 234.921 246.941 234.544C246.66 234.216 246.277 234.003 245.86 233.941C245.444 233.879 245.019 233.973 244.662 234.205C244.662 234.186 244.648 234.171 244.643 234.153L245.086 233.691C245.391 233.385 245.585 232.978 245.635 232.539C245.686 232.1 245.589 231.657 245.362 231.284C245.215 231.053 245.021 230.859 244.794 230.716C244.567 230.573 244.312 230.485 244.048 230.457C243.784 230.429 243.517 230.463 243.267 230.556C243.017 230.649 242.79 230.798 242.602 230.994L241.579 232.059C241.575 232.052 241.579 232.043 241.572 232.038C241.564 232.032 241.553 232.031 241.545 232.025C241.762 231.667 241.857 231.243 241.812 230.822C241.768 230.4 241.588 230.007 241.302 229.707C240.613 228.882 239.377 229.285 238.715 229.977L232.475 236.359L232.665 236.061L233.548 233.709C233.729 233.255 233.738 232.746 233.573 232.285C233.408 231.824 233.082 231.445 232.661 231.226C232.439 231.121 232.2 231.064 231.957 231.059C231.713 231.054 231.472 231.1 231.247 231.196C231.021 231.291 230.817 231.433 230.646 231.614C230.475 231.794 230.341 232.009 230.252 232.245L225.09 245.585C225.09 245.585 235.945 253.785 238.548 251.075L247.645 241.604C247.95 241.296 248.143 240.888 248.193 240.448C248.242 240.008 248.143 239.563 247.914 239.191Z" fill="#FED7AA"/>
<g opacity="0.2">
<path d="M235.59 238.073C235.621 238.104 235.662 238.122 235.705 238.122C235.749 238.122 235.79 238.104 235.821 238.073L241.568 232.28C241.599 232.247 241.616 232.203 241.616 232.158C241.616 232.112 241.599 232.068 241.568 232.035C241.553 232.019 241.535 232.006 241.514 231.998C241.494 231.989 241.473 231.984 241.451 231.984C241.429 231.984 241.408 231.989 241.388 231.998C241.368 232.006 241.349 232.019 241.334 232.035L235.587 237.829C235.572 237.846 235.56 237.865 235.551 237.886C235.543 237.906 235.539 237.929 235.539 237.952C235.539 237.974 235.543 237.997 235.551 238.018C235.56 238.039 235.572 238.058 235.587 238.074L235.59 238.073Z" fill="#0C0C0C"/>
<path d="M237.967 240.786C237.998 240.817 238.039 240.835 238.083 240.835C238.126 240.835 238.167 240.817 238.198 240.786L244.612 234.319C244.643 234.287 244.661 234.243 244.661 234.197C244.661 234.151 244.643 234.107 244.612 234.075C244.581 234.044 244.539 234.027 244.496 234.027C244.453 234.027 244.411 234.044 244.379 234.075L237.965 240.542C237.949 240.558 237.937 240.577 237.929 240.597C237.921 240.618 237.916 240.641 237.916 240.663C237.916 240.686 237.921 240.708 237.929 240.729C237.937 240.75 237.949 240.769 237.965 240.785L237.967 240.786Z" fill="#0C0C0C"/>
<path d="M240.527 243.747C240.557 243.779 240.599 243.796 240.642 243.796C240.685 243.796 240.727 243.779 240.758 243.747L245.874 238.59C245.906 238.558 245.924 238.515 245.925 238.469C245.926 238.423 245.909 238.379 245.879 238.346C245.848 238.313 245.806 238.294 245.762 238.293C245.719 238.292 245.676 238.31 245.644 238.341L240.528 243.499C240.497 243.532 240.48 243.576 240.48 243.622C240.48 243.667 240.497 243.711 240.528 243.744L240.527 243.747Z" fill="#0C0C0C"/>
</g>
<path d="M243.202 250.132L228.07 295.731L221.317 293.89C216.668 289.303 212.636 284.08 209.332 278.363C209.289 278.282 209.238 278.201 209.195 278.12L223.312 242.023L243.202 250.132Z" fill="#4D7C0F"/>
<path d="M332.838 274.652V274.661C327.782 284.625 320.629 293.263 311.916 299.926L302.556 261.288L324.888 240.711L325.603 243.756V243.765L332.838 274.652Z" fill="#4D7C0F"/>
<path d="M312.071 299.813C312.019 299.849 311.968 299.893 311.916 299.929C311.864 299.965 311.812 300.01 311.76 300.046L302.383 261.336C302.372 261.288 302.379 261.237 302.403 261.195C302.427 261.153 302.466 261.123 302.512 261.111C302.558 261.099 302.606 261.107 302.646 261.132C302.687 261.157 302.716 261.198 302.727 261.246L312.071 299.813Z" fill="#0C0C0C"/>
</g>
</svg>
