<svg width="70" height="112" viewBox="0 0 70 112" fill="none" xmlns="http://www.w3.org/2000/svg">
<path fill-rule="evenodd" clip-rule="evenodd" d="M0 19.5586C0.789 19.5586 1.563 19.2391 2.121 18.6796C2.6805 18.1216 3 17.3491 3 16.5586C3 15.7681 2.6805 14.9956 2.121 14.4376C1.563 13.8781 0.789 13.5586 0 13.5586C-0.7905 13.5586 -1.563 13.8781 -2.1225 14.4376C-2.6805 14.9956 -3 15.7681 -3 16.5586C-3 17.3491 -2.6805 18.1216 -2.1225 18.6796C-1.563 19.2391 -0.7905 19.5586 0 19.5586Z" fill="#65A30D"/>
<path fill-rule="evenodd" clip-rule="evenodd" d="M17 19.5586C17.7905 19.5586 18.563 19.2391 19.1225 18.6796C19.6805 18.1216 20 17.3491 20 16.5586C20 15.7681 19.6805 14.9956 19.1225 14.4376C18.563 13.8781 17.7905 13.5586 17 13.5586C16.211 13.5586 15.437 13.8781 14.879 14.4376C14.3195 14.9956 14 15.7681 14 16.5586C14 17.3491 14.3195 18.1216 14.879 18.6796C15.437 19.2391 16.211 19.5586 17 19.5586Z" fill="#65A30D"/>
<path fill-rule="evenodd" clip-rule="evenodd" d="M49.9925 19.5586H50.0075C51.6608 19.5586 53 18.2146 53 16.5586C53 14.9026 51.6608 13.5586 50.0075 13.5586H49.9925C48.3406 13.5586 47 14.9026 47 16.5586C47 18.2146 48.3406 19.5586 49.9925 19.5586Z" fill="#65A30D"/>
<path fill-rule="evenodd" clip-rule="evenodd" d="M32.9925 19.5586H33.0075C34.6594 19.5586 36 18.2146 36 16.5586C36 14.9026 34.6594 13.5586 33.0075 13.5586H32.9925C31.3406 13.5586 30 14.9026 30 16.5586C30 18.2146 31.3406 19.5586 32.9925 19.5586Z" fill="#65A30D"/>
<mask id="mask0_557_16122" style="mask-type:luminance" maskUnits="userSpaceOnUse" x="63" y="13" width="7" height="7">
<path fill-rule="evenodd" clip-rule="evenodd" d="M63.3027 13.3438H69.7024V19.7438H63.3027V13.3438Z" fill="white"/>
</mask>
<g mask="url(#mask0_557_16122)">
<path fill-rule="evenodd" clip-rule="evenodd" d="M66.5027 19.7438C67.3443 19.7438 68.1699 19.4029 68.7651 18.8061C69.3619 18.2109 69.7027 17.387 69.7027 16.5438C69.7027 15.7006 69.3619 14.8765 68.7651 14.2814C68.1699 13.6845 67.3443 13.3438 66.5027 13.3438C65.6595 13.3438 64.8355 13.6845 64.2387 14.2814C63.6435 14.8765 63.3027 15.7006 63.3027 16.5438C63.3027 17.387 63.6435 18.2109 64.2387 18.8061C64.8355 19.4029 65.6595 19.7438 66.5027 19.7438Z" fill="#65A30D"/>
</g>
<path fill-rule="evenodd" clip-rule="evenodd" d="M0 6.55859C0.789 6.55859 1.563 6.23909 2.121 5.67959C2.6805 5.12159 3 4.34759 3 3.55859C3 2.76809 2.6805 1.99559 2.121 1.43609C1.563 0.878094 0.789 0.558594 0 0.558594C-0.7905 0.558594 -1.563 0.878094 -2.1225 1.43609C-2.6805 1.99559 -3 2.76809 -3 3.55859C-3 4.34759 -2.6805 5.12159 -2.1225 5.67959C-1.563 6.23909 -0.7905 6.55859 0 6.55859Z" fill="#65A30D"/>
<path fill-rule="evenodd" clip-rule="evenodd" d="M17 6.55859C17.7905 6.55859 18.563 6.23909 19.1225 5.67959C19.6805 5.12159 20 4.34759 20 3.55859C20 2.76809 19.6805 1.99559 19.1225 1.43609C18.563 0.878094 17.7905 0.558594 17 0.558594C16.211 0.558594 15.437 0.878094 14.879 1.43609C14.3195 1.99559 14 2.76809 14 3.55859C14 4.34759 14.3195 5.12159 14.879 5.67959C15.437 6.23909 16.211 6.55859 17 6.55859Z" fill="#65A30D"/>
<path fill-rule="evenodd" clip-rule="evenodd" d="M49.9925 6.55859H50.0075C51.6608 6.55859 53 5.21459 53 3.55859C53 1.90259 51.6608 0.558594 50.0075 0.558594H49.9925C48.3406 0.558594 47 1.90259 47 3.55859C47 5.21459 48.3406 6.55859 49.9925 6.55859Z" fill="#65A30D"/>
<path fill-rule="evenodd" clip-rule="evenodd" d="M32.9925 6.55859H33.0075C34.6594 6.55859 36 5.21459 36 3.55859C36 1.90259 34.6594 0.558594 33.0075 0.558594H32.9925C31.3406 0.558594 30 1.90259 30 3.55859C30 5.21459 31.3406 6.55859 32.9925 6.55859Z" fill="#65A30D"/>
<mask id="mask1_557_16122" style="mask-type:luminance" maskUnits="userSpaceOnUse" x="63" y="0" width="7" height="7">
<path fill-rule="evenodd" clip-rule="evenodd" d="M63.3027 0H69.7024V6.4H63.3027V0Z" fill="white"/>
</mask>
<g mask="url(#mask1_557_16122)">
<path fill-rule="evenodd" clip-rule="evenodd" d="M66.5027 6.4C67.3443 6.4 68.1699 6.0592 68.7651 5.4624C69.3619 4.8672 69.7027 4.0416 69.7027 3.2C69.7027 2.3568 69.3619 1.5328 68.7651 0.936C68.1699 0.3408 67.3443 0 66.5027 0C65.6595 0 64.8355 0.3408 64.2387 0.936C63.6435 1.5328 63.3027 2.3568 63.3027 3.2C63.3027 4.0416 63.6435 4.8672 64.2387 5.4624C64.8355 6.0592 65.6595 6.4 66.5027 6.4Z" fill="#65A30D"/>
</g>
<path fill-rule="evenodd" clip-rule="evenodd" d="M0 32.5586C0.789 32.5586 1.563 32.2391 2.121 31.6796C2.6805 31.1216 3 30.3491 3 29.5586C3 28.7696 2.6805 27.9956 2.121 27.4376C1.563 26.8781 0.789 26.5586 0 26.5586C-0.7905 26.5586 -1.563 26.8781 -2.1225 27.4376C-2.6805 27.9956 -3 28.7696 -3 29.5586C-3 30.3491 -2.6805 31.1216 -2.1225 31.6796C-1.563 32.2391 -0.7905 32.5586 0 32.5586Z" fill="#65A30D"/>
<path fill-rule="evenodd" clip-rule="evenodd" d="M17 32.5586C17.7905 32.5586 18.563 32.2391 19.1225 31.6796C19.6805 31.1216 20 30.3491 20 29.5586C20 28.7696 19.6805 27.9956 19.1225 27.4376C18.563 26.8781 17.7905 26.5586 17 26.5586C16.211 26.5586 15.437 26.8781 14.879 27.4376C14.3195 27.9956 14 28.7696 14 29.5586C14 30.3491 14.3195 31.1216 14.879 31.6796C15.437 32.2391 16.211 32.5586 17 32.5586Z" fill="#65A30D"/>
<path fill-rule="evenodd" clip-rule="evenodd" d="M49.9925 32.5586H50.0075C51.6608 32.5586 53 31.2146 53 29.5586C53 27.9026 51.6608 26.5586 50.0075 26.5586H49.9925C48.3406 26.5586 47 27.9026 47 29.5586C47 31.2146 48.3406 32.5586 49.9925 32.5586Z" fill="#65A30D"/>
<path fill-rule="evenodd" clip-rule="evenodd" d="M32.9925 32.5586H33.0075C34.6594 32.5586 36 31.2146 36 29.5586C36 27.9026 34.6594 26.5586 33.0075 26.5586H32.9925C31.3406 26.5586 30 27.9026 30 29.5586C30 31.2146 31.3406 32.5586 32.9925 32.5586Z" fill="#65A30D"/>
<mask id="mask2_557_16122" style="mask-type:luminance" maskUnits="userSpaceOnUse" x="63" y="26" width="7" height="8">
<path fill-rule="evenodd" clip-rule="evenodd" d="M63.3027 26.6875H69.7024V33.0875H63.3027V26.6875Z" fill="white"/>
</mask>
<g mask="url(#mask2_557_16122)">
<path fill-rule="evenodd" clip-rule="evenodd" d="M66.5027 33.0875C67.3443 33.0875 68.1699 32.7467 68.7651 32.1499C69.3619 31.5547 69.7027 30.7307 69.7027 29.8875C69.7027 29.0459 69.3619 28.2203 68.7651 27.6251C68.1699 27.0283 67.3443 26.6875 66.5027 26.6875C65.6595 26.6875 64.8355 27.0283 64.2387 27.6251C63.6435 28.2203 63.3027 29.0459 63.3027 29.8875C63.3027 30.7307 63.6435 31.5547 64.2387 32.1499C64.8355 32.7467 65.6595 33.0875 66.5027 33.0875Z" fill="#65A30D"/>
</g>
<path fill-rule="evenodd" clip-rule="evenodd" d="M0 45.5586C0.789 45.5586 1.563 45.2391 2.121 44.6796C2.6805 44.1216 3 43.3491 3 42.5586C3 41.7681 2.6805 40.9956 2.121 40.4376C1.563 39.8781 0.789 39.5586 0 39.5586C-0.7905 39.5586 -1.563 39.8781 -2.1225 40.4376C-2.6805 40.9956 -3 41.7681 -3 42.5586C-3 43.3491 -2.6805 44.1216 -2.1225 44.6796C-1.563 45.2391 -0.7905 45.5586 0 45.5586Z" fill="#65A30D"/>
<path fill-rule="evenodd" clip-rule="evenodd" d="M17 45.5586C17.7905 45.5586 18.563 45.2391 19.1225 44.6796C19.6805 44.1216 20 43.3491 20 42.5586C20 41.7681 19.6805 40.9956 19.1225 40.4376C18.563 39.8781 17.7905 39.5586 17 39.5586C16.211 39.5586 15.437 39.8781 14.879 40.4376C14.3195 40.9956 14 41.7681 14 42.5586C14 43.3491 14.3195 44.1216 14.879 44.6796C15.437 45.2391 16.211 45.5586 17 45.5586Z" fill="#65A30D"/>
<path fill-rule="evenodd" clip-rule="evenodd" d="M49.9925 45.5586H50.0075C51.6608 45.5586 53 44.2146 53 42.5586C53 40.9026 51.6608 39.5586 50.0075 39.5586H49.9925C48.3406 39.5586 47 40.9026 47 42.5586C47 44.2146 48.3406 45.5586 49.9925 45.5586Z" fill="#65A30D"/>
<path fill-rule="evenodd" clip-rule="evenodd" d="M32.9925 45.5586H33.0075C34.6594 45.5586 36 44.2146 36 42.5586C36 40.9026 34.6594 39.5586 33.0075 39.5586H32.9925C31.3406 39.5586 30 40.9026 30 42.5586C30 44.2146 31.3406 45.5586 32.9925 45.5586Z" fill="#65A30D"/>
<mask id="mask3_557_16122" style="mask-type:luminance" maskUnits="userSpaceOnUse" x="63" y="40" width="7" height="7">
<path fill-rule="evenodd" clip-rule="evenodd" d="M63.3027 40.0352H69.7024V46.4352H63.3027V40.0352Z" fill="white"/>
</mask>
<g mask="url(#mask3_557_16122)">
<path fill-rule="evenodd" clip-rule="evenodd" d="M66.5027 46.4352C67.3443 46.4352 68.1699 46.0944 68.7651 45.4976C69.3619 44.9024 69.7027 44.0784 69.7027 43.2352C69.7027 42.392 69.3619 41.568 68.7651 40.9728C68.1699 40.376 67.3443 40.0352 66.5027 40.0352C65.6595 40.0352 64.8355 40.376 64.2387 40.9728C63.6435 41.568 63.3027 42.392 63.3027 43.2352C63.3027 44.0784 63.6435 44.9024 64.2387 45.4976C64.8355 46.0944 65.6595 46.4352 66.5027 46.4352Z" fill="#65A30D"/>
</g>
<path fill-rule="evenodd" clip-rule="evenodd" d="M0 59.5586C0.789 59.5586 1.563 59.2391 2.121 58.6796C2.6805 58.1216 3 57.3491 3 56.5586C3 55.7696 2.6805 54.9956 2.121 54.4376C1.563 53.8781 0.789 53.5586 0 53.5586C-0.7905 53.5586 -1.563 53.8781 -2.1225 54.4376C-2.6805 54.9956 -3 55.7696 -3 56.5586C-3 57.3491 -2.6805 58.1216 -2.1225 58.6796C-1.563 59.2391 -0.7905 59.5586 0 59.5586Z" fill="#65A30D"/>
<path fill-rule="evenodd" clip-rule="evenodd" d="M17 59.5586C17.7905 59.5586 18.563 59.2391 19.1225 58.6796C19.6805 58.1216 20 57.3491 20 56.5586C20 55.7696 19.6805 54.9956 19.1225 54.4376C18.563 53.8781 17.7905 53.5586 17 53.5586C16.211 53.5586 15.437 53.8781 14.879 54.4376C14.3195 54.9956 14 55.7696 14 56.5586C14 57.3491 14.3195 58.1216 14.879 58.6796C15.437 59.2391 16.211 59.5586 17 59.5586Z" fill="#65A30D"/>
<path fill-rule="evenodd" clip-rule="evenodd" d="M49.9925 59.5586H50.0075C51.6608 59.5586 53 58.2146 53 56.5586C53 54.9026 51.6608 53.5586 50.0075 53.5586H49.9925C48.3406 53.5586 47 54.9026 47 56.5586C47 58.2146 48.3406 59.5586 49.9925 59.5586Z" fill="#65A30D"/>
<path fill-rule="evenodd" clip-rule="evenodd" d="M32.9925 59.5586H33.0075C34.6594 59.5586 36 58.2146 36 56.5586C36 54.9026 34.6594 53.5586 33.0075 53.5586H32.9925C31.3406 53.5586 30 54.9026 30 56.5586C30 58.2146 31.3406 59.5586 32.9925 59.5586Z" fill="#65A30D"/>
<mask id="mask4_557_16122" style="mask-type:luminance" maskUnits="userSpaceOnUse" x="63" y="52" width="7" height="8">
<path fill-rule="evenodd" clip-rule="evenodd" d="M63.3027 52.7773H69.7024V59.1773H63.3027V52.7773Z" fill="white"/>
</mask>
<g mask="url(#mask4_557_16122)">
<path fill-rule="evenodd" clip-rule="evenodd" d="M66.5027 59.1773C67.3443 59.1773 68.1699 58.8365 68.7651 58.2397C69.3619 57.6445 69.7027 56.8205 69.7027 55.9773C69.7027 55.1357 69.3619 54.3101 68.7651 53.7149C68.1699 53.1181 67.3443 52.7773 66.5027 52.7773C65.6595 52.7773 64.8355 53.1181 64.2387 53.7149C63.6435 54.3101 63.3027 55.1357 63.3027 55.9773C63.3027 56.8205 63.6435 57.6445 64.2387 58.2397C64.8355 58.8365 65.6595 59.1773 66.5027 59.1773Z" fill="#65A30D"/>
</g>
<path fill-rule="evenodd" clip-rule="evenodd" d="M0 72.5586C0.789 72.5586 1.563 72.2391 2.121 71.6811C2.6805 71.1216 3 70.3491 3 69.5586C3 68.7696 2.6805 67.9956 2.121 67.4376C1.563 66.8781 0.789 66.5586 0 66.5586C-0.7905 66.5586 -1.563 66.8781 -2.1225 67.4376C-2.6805 67.9956 -3 68.7696 -3 69.5586C-3 70.3491 -2.6805 71.1216 -2.1225 71.6811C-1.563 72.2391 -0.7905 72.5586 0 72.5586Z" fill="#65A30D"/>
<path fill-rule="evenodd" clip-rule="evenodd" d="M17 72.5586C17.7905 72.5586 18.563 72.2391 19.1225 71.6811C19.6805 71.1216 20 70.3491 20 69.5586C20 68.7696 19.6805 67.9956 19.1225 67.4376C18.563 66.8781 17.7905 66.5586 17 66.5586C16.211 66.5586 15.437 66.8781 14.879 67.4376C14.3195 67.9956 14 68.7696 14 69.5586C14 70.3491 14.3195 71.1216 14.879 71.6811C15.437 72.2391 16.211 72.5586 17 72.5586Z" fill="#65A30D"/>
<path fill-rule="evenodd" clip-rule="evenodd" d="M49.9925 72.5586H50.0075C51.6608 72.5586 53 71.2146 53 69.5586C53 67.9026 51.6608 66.5586 50.0075 66.5586H49.9925C48.3406 66.5586 47 67.9026 47 69.5586C47 71.2146 48.3406 72.5586 49.9925 72.5586Z" fill="#65A30D"/>
<path fill-rule="evenodd" clip-rule="evenodd" d="M32.9925 72.5586H33.0075C34.6594 72.5586 36 71.2146 36 69.5586C36 67.9026 34.6594 66.5586 33.0075 66.5586H32.9925C31.3406 66.5586 30 67.9026 30 69.5586C30 71.2146 31.3406 72.5586 32.9925 72.5586Z" fill="#65A30D"/>
<mask id="mask5_557_16122" style="mask-type:luminance" maskUnits="userSpaceOnUse" x="63" y="66" width="7" height="7">
<path fill-rule="evenodd" clip-rule="evenodd" d="M63.3027 66.1211H69.7024V72.5211H63.3027V66.1211Z" fill="white"/>
</mask>
<g mask="url(#mask5_557_16122)">
<path fill-rule="evenodd" clip-rule="evenodd" d="M66.5027 72.5211C67.3443 72.5211 68.1699 72.1803 68.7651 71.5851C69.3619 70.9883 69.7027 70.1643 69.7027 69.3211C69.7027 68.4795 69.3619 67.6539 68.7651 67.0587C68.1699 66.4619 67.3443 66.1211 66.5027 66.1211C65.6595 66.1211 64.8355 66.4619 64.2387 67.0587C63.6435 67.6539 63.3027 68.4795 63.3027 69.3211C63.3027 70.1643 63.6435 70.9883 64.2387 71.5851C64.8355 72.1803 65.6595 72.5211 66.5027 72.5211Z" fill="#65A30D"/>
</g>
<path fill-rule="evenodd" clip-rule="evenodd" d="M0 85.5586C0.789 85.5586 1.563 85.2391 2.121 84.6796C2.6805 84.1216 3 83.3491 3 82.5586C3 81.7696 2.6805 80.9956 2.121 80.4376C1.563 79.8781 0.789 79.5586 0 79.5586C-0.7905 79.5586 -1.563 79.8781 -2.1225 80.4376C-2.6805 80.9956 -3 81.7696 -3 82.5586C-3 83.3491 -2.6805 84.1216 -2.1225 84.6796C-1.563 85.2391 -0.7905 85.5586 0 85.5586Z" fill="#65A30D"/>
<path fill-rule="evenodd" clip-rule="evenodd" d="M17 85.5586C17.7905 85.5586 18.563 85.2391 19.1225 84.6796C19.6805 84.1216 20 83.3491 20 82.5586C20 81.7696 19.6805 80.9956 19.1225 80.4376C18.563 79.8781 17.7905 79.5586 17 79.5586C16.211 79.5586 15.437 79.8781 14.879 80.4376C14.3195 80.9956 14 81.7696 14 82.5586C14 83.3491 14.3195 84.1216 14.879 84.6796C15.437 85.2391 16.211 85.5586 17 85.5586Z" fill="#65A30D"/>
<path fill-rule="evenodd" clip-rule="evenodd" d="M49.9925 85.5586H50.0075C51.6608 85.5586 53 84.2146 53 82.5586C53 80.9026 51.6608 79.5586 50.0075 79.5586H49.9925C48.3406 79.5586 47 80.9026 47 82.5586C47 84.2146 48.3406 85.5586 49.9925 85.5586Z" fill="#65A30D"/>
<path fill-rule="evenodd" clip-rule="evenodd" d="M32.9925 85.5586H33.0075C34.6594 85.5586 36 84.2146 36 82.5586C36 80.9026 34.6594 79.5586 33.0075 79.5586H32.9925C31.3406 79.5586 30 80.9026 30 82.5586C30 84.2146 31.3406 85.5586 32.9925 85.5586" fill="#65A30D"/>
<mask id="mask6_557_16122" style="mask-type:luminance" maskUnits="userSpaceOnUse" x="63" y="79" width="7" height="7">
<path fill-rule="evenodd" clip-rule="evenodd" d="M63.3027 79.4688H69.7024V85.8688H63.3027V79.4688Z" fill="white"/>
</mask>
<g mask="url(#mask6_557_16122)">
<path fill-rule="evenodd" clip-rule="evenodd" d="M66.5027 85.8688C67.3443 85.8688 68.1699 85.5279 68.7651 84.9311C69.3619 84.3359 69.7027 83.512 69.7027 82.6688C69.7027 81.8272 69.3619 81.0015 68.7651 80.4064C68.1699 79.8095 67.3443 79.4688 66.5027 79.4688C65.6595 79.4688 64.8355 79.8095 64.2387 80.4064C63.6435 81.0015 63.3027 81.8272 63.3027 82.6688C63.3027 83.512 63.6435 84.3359 64.2387 84.9311C64.8355 85.5279 65.6595 85.8688 66.5027 85.8688Z" fill="#65A30D"/>
</g>
<path fill-rule="evenodd" clip-rule="evenodd" d="M0 98.5586C0.789 98.5586 1.563 98.2391 2.121 97.6811C2.6805 97.1216 3 96.3491 3 95.5586C3 94.7696 2.6805 93.9956 2.121 93.4376C1.563 92.8781 0.789 92.5586 0 92.5586C-0.7905 92.5586 -1.563 92.8781 -2.1225 93.4376C-2.6805 93.9956 -3 94.7696 -3 95.5586C-3 96.3491 -2.6805 97.1216 -2.1225 97.6811C-1.563 98.2391 -0.7905 98.5586 0 98.5586Z" fill="#65A30D"/>
<path fill-rule="evenodd" clip-rule="evenodd" d="M17 98.5586C17.7905 98.5586 18.563 98.2391 19.1225 97.6811C19.6805 97.1216 20 96.3491 20 95.5586C20 94.7696 19.6805 93.9956 19.1225 93.4376C18.563 92.8781 17.7905 92.5586 17 92.5586C16.211 92.5586 15.437 92.8781 14.879 93.4376C14.3195 93.9956 14 94.7696 14 95.5586C14 96.3491 14.3195 97.1216 14.879 97.6811C15.437 98.2391 16.211 98.5586 17 98.5586Z" fill="#65A30D"/>
<path fill-rule="evenodd" clip-rule="evenodd" d="M49.9925 98.5586H50.0075C51.6608 98.5586 53 97.2161 53 95.5586C53 93.9026 51.6608 92.5586 50.0075 92.5586H49.9925C48.3406 92.5586 47 93.9026 47 95.5586C47 97.2161 48.3406 98.5586 49.9925 98.5586Z" fill="#65A30D"/>
<path fill-rule="evenodd" clip-rule="evenodd" d="M32.9925 98.5586H33.0075C34.6594 98.5586 36 97.2161 36 95.5586C36 93.9026 34.6594 92.5586 33.0075 92.5586H32.9925C31.3406 92.5586 30 93.9026 30 95.5586C30 97.2161 31.3406 98.5586 32.9925 98.5586Z" fill="#65A30D"/>
<mask id="mask7_557_16122" style="mask-type:luminance" maskUnits="userSpaceOnUse" x="63" y="92" width="7" height="8">
<path fill-rule="evenodd" clip-rule="evenodd" d="M63.3027 92.8125H69.7024V99.2125H63.3027V92.8125Z" fill="white"/>
</mask>
<g mask="url(#mask7_557_16122)">
<path fill-rule="evenodd" clip-rule="evenodd" d="M66.5027 99.2125C67.3443 99.2125 68.1699 98.8717 68.7651 98.2765C69.3619 97.6797 69.7027 96.8557 69.7027 96.0125C69.7027 95.1709 69.3619 94.3453 68.7651 93.7501C68.1699 93.1533 67.3443 92.8125 66.5027 92.8125C65.6595 92.8125 64.8355 93.1533 64.2387 93.7501C63.6435 94.3453 63.3027 95.1709 63.3027 96.0125C63.3027 96.8557 63.6435 97.6797 64.2387 98.2765C64.8355 98.8717 65.6595 99.2125 66.5027 99.2125Z" fill="#65A30D"/>
</g>
<mask id="mask8_557_16122" style="mask-type:luminance" maskUnits="userSpaceOnUse" x="-4" y="105" width="7" height="7">
<path fill-rule="evenodd" clip-rule="evenodd" d="M-3.49878 105.559H2.90122V111.558H-3.49878V105.559Z" fill="white"/>
</mask>
<g mask="url(#mask8_557_16122)">
<path fill-rule="evenodd" clip-rule="evenodd" d="M-0.298779 111.559C0.542821 111.559 1.36842 111.239 1.96362 110.68C2.56042 110.122 2.90122 109.348 2.90122 108.559C2.90122 107.768 2.56042 106.996 1.96362 106.436C1.36842 105.878 0.542821 105.559 -0.298779 105.559C-1.14198 105.559 -1.96598 105.878 -2.56278 106.436C-3.15798 106.996 -3.49878 107.768 -3.49878 108.559C-3.49878 109.348 -3.15798 110.122 -2.56278 110.68C-1.96598 111.239 -1.14198 111.559 -0.298779 111.559Z" fill="#65A30D"/>
</g>
<mask id="mask9_557_16122" style="mask-type:luminance" maskUnits="userSpaceOnUse" x="13" y="105" width="7" height="7">
<path fill-rule="evenodd" clip-rule="evenodd" d="M13.4011 105.559H19.8011V111.558H13.4011V105.559Z" fill="white"/>
</mask>
<g mask="url(#mask9_557_16122)">
<path fill-rule="evenodd" clip-rule="evenodd" d="M16.6011 111.559C17.4443 111.559 18.2683 111.239 18.8651 110.68C19.4603 110.122 19.8011 109.348 19.8011 108.559C19.8011 107.768 19.4603 106.996 18.8651 106.436C18.2683 105.878 17.4443 105.559 16.6011 105.559C15.7595 105.559 14.9339 105.878 14.3387 106.436C13.7419 106.996 13.4011 107.768 13.4011 108.559C13.4011 109.348 13.7419 110.122 14.3387 110.68C14.9339 111.239 15.7595 111.559 16.6011 111.559Z" fill="#65A30D"/>
</g>
<mask id="mask10_557_16122" style="mask-type:luminance" maskUnits="userSpaceOnUse" x="46" y="105" width="7" height="7">
<path fill-rule="evenodd" clip-rule="evenodd" d="M46.394 105.559H52.81V111.558H46.394V105.559Z" fill="white"/>
</mask>
<g mask="url(#mask10_557_16122)">
<path fill-rule="evenodd" clip-rule="evenodd" d="M49.594 111.559H49.61C51.378 111.559 52.81 110.215 52.81 108.559C52.81 106.901 51.378 105.559 49.61 105.559H49.594C47.8276 105.559 46.394 106.901 46.394 108.559C46.394 110.215 47.8276 111.559 49.594 111.559Z" fill="#65A30D"/>
</g>
<mask id="mask11_557_16122" style="mask-type:luminance" maskUnits="userSpaceOnUse" x="29" y="105" width="8" height="7">
<path fill-rule="evenodd" clip-rule="evenodd" d="M29.894 105.559H36.31V111.558H29.894V105.559Z" fill="white"/>
</mask>
<g mask="url(#mask11_557_16122)">
<path fill-rule="evenodd" clip-rule="evenodd" d="M33.094 111.559H33.11C34.8764 111.559 36.31 110.215 36.31 108.559C36.31 106.901 34.8764 105.559 33.11 105.559H33.094C31.3276 105.559 29.894 106.901 29.894 108.559C29.894 110.215 31.3276 111.559 33.094 111.559Z" fill="#65A30D"/>
</g>
<mask id="mask12_557_16122" style="mask-type:luminance" maskUnits="userSpaceOnUse" x="63" y="105" width="7" height="7">
<path fill-rule="evenodd" clip-rule="evenodd" d="M63.3027 105.559H69.7024V111.558H63.3027V105.559Z" fill="white"/>
</mask>
<g mask="url(#mask12_557_16122)">
<path fill-rule="evenodd" clip-rule="evenodd" d="M66.5027 111.559C67.3443 111.559 68.1699 111.239 68.7651 110.68C69.3619 110.122 69.7027 109.348 69.7027 108.559C69.7027 107.768 69.3619 106.996 68.7651 106.436C68.1699 105.878 67.3443 105.559 66.5027 105.559C65.6595 105.559 64.8355 105.878 64.2387 106.436C63.6435 106.996 63.3027 107.768 63.3027 108.559C63.3027 109.348 63.6435 110.122 64.2387 110.68C64.8355 111.239 65.6595 111.559 66.5027 111.559Z" fill="#65A30D"/>
</g>
</svg>
